<svg width="30" height="13" viewBox="0 0 30 13" fill="none" xmlns="http://www.w3.org/2000/svg">
<path d="M14.3251 0.779652C14.6854 0.776842 15.0457 0.774726 15.406 0.773429C15.5733 0.772811 15.7406 0.771968 15.9079 0.770592C16.0694 0.769264 16.2309 0.768569 16.3924 0.768257C16.4539 0.768036 16.5155 0.767603 16.5771 0.766954C16.6634 0.766081 16.7497 0.765962 16.836 0.766018C16.8614 0.765586 16.8868 0.765154 16.913 0.764709C17.0732 0.765824 17.1837 0.793019 17.3062 0.899746C17.4042 1.0253 17.4294 1.11437 17.4303 1.27136C17.4304 1.28703 17.4305 1.3027 17.4306 1.31884C17.431 1.37067 17.4312 1.42249 17.4313 1.47432C17.4314 1.51043 17.4316 1.54655 17.4317 1.58266C17.432 1.65842 17.4321 1.73417 17.4322 1.80993C17.4323 1.90671 17.4329 2.00348 17.4336 2.10026C17.434 2.1749 17.4341 2.24953 17.4342 2.32417C17.4343 2.35983 17.4344 2.39549 17.4348 2.43115C17.4352 2.48121 17.4351 2.53126 17.435 2.58132C17.4351 2.62396 17.4351 2.62396 17.4352 2.66746C17.4196 2.81218 17.3603 2.9324 17.2581 3.03742C17.1139 3.10948 17.1139 3.10948 16.3926 3.10948C16.3926 3.64054 16.3926 4.17159 16.3926 4.71874C16.5275 4.71874 16.6624 4.71874 16.8013 4.71874C16.8013 4.79008 16.8013 4.86141 16.8013 4.93491C15.9842 4.93491 15.167 4.93491 14.3251 4.93491C14.3251 4.86357 14.3251 4.79224 14.3251 4.71874C14.46 4.71874 14.5949 4.71874 14.7338 4.71874C14.7338 4.36206 14.7338 4.00538 14.7338 3.63789C14.4482 3.63789 14.1626 3.63789 13.8683 3.63789C13.8445 3.71716 13.8207 3.79642 13.7962 3.87808C13.7763 3.93155 13.7556 3.98474 13.7339 4.03749C13.7225 4.06521 13.7111 4.09294 13.6994 4.12151C13.6877 4.14967 13.676 4.17783 13.664 4.20684C13.6523 4.23528 13.6406 4.26372 13.6286 4.29302C13.5733 4.42736 13.5175 4.56144 13.4597 4.69472C13.5628 4.70265 13.6659 4.71057 13.7722 4.71874C13.7722 4.79008 13.7722 4.86141 13.7722 4.93491C13.4707 4.93491 13.1692 4.93491 12.8586 4.93491C12.8586 4.86357 12.8586 4.79224 12.8586 4.71874C12.9697 4.71874 13.0808 4.71874 13.1952 4.71874C13.2052 4.68405 13.2153 4.64936 13.2256 4.61362C13.2639 4.48618 13.3095 4.36281 13.3582 4.23902C13.3714 4.20517 13.3714 4.20517 13.3849 4.17063C13.4137 4.0966 13.4427 4.02262 13.4717 3.94864C13.4922 3.89615 13.5126 3.84366 13.5331 3.79117C13.5756 3.68215 13.6181 3.57315 13.6607 3.46416C13.7209 3.30993 13.7808 3.15559 13.8406 3.00121C13.8501 2.97692 13.8595 2.95263 13.8692 2.9276C13.888 2.87885 13.9069 2.8301 13.9258 2.78136C14.0912 2.35452 14.2575 1.928 14.4243 1.50172C14.4338 1.47748 14.4433 1.45323 14.453 1.42826C14.4795 1.36044 14.5061 1.29264 14.5327 1.22484C14.5406 1.20466 14.5484 1.18448 14.5566 1.16369C14.6108 1.02537 14.6108 1.02537 14.6377 0.971802C14.5345 0.971802 14.4314 0.971802 14.3251 0.971802C14.3251 0.908393 14.3251 0.844983 14.3251 0.779652ZM15.3348 0.971802C15.3348 2.20829 15.3348 3.44478 15.3348 4.71874C15.4856 4.71874 15.6363 4.71874 15.7916 4.71874C15.7916 3.48225 15.7916 2.24576 15.7916 0.971802C15.6409 0.971802 15.4901 0.971802 15.3348 0.971802ZM16.3926 0.971802C16.3926 1.61383 16.3926 2.25585 16.3926 2.91733C16.6763 2.9462 16.6763 2.9462 16.7773 2.86929C16.7846 2.80919 16.7871 2.75499 16.7866 2.69483C16.7868 2.66787 16.7868 2.66787 16.787 2.64038C16.7873 2.58082 16.7871 2.52128 16.7869 2.46172C16.7869 2.42044 16.787 2.37916 16.7871 2.33788C16.7872 2.25129 16.787 2.16472 16.7867 2.07813C16.7863 1.96699 16.7865 1.85586 16.787 1.74471C16.7872 1.65945 16.7871 1.57419 16.7869 1.48893C16.7869 1.44794 16.787 1.40695 16.7871 1.36596C16.7873 1.30874 16.787 1.25153 16.7866 1.1943C16.7868 1.17726 16.7869 1.16021 16.7871 1.14265C16.7872 1.09061 16.7872 1.09061 16.7773 1.01984C16.6763 0.942935 16.6763 0.942935 16.3926 0.971802ZM14.7098 1.40414C14.7036 1.42041 14.6973 1.43667 14.6909 1.45343C14.6592 1.53612 14.6274 1.61876 14.5956 1.70137C14.5895 1.71708 14.5835 1.73279 14.5772 1.74898C14.485 1.988 14.3906 2.22614 14.2951 2.46388C14.2842 2.49097 14.2733 2.51806 14.2621 2.54597C14.2071 2.68272 14.1521 2.81942 14.0969 2.95607C14.0764 3.00686 14.056 3.05765 14.0355 3.10845C14.0259 3.13211 14.0163 3.15577 14.0064 3.18015C13.9933 3.21264 13.9933 3.21264 13.98 3.24579C13.9724 3.26477 13.9647 3.28375 13.9568 3.30331C13.9378 3.34903 13.9378 3.34903 13.9405 3.39771C14.2023 3.39771 14.4641 3.39771 14.7338 3.39771C14.7338 2.73983 14.7338 2.08195 14.7338 1.40414C14.7259 1.40414 14.718 1.40414 14.7098 1.40414Z" fill="#8B8B8B"/>
<path d="M9.42105 6.37543C9.69079 6.37543 9.96053 6.37543 10.2384 6.37543C10.3235 6.66903 10.4059 6.96322 10.4853 7.2584C10.492 7.2831 10.492 7.2831 10.4988 7.3083C10.5355 7.44473 10.5721 7.58119 10.6087 7.71766C10.6363 7.82061 10.6639 7.92356 10.6917 8.02649C10.7045 8.07425 10.7173 8.12202 10.73 8.1698C10.7378 8.19846 10.7455 8.22712 10.7534 8.25665C10.7602 8.28191 10.767 8.30716 10.7739 8.33318C10.7892 8.39232 10.7892 8.39232 10.8154 8.44105C10.8212 8.42119 10.8269 8.40134 10.8329 8.38088C10.8877 8.1919 10.9425 8.00292 10.9973 7.81395C11.0254 7.71684 11.0536 7.61974 11.0817 7.52263C11.109 7.42856 11.1363 7.33449 11.1636 7.24043C11.1739 7.2049 11.1842 7.16937 11.1945 7.13384C11.2678 6.88085 11.3419 6.62808 11.4164 6.37543C11.6783 6.37543 11.9401 6.37543 12.2098 6.37543C12.2098 6.41506 12.2098 6.45469 12.2098 6.49552C12.1915 6.50147 12.1731 6.50741 12.1542 6.51354C12.0823 6.54697 12.0573 6.57204 12.0175 6.63963C11.9966 6.70767 11.9903 6.76892 11.9901 6.83989C11.9899 6.86056 11.9898 6.88123 11.9896 6.90253C11.9896 6.92501 11.9896 6.9475 11.9896 6.97067C11.9894 6.9945 11.9893 7.01834 11.9892 7.0429C11.9888 7.12177 11.9887 7.20064 11.9885 7.27951C11.9884 7.33438 11.9883 7.38925 11.9881 7.44412C11.9879 7.55921 11.9877 7.67429 11.9877 7.78938C11.9875 7.93665 11.9869 8.0839 11.9863 8.23116C11.9858 8.34453 11.9857 8.4579 11.9857 8.57128C11.9856 8.62555 11.9854 8.67983 11.9851 8.73411C11.9847 8.81016 11.9847 8.8862 11.9849 8.96226C11.9846 8.98455 11.9844 9.00684 11.9842 9.02981C11.9851 9.16977 12.0044 9.27501 12.0656 9.4018C12.1381 9.45114 12.1381 9.45114 12.2098 9.47386C12.2098 9.51349 12.2098 9.55312 12.2098 9.59395C11.8766 9.59395 11.5434 9.59395 11.2001 9.59395C11.2001 9.55432 11.2001 9.51469 11.2001 9.47386C11.2224 9.46494 11.2447 9.45602 11.2677 9.44684C11.3616 9.39167 11.3778 9.35858 11.4164 9.25769C11.4261 9.18445 11.4256 9.11225 11.4246 9.03848C11.4246 9.01691 11.4247 8.99533 11.4247 8.97311C11.4246 8.90214 11.4241 8.8312 11.4235 8.76024C11.4234 8.7109 11.4233 8.66156 11.4232 8.61223C11.4229 8.48263 11.4222 8.35304 11.4214 8.22344C11.4207 8.0911 11.4203 7.95875 11.42 7.82641C11.4192 7.56692 11.418 7.30744 11.4164 7.04795C11.3458 7.29665 11.2752 7.54534 11.2046 7.79404C11.1968 7.82151 11.1968 7.82151 11.1888 7.84953C11.0238 8.43086 10.8591 9.01228 10.6952 9.59395C10.6556 9.58603 10.6159 9.5781 10.575 9.56993C10.5698 9.55079 10.5646 9.53165 10.5593 9.51192C10.5092 9.32697 10.459 9.14202 10.4088 8.95708C10.383 8.86212 10.3573 8.76715 10.3315 8.67218C10.1825 8.12216 10.0311 7.57279 9.87783 7.02394C9.87615 7.3056 9.87487 7.58726 9.87409 7.86893C9.87372 7.99972 9.87321 8.13052 9.87239 8.26132C9.8716 8.38762 9.87117 8.51392 9.87099 8.64022C9.87085 8.68833 9.87059 8.73644 9.8702 8.78455C9.86968 8.8521 9.86961 8.91964 9.86964 8.98719C9.86938 9.00694 9.86912 9.02669 9.86885 9.04703C9.86956 9.18051 9.89254 9.28058 9.94995 9.4018C10.0225 9.45114 10.0225 9.45114 10.0942 9.47386C10.0942 9.51349 10.0942 9.55312 10.0942 9.59395C9.87999 9.59395 9.66579 9.59395 9.44509 9.59395C9.44509 9.55432 9.44509 9.51469 9.44509 9.47386C9.48735 9.459 9.52961 9.44415 9.57187 9.42929C9.63405 9.38811 9.6402 9.35384 9.66146 9.28171C9.66852 9.19769 9.66803 9.11393 9.66768 9.02965C9.66777 9.00429 9.66785 8.97893 9.66794 8.9528C9.66815 8.86903 9.66801 8.78527 9.66785 8.7015C9.66788 8.64326 9.66793 8.58503 9.66799 8.52679C9.66806 8.40475 9.66795 8.28272 9.66773 8.16069C9.66745 8.00424 9.66761 7.8478 9.6679 7.69135C9.66807 7.5711 9.66802 7.45085 9.66789 7.3306C9.66786 7.27291 9.6679 7.21522 9.66801 7.15753C9.66814 7.07692 9.66795 6.99632 9.66768 6.91571C9.66778 6.89185 9.66788 6.86799 9.66798 6.84341C9.66843 6.68752 9.66843 6.68752 9.61338 6.54356C9.5671 6.51902 9.5671 6.51902 9.51421 6.51203C9.48347 6.50659 9.45272 6.50114 9.42105 6.49552C9.42105 6.45589 9.42105 6.41626 9.42105 6.37543Z" fill="#8B8B8B"/>
<path d="M18.7491 5.70366C18.9629 5.70143 19.1766 5.69973 19.3904 5.69868C19.4897 5.69818 19.589 5.6975 19.6883 5.69641C19.7841 5.69537 19.88 5.69479 19.9759 5.69455C20.0124 5.69437 20.0489 5.69402 20.0854 5.6935C20.1367 5.6928 20.188 5.69271 20.2392 5.69275C20.2684 5.69254 20.2975 5.69233 20.3276 5.69211C20.4523 5.71005 20.5259 5.76996 20.6077 5.86279C20.6743 5.95634 20.6758 6.01012 20.677 6.12499C20.6773 6.1492 20.6773 6.1492 20.6776 6.17389C20.6782 6.22741 20.6786 6.28092 20.6789 6.33444C20.679 6.35273 20.6792 6.37103 20.6793 6.38988C20.6799 6.48678 20.6804 6.58369 20.6808 6.68059C20.6811 6.76067 20.6817 6.84073 20.6827 6.92081C20.6839 7.01758 20.6845 7.11433 20.6847 7.21111C20.6848 7.24791 20.6852 7.28471 20.6858 7.32151C20.6906 7.645 20.6906 7.645 20.6235 7.75116C20.349 8.00569 20.1408 7.91339 19.7347 7.91339C19.7347 8.41275 19.7347 8.9121 19.7347 9.42658C19.8617 9.42658 19.9886 9.42658 20.1194 9.42658C20.1194 9.49792 20.1194 9.56925 20.1194 9.64275C19.6593 9.64275 19.1991 9.64275 18.725 9.64275C18.725 9.57142 18.725 9.50008 18.725 9.42658C18.852 9.41866 18.9789 9.41073 19.1097 9.40256C19.1096 9.35934 19.1096 9.31611 19.1095 9.27158C19.109 8.86511 19.1087 8.45864 19.1084 8.05217C19.1083 7.84318 19.1081 7.63419 19.1079 7.4252C19.1076 7.24309 19.1075 7.06098 19.1074 6.87888C19.1074 6.78241 19.1073 6.68594 19.1071 6.58947C19.107 6.49874 19.1069 6.40802 19.107 6.3173C19.107 6.28393 19.1069 6.25056 19.1068 6.2172C19.1067 6.17177 19.1067 6.12635 19.1068 6.08093C19.1068 6.05547 19.1067 6.03001 19.1067 6.00378C19.1097 5.94385 19.1097 5.94385 19.1337 5.89581C19.0068 5.89581 18.8798 5.89581 18.7491 5.89581C18.7491 5.8324 18.7491 5.76899 18.7491 5.70366ZM19.7347 5.89581C19.7347 6.4982 19.7347 7.1006 19.7347 7.72124C19.8379 7.72124 19.941 7.72124 20.0473 7.72124C20.1159 7.65266 20.1016 7.60583 20.102 7.50977C20.1021 7.49297 20.1022 7.47617 20.1023 7.45887C20.1027 7.40321 20.1026 7.34756 20.1026 7.29191C20.1027 7.25332 20.1028 7.21473 20.1029 7.17614C20.1031 7.09521 20.1031 7.01429 20.1029 6.93336C20.1028 6.82949 20.1032 6.72562 20.1038 6.62175C20.1041 6.54205 20.1041 6.46235 20.1041 6.38265C20.1041 6.34434 20.1042 6.30604 20.1044 6.26773C20.1047 6.21424 20.1046 6.16078 20.1043 6.10729C20.1043 6.07682 20.1043 6.04635 20.1044 6.01496C20.1014 5.99149 20.0984 5.96803 20.0954 5.94385C19.9977 5.86917 19.9977 5.86917 19.7347 5.89581Z" fill="#8B8B8B"/>
<path d="M2.35285 5.70347C2.48164 5.70287 2.61042 5.70244 2.7392 5.70215C2.78302 5.70203 2.82684 5.70186 2.87066 5.70165C2.93361 5.70136 2.99657 5.70123 3.05953 5.70112C3.08894 5.70093 3.08894 5.70093 3.11895 5.70074C3.19838 5.70074 3.26264 5.70221 3.33853 5.72748C3.33853 6.9402 3.33853 8.15291 3.33853 9.40237C3.45753 9.41029 3.57654 9.41822 3.69915 9.42639C3.69915 9.49772 3.69915 9.56906 3.69915 9.64256C3.24694 9.64256 2.79473 9.64256 2.32881 9.64256C2.32881 9.57122 2.32881 9.49988 2.32881 9.42639C2.45575 9.42639 2.58269 9.42639 2.71347 9.42639C2.71347 9.08556 2.71347 8.74473 2.71347 8.39358C2.44373 8.39358 2.17399 8.39358 1.89608 8.39358C1.87228 8.47284 1.84848 8.5521 1.82395 8.63376C1.79966 8.69822 1.77492 8.7618 1.74854 8.82535C1.74171 8.84207 1.73487 8.85879 1.72783 8.87602C1.70639 8.92842 1.68479 8.98075 1.66318 9.03308C1.64844 9.06901 1.63371 9.10494 1.619 9.14088C1.58325 9.22809 1.54738 9.31525 1.51142 9.40237C1.61456 9.41029 1.71769 9.41822 1.82395 9.42639C1.82395 9.49772 1.82395 9.56906 1.82395 9.64256C1.53835 9.64256 1.25274 9.64256 0.958481 9.64256C0.958481 9.57122 0.958481 9.49988 0.958481 9.42639C1.06955 9.42639 1.18062 9.42639 1.29505 9.42639C1.30299 9.38676 1.31092 9.34712 1.31909 9.30629C1.33073 9.27094 1.34324 9.23587 1.35651 9.20109C1.36419 9.18081 1.37188 9.16053 1.3798 9.13963C1.38822 9.11772 1.39663 9.09581 1.4053 9.07323C1.41859 9.03832 1.41859 9.03832 1.43215 9.00269C1.46148 8.92572 1.49095 8.84879 1.52044 8.77187C1.5411 8.71779 1.56175 8.6637 1.5824 8.60961C1.78777 8.07226 1.99582 7.53594 2.20477 6.99996C2.23307 6.92734 2.26136 6.85472 2.28964 6.78209C2.33519 6.66512 2.38077 6.54818 2.42638 6.43124C2.44334 6.38774 2.46031 6.34423 2.47726 6.30072C2.50044 6.24127 2.52365 6.18183 2.54687 6.12239C2.55371 6.10484 2.56055 6.08728 2.56759 6.0692C2.61454 5.94917 2.61454 5.94917 2.64135 5.89562C2.54614 5.89562 2.45094 5.89562 2.35285 5.89562C2.35285 5.83221 2.35285 5.7688 2.35285 5.70347ZM2.68943 6.37599C2.68459 6.38864 2.67976 6.40129 2.67478 6.41432C2.6131 6.5757 2.55135 6.73706 2.48959 6.8984C2.47977 6.92406 2.46995 6.94972 2.45983 6.97616C2.26441 7.48666 2.26441 7.48666 2.16907 7.7279C2.16276 7.74387 2.15645 7.75985 2.14994 7.7763C2.12156 7.84802 2.09302 7.91968 2.06433 7.99128C2.05461 8.01571 2.04489 8.04013 2.03488 8.06529C2.02239 8.0964 2.02239 8.0964 2.00965 8.12813C1.98957 8.17625 1.98957 8.17625 1.99224 8.22544C2.23025 8.22544 2.46825 8.22544 2.71347 8.22544C2.71347 7.61513 2.71347 7.00481 2.71347 6.37599C2.70553 6.37599 2.6976 6.37599 2.68943 6.37599Z" fill="#8B8B8B"/>
<path d="M14.4213 6.37626C14.5706 6.37387 14.7198 6.37213 14.869 6.37098C14.9197 6.3705 14.9704 6.36985 15.021 6.36901C15.6748 6.35849 15.6748 6.35849 15.9 6.57263C16.0894 6.80337 16.1304 7.09609 16.1042 7.38505C16.0583 7.62471 15.9639 7.83436 15.7571 7.97501C15.7368 7.98641 15.7165 7.9978 15.6955 8.00954C15.7467 8.17136 15.8075 8.32772 15.8729 8.48429C15.8828 8.50822 15.8928 8.53215 15.903 8.55681C15.9344 8.63262 15.966 8.70838 15.9975 8.78415C16.0291 8.86026 16.0607 8.93639 16.0923 9.01251C16.1119 9.0597 16.1315 9.10688 16.1512 9.15406C16.1601 9.17547 16.169 9.19689 16.1782 9.21895C16.1899 9.24701 16.1899 9.24701 16.2018 9.27564C16.2181 9.31528 16.233 9.35554 16.2468 9.3961C16.2553 9.41411 16.2638 9.43211 16.2725 9.45067C16.2963 9.45859 16.3201 9.46652 16.3446 9.47469C16.3446 9.51432 16.3446 9.55395 16.3446 9.59478C16.1463 9.59478 15.9479 9.59478 15.7436 9.59478C15.6719 9.4144 15.6002 9.23401 15.5286 9.05361C15.4953 8.96984 15.462 8.88608 15.4287 8.80232C15.3966 8.7215 15.3645 8.64067 15.3324 8.55984C15.3201 8.52899 15.3079 8.49815 15.2956 8.4673C15.2784 8.42413 15.2613 8.38094 15.2441 8.33775C15.2344 8.31316 15.2246 8.28857 15.2145 8.26324C15.1974 8.21913 15.1816 8.17451 15.1666 8.12963C15.1507 8.12171 15.1349 8.11378 15.1185 8.10561C15.1201 8.25945 15.1223 8.41328 15.1248 8.56711C15.1256 8.61938 15.1263 8.67166 15.1269 8.72393C15.1277 8.79931 15.1289 8.87466 15.1303 8.95003C15.1304 8.9732 15.1306 8.99638 15.1307 9.02026C15.1338 9.16324 15.1527 9.27292 15.2147 9.40263C15.2543 9.42746 15.2943 9.45164 15.3349 9.47469C15.3349 9.51432 15.3349 9.55395 15.3349 9.59478C15.0414 9.59478 14.7478 9.59478 14.4454 9.59478C14.4454 9.55515 14.4454 9.51552 14.4454 9.47469C14.4642 9.47023 14.4831 9.46577 14.5025 9.46118C14.5723 9.43174 14.5723 9.43175 14.5932 9.35606C14.6222 9.241 14.6206 9.1264 14.6203 9.00838C14.6204 8.9838 14.6205 8.95921 14.6206 8.93388C14.621 8.85294 14.621 8.77201 14.6209 8.69107C14.621 8.63463 14.6211 8.5782 14.6212 8.52176C14.6214 8.4036 14.6214 8.28545 14.6213 8.1673C14.6211 8.01603 14.6215 7.86476 14.6221 7.71349C14.6224 7.59699 14.6225 7.48048 14.6224 7.36398C14.6224 7.30821 14.6225 7.25244 14.6228 7.19667C14.6231 7.11866 14.6229 7.04066 14.6226 6.96265C14.6228 6.93972 14.623 6.91678 14.6232 6.89314C14.6221 6.75892 14.6076 6.66238 14.5415 6.54439C14.4804 6.50825 14.4804 6.50825 14.4213 6.49635C14.4213 6.45672 14.4213 6.41709 14.4213 6.37626ZM15.1426 6.59243C15.1185 6.66457 15.1156 6.71198 15.1158 6.78732C15.1158 6.81232 15.1158 6.83732 15.1158 6.86307C15.1159 6.89002 15.1161 6.91697 15.1162 6.94473C15.1162 6.97236 15.1162 6.99998 15.1163 7.02843C15.1164 7.11678 15.1167 7.20513 15.117 7.29348C15.1171 7.35332 15.1173 7.41316 15.1174 7.47301C15.1176 7.61983 15.118 7.76665 15.1185 7.91346C15.1569 7.91436 15.1953 7.915 15.2337 7.91553C15.2657 7.9161 15.2657 7.9161 15.2984 7.91669C15.394 7.91159 15.4359 7.88465 15.5032 7.81739C15.6699 7.54319 15.6456 7.16369 15.5858 6.86001C15.5525 6.73227 15.5134 6.65293 15.407 6.56841C15.3094 6.51962 15.2307 6.53371 15.1426 6.59243Z" fill="#8B8B8B"/>
<path d="M5.64659 6.37629C5.79582 6.37389 5.94503 6.37216 6.09428 6.37101C6.14494 6.37053 6.19561 6.36987 6.24627 6.36904C6.89005 6.35868 6.89005 6.35868 7.10708 6.55643C7.44584 6.88582 7.54199 7.40585 7.55263 7.86022C7.55787 8.3684 7.49678 8.95053 7.13309 9.33811C6.98382 9.47774 6.81042 9.59814 6.5991 9.59754C6.57793 9.59754 6.55676 9.59753 6.53494 9.59753C6.51218 9.59741 6.48941 9.59728 6.46595 9.59716C6.44258 9.59712 6.4192 9.59709 6.39512 9.59705C6.3204 9.59692 6.24569 9.59662 6.17098 9.59631C6.12035 9.59619 6.06972 9.59608 6.01908 9.59598C5.89492 9.59572 5.77076 9.5953 5.64659 9.59481C5.64659 9.55518 5.64659 9.51555 5.64659 9.47472C5.6689 9.46629 5.69122 9.45787 5.71421 9.4492C5.8075 9.39254 5.83498 9.33634 5.86296 9.23453C5.87278 9.15262 5.87283 9.07161 5.87229 8.98919C5.87242 8.96511 5.87254 8.94103 5.87267 8.91622C5.87299 8.83695 5.87278 8.7577 5.87254 8.67844C5.87259 8.62313 5.87266 8.56783 5.87275 8.51252C5.87285 8.39673 5.8727 8.28095 5.87236 8.16516C5.87195 8.01701 5.87219 7.86887 5.87262 7.72072C5.87288 7.60654 5.8728 7.49237 5.87261 7.37819C5.87256 7.32358 5.87262 7.26897 5.87279 7.21436C5.87297 7.13791 5.87269 7.06147 5.87229 6.98502C5.87244 6.96262 5.87258 6.94021 5.87273 6.91713C5.87138 6.77724 5.8524 6.671 5.79084 6.54442C5.71775 6.50599 5.71775 6.50599 5.64659 6.49638C5.64659 6.45675 5.64659 6.41712 5.64659 6.37629ZM6.36782 6.59246C6.35702 6.64355 6.35702 6.64355 6.35898 6.70368C6.35885 6.72712 6.35872 6.75056 6.35858 6.77471C6.3588 6.80052 6.35902 6.82632 6.35925 6.85291C6.3592 6.88001 6.35915 6.90712 6.3591 6.93505C6.35903 7.02501 6.35947 7.11497 6.35993 7.20494C6.36 7.26722 6.36005 7.3295 6.36007 7.39179C6.36018 7.52247 6.36052 7.65315 6.36106 7.78383C6.36175 7.95167 6.362 8.11952 6.36211 8.28736C6.36219 8.41602 6.36244 8.54467 6.36273 8.67333C6.36287 8.73523 6.36298 8.79714 6.36307 8.85904C6.36324 8.94542 6.36356 9.0318 6.36394 9.11819C6.36397 9.14399 6.364 9.1698 6.36403 9.19638C6.36416 9.21982 6.3643 9.24326 6.36444 9.26741C6.36451 9.28785 6.36459 9.30829 6.36466 9.32935C6.36471 9.38021 6.36471 9.38021 6.39186 9.42668C6.54525 9.43461 6.64312 9.42558 6.766 9.32338C7.09534 8.99187 7.04743 8.29528 7.047 7.86552C7.04473 7.44535 7.02742 6.96005 6.75247 6.61647C6.67844 6.56716 6.64609 6.55911 6.56015 6.55042C6.53932 6.54807 6.5185 6.54572 6.49704 6.54329C6.43342 6.53943 6.43342 6.53943 6.36782 6.59246Z" fill="#8B8B8B"/>
<path d="M7.56964 6.37543C8.10912 6.37543 8.6486 6.37543 9.20442 6.37543C9.20442 6.7004 9.20442 7.02538 9.20442 7.3602C9.17269 7.3602 9.14096 7.3602 9.10826 7.3602C9.10271 7.32976 9.09717 7.29933 9.09145 7.26797C9.03131 6.91062 9.03131 6.91062 8.82127 6.62763C8.65107 6.54434 8.51277 6.56758 8.31491 6.56758C8.30698 6.98767 8.29904 7.40776 8.29087 7.84058C8.46375 7.82248 8.46375 7.82248 8.57936 7.72048C8.66231 7.551 8.68681 7.35135 8.72361 7.16805C8.74741 7.16805 8.77121 7.16805 8.79573 7.16805C8.79573 7.69118 8.79573 8.21431 8.79573 8.75329C8.77193 8.75329 8.74813 8.75329 8.72361 8.75329C8.71778 8.72605 8.71195 8.6988 8.70595 8.67073C8.65324 8.3977 8.65324 8.3977 8.53128 8.15282C8.45506 8.10883 8.37936 8.08076 8.29087 8.08076C8.29308 8.26119 8.29566 8.4416 8.2985 8.62201C8.29942 8.68342 8.30026 8.74484 8.30101 8.80626C8.3021 8.89438 8.3035 8.98249 8.30496 9.0706C8.30523 9.0982 8.30551 9.1258 8.3058 9.15423C8.30627 9.17971 8.30675 9.2052 8.30724 9.23145C8.30756 9.25396 8.30788 9.27647 8.30821 9.29966C8.30987 9.35858 8.30987 9.35858 8.36299 9.4018C8.54578 9.42405 8.7182 9.42053 8.86785 9.30573C9.07457 9.12985 9.15804 8.83109 9.25251 8.58516C9.27631 8.58516 9.30011 8.58516 9.32463 8.58516C9.32463 8.92295 9.2704 9.25877 9.22846 9.59395C8.68105 9.59395 8.13364 9.59395 7.56964 9.59395C7.56964 9.55432 7.56964 9.51469 7.56964 9.47386C7.60385 9.45974 7.60385 9.45974 7.63876 9.44534C7.71596 9.40904 7.71596 9.40904 7.74544 9.34626C7.78298 9.19967 7.78958 9.06078 7.7895 8.91041C7.78958 8.88798 7.78966 8.86554 7.78975 8.84242C7.78997 8.76849 7.79002 8.69456 7.79005 8.62063C7.79012 8.56906 7.79021 8.51749 7.79029 8.46592C7.79043 8.3579 7.79048 8.24988 7.79046 8.14187C7.79046 8.00371 7.79079 7.86555 7.7912 7.7274C7.79147 7.62091 7.79152 7.51442 7.79151 7.40793C7.79154 7.357 7.79164 7.30608 7.79183 7.25515C7.79206 7.18382 7.79199 7.1125 7.79185 7.04116C7.79205 7.00986 7.79205 7.00986 7.79226 6.97793C7.7915 6.82955 7.77932 6.68893 7.70487 6.55707C7.66035 6.5143 7.63021 6.50387 7.56964 6.49552C7.56964 6.45589 7.56964 6.41626 7.56964 6.37543Z" fill="#8B8B8B"/>
<path d="M26.1057 6.37543C26.6372 6.37543 27.1687 6.37543 27.7164 6.37543C27.7164 6.7004 27.7164 7.02538 27.7164 7.3602C27.6926 7.3602 27.6688 7.3602 27.6443 7.3602C27.6405 7.33351 27.6366 7.30682 27.6327 7.27932C27.5966 7.04298 27.5492 6.85049 27.4099 6.65164C27.2794 6.56472 27.1222 6.56196 26.9698 6.56823C26.923 6.56758 26.923 6.56758 26.8509 6.54356C26.843 6.9795 26.8351 7.41544 26.8269 7.8646C27.0306 7.81571 27.0306 7.81571 27.1015 7.7308C27.1497 7.62598 27.1727 7.52429 27.1935 7.41124C27.1977 7.39012 27.2018 7.36901 27.2061 7.34725C27.2162 7.29557 27.226 7.24386 27.2356 7.19207C27.2832 7.18018 27.2832 7.18018 27.3317 7.16805C27.3317 7.69118 27.3317 8.21431 27.3317 8.75329C27.3 8.75329 27.2683 8.75329 27.2356 8.75329C27.2315 8.72806 27.2274 8.70282 27.2232 8.67683C27.1814 8.40259 27.1814 8.40259 27.0673 8.15282C26.9883 8.10023 26.9181 8.08081 26.8269 8.05675C26.8285 8.24059 26.8306 8.42442 26.8332 8.60825C26.834 8.67083 26.8347 8.73341 26.8352 8.79599C26.836 8.88579 26.8373 8.97556 26.8386 9.06535C26.8388 9.09347 26.8389 9.1216 26.8391 9.15057C26.8398 9.18952 26.8398 9.18952 26.8405 9.22925C26.8408 9.25218 26.8411 9.27512 26.8413 9.29875C26.8461 9.32598 26.8461 9.32598 26.8509 9.35376C26.964 9.4291 27.0792 9.41491 27.2115 9.4018C27.3461 9.36658 27.4338 9.29104 27.5118 9.17794C27.6171 8.99131 27.6996 8.78915 27.7645 8.58516C27.8041 8.58516 27.8438 8.58516 27.8847 8.58516C27.8594 8.82579 27.8312 9.06591 27.799 9.30573C27.796 9.32881 27.7929 9.3519 27.7898 9.37568C27.7854 9.40793 27.7854 9.40793 27.7809 9.44083C27.7783 9.45997 27.7757 9.4791 27.7731 9.49881C27.7645 9.54591 27.7645 9.54591 27.7404 9.59395C27.201 9.59395 26.6615 9.59395 26.1057 9.59395C26.1057 9.55432 26.1057 9.51469 26.1057 9.47386C26.128 9.46593 26.1503 9.45801 26.1733 9.44984C26.2723 9.38778 26.2949 9.31871 26.322 9.20965C26.3316 9.1274 26.3319 9.04614 26.3314 8.9634C26.3315 8.93952 26.3316 8.91563 26.3317 8.89102C26.3321 8.81255 26.3318 8.73409 26.3316 8.65562C26.3316 8.60083 26.3317 8.54604 26.3318 8.49126C26.3319 8.37664 26.3318 8.26203 26.3314 8.14741C26.331 8.00069 26.3312 7.85397 26.3317 7.70725C26.3319 7.59419 26.3319 7.48113 26.3317 7.36806C26.3316 7.31397 26.3317 7.25987 26.3319 7.20578C26.332 7.13013 26.3318 7.0545 26.3314 6.97885C26.3315 6.95662 26.3316 6.93439 26.3318 6.91149C26.3303 6.75965 26.3142 6.63184 26.2018 6.51954C26.1521 6.50411 26.1521 6.50411 26.1057 6.49552C26.1057 6.45589 26.1057 6.41626 26.1057 6.37543Z" fill="#8B8B8B"/>
<path d="M23.4248 6.49138C23.4883 6.52677 23.4883 6.52677 23.5811 6.5199C23.5969 6.46441 23.6128 6.40893 23.6292 6.35177C23.6887 6.33988 23.6887 6.33988 23.7494 6.32775C23.7494 6.70821 23.7494 7.08866 23.7494 7.48065C23.7097 7.47273 23.67 7.4648 23.6292 7.45663C23.6224 7.4305 23.6157 7.40437 23.6088 7.37745C23.5479 7.15072 23.475 6.95565 23.3407 6.76009C23.3305 6.7451 23.3204 6.73012 23.31 6.71468C23.2359 6.61604 23.1401 6.54575 23.0281 6.49588C22.9383 6.48371 22.8821 6.48846 22.7967 6.5169C22.5134 6.77016 22.4997 7.29759 22.4786 7.65133C22.4202 8.58364 22.4202 8.58364 22.7533 9.41952C22.8357 9.49302 22.8931 9.50735 23.0025 9.50433C23.079 9.49494 23.1327 9.46862 23.1964 9.42618C23.2562 9.34062 23.2519 9.25022 23.2517 9.14968C23.2518 9.1322 23.2519 9.11472 23.252 9.09672C23.2522 9.05975 23.2522 9.02279 23.2521 8.98582C23.252 8.92989 23.2526 8.87399 23.2532 8.81806C23.254 8.63408 23.2533 8.46654 23.1724 8.29729C23.0996 8.25693 23.0996 8.25693 23.0281 8.24925C23.0281 8.20962 23.0281 8.16999 23.0281 8.12916C23.3455 8.12916 23.6628 8.12916 23.9898 8.12916C23.9898 8.16879 23.9898 8.20842 23.9898 8.24925C23.9475 8.26411 23.9052 8.27897 23.863 8.29382C23.8015 8.33453 23.7947 8.37062 23.7734 8.44141C23.7668 8.51602 23.7673 8.59031 23.7677 8.66517C23.7673 8.70922 23.7669 8.75327 23.7665 8.79732C23.7661 8.86648 23.7659 8.93563 23.7661 9.00479C23.7661 9.07174 23.7654 9.13865 23.7647 9.2056C23.7649 9.22627 23.7652 9.24693 23.7654 9.26823C23.7631 9.41173 23.7631 9.41173 23.6928 9.48588C23.4442 9.62797 23.108 9.74604 22.8208 9.67472C22.5183 9.57693 22.3181 9.37747 22.1717 9.10192C21.8686 8.48409 21.8817 7.70593 22.0936 7.06192C22.2066 6.76952 22.3965 6.49527 22.6901 6.36378C22.9675 6.26854 23.1748 6.36204 23.4248 6.49138Z" fill="#8B8B8B"/>
<path d="M17.4931 6.4216C17.5724 6.44844 17.632 6.45288 17.7149 6.44787C17.7308 6.40824 17.7467 6.36861 17.763 6.32777C17.7948 6.32777 17.8265 6.32777 17.8592 6.32777C17.8592 6.67653 17.8592 7.02528 17.8592 7.3846C17.8275 7.3846 17.7957 7.3846 17.763 7.3846C17.7563 7.35875 17.7496 7.3329 17.7426 7.30626C17.6385 6.9065 17.6385 6.9065 17.3934 6.58448C17.2867 6.53487 17.2053 6.51793 17.0899 6.54394C16.976 6.61812 16.9424 6.71481 16.9098 6.84146C16.8736 7.02751 16.8941 7.17312 16.9937 7.33657C17.087 7.46712 17.1921 7.53647 17.3303 7.61578C17.6583 7.80731 17.8843 8.032 17.9973 8.40447C18.0703 8.71513 18.0457 9.05879 17.8907 9.34064C17.773 9.52008 17.6032 9.62805 17.3956 9.68019C17.207 9.71116 17.0509 9.65838 16.8739 9.59978C16.7857 9.57106 16.7011 9.55665 16.6091 9.5463C16.6011 9.59386 16.5932 9.64141 16.585 9.69041C16.5533 9.69041 16.5216 9.69041 16.4889 9.69041C16.4889 9.30203 16.4889 8.91364 16.4889 8.51349C16.5206 8.51349 16.5523 8.51349 16.585 8.51349C16.588 8.52751 16.591 8.54153 16.5941 8.55598C16.6928 9.06165 16.6928 9.06165 17.0102 9.44872C17.1225 9.48468 17.2164 9.47749 17.3303 9.45022C17.4586 9.38334 17.4996 9.26831 17.5467 9.13798C17.5872 8.99951 17.5932 8.86045 17.5331 8.72816C17.4254 8.54085 17.2513 8.41992 17.0779 8.29732C16.7807 8.08719 16.5653 7.87225 16.4783 7.5062C16.4285 7.16914 16.4488 6.80253 16.6571 6.51993C16.9014 6.25962 17.1818 6.2929 17.4931 6.4216Z" fill="#8B8B8B"/>
<path d="M3.53088 6.37543C3.84029 6.37543 4.1497 6.37543 4.46848 6.37543C4.46848 6.41506 4.46848 6.45469 4.46848 6.49552C4.45013 6.50147 4.43179 6.50741 4.41288 6.51354C4.34094 6.54697 4.31595 6.57204 4.27615 6.63963C4.24679 6.73752 4.24838 6.83394 4.24824 6.93531C4.24812 6.9554 4.248 6.97549 4.24788 6.99619C4.24752 7.06267 4.24736 7.12915 4.24723 7.19563C4.24709 7.24208 4.24695 7.28852 4.24681 7.33497C4.24656 7.43249 4.24642 7.53002 4.24634 7.62754C4.2462 7.75168 4.24563 7.87582 4.24494 7.99997C4.24449 8.09604 4.24437 8.19211 4.24433 8.28818C4.24426 8.33389 4.24407 8.3796 4.24375 8.42531C4.22923 8.91799 4.22923 8.91799 4.4204 9.35376C4.52148 9.41244 4.62155 9.43659 4.73744 9.41681C4.84906 9.38016 4.91353 9.30843 4.97334 9.20965C5.00431 9.13895 5.02705 9.06837 5.04546 8.99348C5.04962 8.97694 5.05377 8.9604 5.05806 8.94336C5.07348 8.84905 5.07325 8.75682 5.07338 8.6614C5.0735 8.64029 5.07361 8.61919 5.07374 8.59744C5.07409 8.52783 5.07425 8.45822 5.07439 8.3886C5.07452 8.34011 5.07466 8.29163 5.0748 8.24314C5.07505 8.14156 5.07519 8.03998 5.07528 7.93841C5.07541 7.80834 5.07599 7.67829 5.07667 7.54823C5.07712 7.44811 5.07724 7.34799 5.07728 7.24787C5.07735 7.19992 5.07755 7.15197 5.07786 7.10402C5.07827 7.03693 5.07823 6.96986 5.07807 6.90277C5.07829 6.88304 5.07851 6.86331 5.07874 6.84298C5.07789 6.72593 5.06322 6.64453 4.99738 6.54356C4.9359 6.50932 4.9359 6.50932 4.87718 6.49552C4.87718 6.45589 4.87718 6.41626 4.87718 6.37543C5.07551 6.37543 5.27385 6.37543 5.4782 6.37543C5.47026 6.41506 5.46233 6.45469 5.45416 6.49552C5.42589 6.50444 5.42589 6.50444 5.39706 6.51354C5.33198 6.5366 5.33198 6.5366 5.31234 6.58636C5.26906 6.71749 5.25146 6.83306 5.25258 6.97076C5.25245 6.99063 5.25232 7.0105 5.25219 7.03098C5.25195 7.07375 5.25188 7.11652 5.25196 7.1593C5.25206 7.22732 5.25172 7.29532 5.25127 7.36333C5.25039 7.5079 5.25006 7.65247 5.24981 7.79704C5.24952 7.96434 5.24899 8.13162 5.24789 8.29891C5.24756 8.36535 5.24766 8.43178 5.24778 8.49822C5.24666 8.86111 5.22469 9.24043 4.96432 9.52039C4.80692 9.66351 4.62823 9.69409 4.4204 9.69003C4.23946 9.66084 4.08847 9.56473 3.97104 9.42573C3.80598 9.19469 3.74382 8.94396 3.74346 8.66398C3.74334 8.64315 3.74322 8.62232 3.74309 8.60086C3.74283 8.55574 3.74263 8.51061 3.74246 8.46549C3.74218 8.394 3.74171 8.32251 3.74119 8.25102C3.73971 8.0478 3.7384 7.84458 3.7376 7.64135C3.7371 7.51693 3.73625 7.39252 3.73518 7.26811C3.73484 7.22078 3.73463 7.17346 3.73455 7.12613C3.73444 7.05985 3.73388 6.99359 3.73322 6.92731C3.73333 6.89818 3.73333 6.89818 3.73344 6.86846C3.73161 6.74326 3.71116 6.65426 3.65109 6.54356C3.58994 6.50742 3.58994 6.50742 3.53088 6.49552C3.53088 6.45589 3.53088 6.41626 3.53088 6.37543Z" fill="#8B8B8B"/>
<path d="M23.9659 6.37543C24.2753 6.37543 24.5847 6.37543 24.9034 6.37543C24.9034 6.41506 24.9034 6.45469 24.9034 6.49552C24.8851 6.50147 24.8668 6.50741 24.8479 6.51354C24.7759 6.54697 24.7509 6.57204 24.7111 6.63963C24.6819 6.73712 24.6835 6.83292 24.6836 6.93387C24.6835 6.9538 24.6834 6.97373 24.6833 6.99427C24.6831 7.0602 24.6831 7.12613 24.683 7.19207C24.683 7.23809 24.6829 7.28411 24.6828 7.33014C24.6827 7.42673 24.6826 7.52332 24.6826 7.61992C24.6826 7.74304 24.6823 7.86616 24.6819 7.98929C24.6816 8.08445 24.6816 8.17961 24.6816 8.27477C24.6816 8.32012 24.6814 8.36547 24.6813 8.41082C24.6652 8.90884 24.6652 8.90884 24.8554 9.35376C24.9544 9.41926 25.0559 9.43599 25.1724 9.41681C25.284 9.38038 25.3472 9.30715 25.4083 9.20965C25.4957 9.03272 25.5081 8.85333 25.508 8.65905C25.508 8.63798 25.5081 8.61691 25.5082 8.59521C25.5084 8.52584 25.5085 8.45647 25.5085 8.3871C25.5086 8.3387 25.5087 8.29031 25.5087 8.24191C25.5089 8.14058 25.5089 8.03925 25.5089 7.93791C25.5089 7.80826 25.5093 7.67861 25.5097 7.54896C25.5099 7.44904 25.51 7.34913 25.51 7.24921C25.51 7.20142 25.5101 7.15362 25.5103 7.10583C25.5105 7.03892 25.5105 6.97202 25.5103 6.90511C25.5104 6.88551 25.5106 6.8659 25.5107 6.8457C25.5101 6.72803 25.4939 6.63123 25.4564 6.51954C25.4088 6.51161 25.3612 6.50369 25.3121 6.49552C25.3121 6.45589 25.3121 6.41626 25.3121 6.37543C25.5105 6.37543 25.7088 6.37543 25.9132 6.37543C25.9052 6.41506 25.8973 6.45469 25.8891 6.49552C25.8609 6.50444 25.8609 6.50444 25.832 6.51354C25.767 6.5366 25.767 6.5366 25.7473 6.58631C25.7038 6.71801 25.6865 6.8339 25.6879 6.9722C25.6878 6.99223 25.6877 7.01226 25.6877 7.03289C25.6875 7.07602 25.6875 7.11915 25.6877 7.16228C25.6879 7.23091 25.6876 7.29953 25.6873 7.36817C25.6863 7.56318 25.6863 7.7582 25.6863 7.95322C25.6863 8.07292 25.6859 8.19262 25.6851 8.31232C25.6849 8.37926 25.6852 8.44619 25.6855 8.51313C25.6848 8.85775 25.665 9.23758 25.4102 9.49684C25.2414 9.65252 25.0841 9.69178 24.8554 9.69003C24.6745 9.66123 24.5233 9.56453 24.406 9.42573C24.2402 9.19361 24.1788 8.94171 24.1784 8.6614C24.1783 8.64029 24.1782 8.61919 24.1781 8.59744C24.1778 8.55173 24.1776 8.50602 24.1774 8.46031C24.1771 8.38792 24.1767 8.31553 24.1762 8.24314C24.1747 8.03735 24.1734 7.83157 24.1726 7.62578C24.1721 7.49981 24.1712 7.37384 24.1701 7.24787C24.1698 7.19992 24.1696 7.15197 24.1695 7.10402C24.1694 7.03693 24.1688 6.96986 24.1682 6.90277C24.1683 6.88304 24.1683 6.86331 24.1684 6.84298C24.1667 6.72618 24.1516 6.64434 24.0861 6.54356C24.0246 6.50932 24.0246 6.50932 23.9659 6.49552C23.9659 6.45589 23.9659 6.41626 23.9659 6.37543Z" fill="#8B8B8B"/>
<path d="M27.9089 6.37543C28.4722 6.37543 29.0354 6.37543 29.6158 6.37543C29.6158 6.69248 29.6158 7.00952 29.6158 7.33618C29.592 7.33618 29.5682 7.33618 29.5437 7.33618C29.5384 7.30804 29.5331 7.27989 29.5277 7.2509C29.4615 6.87535 29.4615 6.87535 29.2311 6.58859C29.1592 6.56763 29.0887 6.55526 29.0148 6.54356C29.0162 6.89454 29.0181 7.24551 29.0204 7.59648C29.0215 7.75946 29.0225 7.92243 29.0231 8.0854C29.0237 8.2427 29.0247 8.39999 29.0259 8.55728C29.0263 8.61728 29.0266 8.67727 29.0267 8.73727C29.027 8.82133 29.0276 8.90539 29.0284 8.98945C29.0284 9.01423 29.0283 9.039 29.0283 9.06453C29.0301 9.20276 29.0421 9.30459 29.1109 9.42582C29.1721 9.46196 29.1721 9.46196 29.2311 9.47386C29.2311 9.51349 29.2311 9.55312 29.2311 9.59395C28.9217 9.59395 28.6123 9.59395 28.2935 9.59395C28.2935 9.55432 28.2935 9.51469 28.2935 9.47386C28.3159 9.46643 28.3382 9.459 28.3612 9.45134C28.4685 9.38198 28.4827 9.30714 28.5099 9.18563C28.5196 9.09647 28.5204 9.00819 28.5203 8.91856C28.5206 8.89276 28.5208 8.86695 28.521 8.84037C28.5218 8.75577 28.522 8.67117 28.5222 8.58657C28.5226 8.52764 28.5231 8.46871 28.5235 8.40979C28.5247 8.2552 28.5254 8.10061 28.526 7.94602C28.5267 7.78807 28.5278 7.63013 28.5289 7.47218C28.531 7.16264 28.5326 6.8531 28.534 6.54356C28.4992 6.55073 28.4646 6.55804 28.4299 6.56542C28.4106 6.56948 28.3913 6.57354 28.3714 6.57772C28.2694 6.60402 28.2203 6.65011 28.166 6.73918C28.0696 6.92917 28.0372 7.12789 28.0051 7.33618C27.9733 7.33618 27.9416 7.33618 27.9089 7.33618C27.9089 7.01913 27.9089 6.70208 27.9089 6.37543Z" fill="#8B8B8B"/>
<path d="M13.2674 6.37543C13.2991 6.37543 13.3309 6.37543 13.3635 6.37543C13.4522 6.68602 13.5329 6.99823 13.6107 7.31168C13.631 7.3933 13.6514 7.47489 13.6717 7.55647C13.7148 7.72922 13.7578 7.90199 13.8008 8.07476C13.8509 8.27617 13.9011 8.47757 13.9513 8.67895C13.9713 8.75916 13.9912 8.8394 14.0111 8.91963C14.0234 8.96873 14.0356 9.01783 14.0479 9.06692C14.0534 9.08908 14.0589 9.11124 14.0645 9.13407C14.0913 9.24103 14.12 9.34579 14.1569 9.44984C14.1966 9.45777 14.2362 9.46569 14.2771 9.47386C14.2771 9.51349 14.2771 9.55312 14.2771 9.59395C13.9756 9.59395 13.6742 9.59395 13.3635 9.59395C13.3635 9.55432 13.3635 9.51469 13.3635 9.47386C13.384 9.46647 13.384 9.46647 13.4048 9.45894C13.4224 9.45247 13.44 9.446 13.4582 9.43933C13.4758 9.43292 13.4934 9.42651 13.5115 9.41991C13.5555 9.40531 13.5555 9.40531 13.5799 9.37778C13.6035 9.20714 13.563 9.04931 13.518 8.88623C13.4958 8.80562 13.4838 8.74171 13.4838 8.65722C13.2695 8.65722 13.0553 8.65722 12.8346 8.65722C12.8267 8.73648 12.8188 8.81574 12.8106 8.89741C12.798 8.95091 12.798 8.95091 12.7851 9.00549C12.7581 9.12134 12.7451 9.23542 12.7625 9.35376C12.8085 9.42102 12.8363 9.44239 12.9128 9.46785C12.9267 9.46983 12.9405 9.47182 12.9549 9.47386C12.9549 9.51349 12.9549 9.55312 12.9549 9.59395C12.7644 9.59395 12.574 9.59395 12.3779 9.59395C12.3779 9.55432 12.3779 9.51469 12.3779 9.47386C12.393 9.47194 12.4081 9.47003 12.4237 9.46805C12.4774 9.45505 12.4774 9.45505 12.496 9.4075C12.5007 9.3887 12.5055 9.36991 12.5104 9.35054C12.5161 9.32867 12.5219 9.3068 12.5278 9.28426C12.5339 9.25964 12.5399 9.23502 12.5462 9.20965C12.5565 9.17014 12.5565 9.17014 12.567 9.12983C12.5911 9.03762 12.6145 8.94525 12.6377 8.85284C12.6465 8.81799 12.6554 8.78314 12.6642 8.74829C12.6829 8.67452 12.7015 8.60074 12.7201 8.52696C12.7491 8.41192 12.7782 8.29691 12.8074 8.1819C12.8122 8.1628 12.817 8.1437 12.822 8.12402C12.8318 8.08545 12.8415 8.04689 12.8513 8.00832C12.8659 7.95055 12.8805 7.89278 12.8951 7.83501C12.9797 7.50097 13.0648 7.16709 13.1502 6.83329C13.1563 6.80929 13.1625 6.78529 13.1688 6.76056C13.2016 6.63218 13.2345 6.5038 13.2674 6.37543ZM13.1472 7.38422C13.0831 7.61251 13.0268 7.84236 12.9729 8.07326C12.9664 8.1008 12.9599 8.12833 12.9532 8.1567C12.9472 8.18276 12.9411 8.20882 12.9349 8.23567C12.9295 8.25903 12.9241 8.2824 12.9185 8.30648C12.9038 8.37413 12.9038 8.37413 12.9068 8.46507C13.0813 8.46507 13.2558 8.46507 13.4357 8.46507C13.3484 8.10839 13.2611 7.75171 13.1712 7.38422C13.1633 7.38422 13.1554 7.38422 13.1472 7.38422Z" fill="#8B8B8B"/>
<path d="M20.8645 6.37543C21.1977 6.37543 21.5309 6.37543 21.8742 6.37543C21.8742 6.41506 21.8742 6.45469 21.8742 6.49552C21.8519 6.50097 21.8296 6.50642 21.8066 6.51203C21.7118 6.55105 21.6982 6.57022 21.6579 6.66365C21.6474 6.74756 21.648 6.83086 21.6485 6.91533C21.6483 6.95331 21.6483 6.95331 21.6482 6.99206C21.6478 7.07572 21.648 7.15936 21.6483 7.24301C21.6482 7.30119 21.6482 7.35938 21.6481 7.41756C21.648 7.53949 21.6481 7.66142 21.6485 7.78335C21.6489 7.93958 21.6486 8.09581 21.6482 8.25204C21.6479 8.37219 21.648 8.49233 21.6482 8.61248C21.6483 8.67009 21.6482 8.72769 21.648 8.78529C21.6479 8.86584 21.6481 8.94637 21.6485 9.02692C21.6484 9.0507 21.6482 9.07447 21.6481 9.09897C21.6493 9.22488 21.6558 9.31865 21.73 9.42582C21.8036 9.4604 21.8036 9.4604 21.8742 9.47386C21.8742 9.51349 21.8742 9.55312 21.8742 9.59395C21.549 9.59395 21.2237 9.59395 20.8886 9.59395C20.8806 9.55432 20.8727 9.51469 20.8645 9.47386C20.8948 9.47089 20.925 9.46791 20.9562 9.46485C21.0102 9.45369 21.0102 9.45369 21.0568 9.42582C21.1354 9.27739 21.1394 9.1055 21.1383 8.94131C21.1384 8.91819 21.1386 8.89508 21.1387 8.87126C21.139 8.79563 21.1388 8.72 21.1385 8.64436C21.1386 8.59137 21.1387 8.53838 21.1388 8.48539C21.1389 8.37466 21.1387 8.26393 21.1384 8.15319C21.138 8.01164 21.1382 7.87011 21.1386 7.72856C21.1389 7.61924 21.1388 7.50993 21.1386 7.40062C21.1386 7.34844 21.1386 7.29626 21.1388 7.24408C21.139 7.17104 21.1387 7.09801 21.1383 7.02496C21.1384 7.00366 21.1386 6.98235 21.1387 6.9604C21.1373 6.82066 21.117 6.69503 21.0568 6.56758C21.0109 6.52328 21.0109 6.52328 20.9562 6.50603C20.939 6.49906 20.9218 6.4921 20.9041 6.48492C20.891 6.48049 20.878 6.47606 20.8645 6.4715C20.8645 6.4398 20.8645 6.40809 20.8645 6.37543Z" fill="#8B8B8B"/>
<path d="M4.12722 11.0294C4.17981 11.0594 4.17981 11.0594 4.20385 11.0834C4.20724 11.1475 4.20487 11.2113 4.20385 11.2755C4.21432 11.2605 4.2248 11.2455 4.23559 11.2299C4.35191 11.0705 4.35191 11.0705 4.44877 11.0173C4.51638 11.0113 4.51638 11.0113 4.57348 11.0309C4.63521 11.1139 4.62102 11.1992 4.61254 11.2996C4.5972 11.3777 4.57564 11.4531 4.55244 11.5292C4.54671 11.5489 4.54098 11.5685 4.53507 11.5888C4.52108 11.6366 4.50675 11.6842 4.49234 11.7319C4.51069 11.7161 4.52903 11.7002 4.54793 11.6839C4.61254 11.6358 4.61254 11.6358 4.68467 11.6358C4.63716 11.7432 4.56779 11.814 4.4683 11.876C4.4042 11.8746 4.3699 11.8738 4.32405 11.828C4.32532 11.6747 4.36078 11.5314 4.40341 11.3851C4.42431 11.3086 4.4355 11.2342 4.44426 11.1555C4.24799 11.335 4.14541 11.5969 4.08364 11.852C4.02811 11.852 3.97258 11.852 3.91536 11.852C3.9253 11.7291 3.93852 11.6093 3.96494 11.4887C3.98752 11.3831 3.99148 11.2872 3.98748 11.1795C3.80208 11.369 3.72966 11.6035 3.65091 11.852C3.59537 11.852 3.53984 11.852 3.48262 11.852C3.51707 11.6346 3.5586 11.4191 3.60283 11.2035C3.58845 11.2109 3.57407 11.2184 3.55925 11.226C3.50666 11.2515 3.50666 11.2515 3.43454 11.2755C3.47291 11.1759 3.54221 11.099 3.62687 11.0354C3.69448 11.0249 3.69448 11.0249 3.74707 11.0354C3.79628 11.0845 3.78795 11.1868 3.79515 11.2515C3.81201 11.2253 3.82887 11.199 3.84624 11.172C3.91938 11.0704 3.9955 10.9943 4.12722 11.0294ZM4.15577 11.3236C4.17981 11.3716 4.17981 11.3716 4.17981 11.3716L4.15577 11.3236Z" fill="#8B8B8B"/>
<path d="M27.3991 10.8013C27.4548 10.8458 27.4905 10.8762 27.5238 10.9394C27.5377 11.0642 27.521 11.1466 27.4517 11.2516C27.3871 11.2967 27.3871 11.2967 27.3315 11.3237C27.3474 11.3346 27.3633 11.3455 27.3796 11.3567C27.4432 11.4401 27.4414 11.4979 27.4369 11.6006C27.4188 11.7175 27.3638 11.7799 27.2714 11.8491C27.1378 11.892 26.9823 11.9096 26.8489 11.8561C26.795 11.8213 26.7594 11.7897 26.7305 11.732C26.711 11.575 26.7344 11.4757 26.8267 11.3477C26.8808 11.3012 26.8808 11.3012 26.9228 11.2756C26.9112 11.2662 26.8995 11.2567 26.8875 11.2469C26.8281 11.1769 26.8379 11.1106 26.8408 11.022C26.8507 10.9634 26.8507 10.9634 26.9003 10.8928C27.0565 10.7833 27.2157 10.7198 27.3991 10.8013ZM27.0986 10.9034C27.0201 10.9882 27.0226 11.041 27.019 11.1556C27.0269 11.1793 27.0349 11.2031 27.043 11.2276C27.1589 11.2551 27.1589 11.2551 27.2684 11.2216C27.3271 11.1585 27.3314 11.1085 27.3375 11.0234C27.3385 10.942 27.3385 10.942 27.3015 10.8928C27.2253 10.8467 27.1724 10.8622 27.0986 10.9034ZM26.9469 11.4438C26.9244 11.5111 26.9189 11.5556 26.9183 11.6254C26.918 11.6443 26.9176 11.6631 26.9173 11.6826C26.9182 11.7374 26.9182 11.7374 26.9709 11.78C27.0725 11.7934 27.1227 11.7906 27.2098 11.735C27.2706 11.643 27.2728 11.583 27.273 11.4751C27.2638 11.4162 27.2638 11.4162 27.2142 11.3771C27.0969 11.3095 27.0274 11.3432 26.9469 11.4438Z" fill="#8B8B8B"/>
<path d="M21.4416 10.6273C21.4252 10.8565 21.3781 11.0781 21.3319 11.3028C21.3239 11.3422 21.3159 11.3816 21.3079 11.421C21.2885 11.5167 21.2689 11.6124 21.2493 11.7081C21.2681 11.6962 21.287 11.6843 21.3064 11.6721C21.3695 11.636 21.3695 11.636 21.4176 11.636C21.3699 11.7439 21.2993 11.8119 21.2012 11.8762C21.1306 11.8852 21.1306 11.8852 21.081 11.8762C21.0651 11.8287 21.0493 11.7811 21.0329 11.7321C21.0136 11.7514 20.9942 11.7708 20.9743 11.7907C20.8887 11.8762 20.8887 11.8762 20.809 11.8852C20.7204 11.8762 20.7204 11.8762 20.6618 11.8267C20.6045 11.7192 20.6094 11.6428 20.6409 11.5261C20.7043 11.3357 20.7901 11.1503 20.9608 11.0356C21.0555 10.9959 21.0696 11.0166 21.1772 11.0596C21.193 10.9566 21.2089 10.8535 21.2252 10.7474C21.1935 10.7474 21.1618 10.7474 21.1291 10.7474C21.137 10.7156 21.1449 10.6839 21.1531 10.6513C21.1967 10.6473 21.2403 10.6433 21.2838 10.6393C21.3202 10.6359 21.3202 10.6359 21.3574 10.6325C21.4176 10.6273 21.4176 10.6273 21.4416 10.6273ZM20.9443 11.2007C20.8405 11.3662 20.8058 11.5393 20.8166 11.7321C20.8562 11.7401 20.8959 11.748 20.9368 11.7561C21.0619 11.6144 21.141 11.4624 21.1772 11.2758C21.1692 11.1974 21.1692 11.1974 21.1531 11.1317C21.0466 11.1143 21.0196 11.1202 20.9443 11.2007ZM21.057 11.6601C21.081 11.7081 21.081 11.7081 21.081 11.7081L21.057 11.6601Z" fill="#8B8B8B"/>
<path d="M12.8107 10.6273C12.8454 10.6966 12.8258 10.7411 12.8108 10.8166C12.8053 10.8446 12.7998 10.8726 12.7941 10.9015C12.7882 10.9309 12.7823 10.9603 12.7761 10.9905C12.7674 11.0349 12.7674 11.0349 12.7584 11.0801C12.7439 11.1534 12.7293 11.2266 12.7145 11.2998C12.7292 11.2774 12.7438 11.255 12.7589 11.232C12.8198 11.1422 12.8796 11.0589 12.9805 11.0131C13.0434 11.011 13.073 11.0215 13.1232 11.0596C13.151 11.1517 13.1446 11.2193 13.1233 11.3123C13.1151 11.3491 13.1151 11.3491 13.1067 11.3866C13.1007 11.412 13.0948 11.4373 13.0887 11.4634C13.0828 11.4892 13.077 11.515 13.071 11.5416C13.0565 11.6052 13.0419 11.6687 13.0271 11.7321C13.0459 11.7163 13.0647 11.7004 13.0842 11.6841C13.1473 11.636 13.1473 11.636 13.1953 11.636C13.1822 11.7246 13.1522 11.7573 13.0812 11.8102C13.0568 11.8289 13.0568 11.8289 13.0319 11.8481C12.9697 11.8812 12.9283 11.8816 12.8588 11.8762C12.8182 11.7324 12.8575 11.6138 12.8948 11.4739C12.9068 11.4286 12.9185 11.3831 12.9301 11.3377C12.9355 11.3177 12.9408 11.2978 12.9463 11.2772C12.9602 11.2264 12.9602 11.2264 12.9309 11.1797C12.8457 11.2554 12.8004 11.3329 12.7506 11.4349C12.7434 11.4496 12.7361 11.4644 12.7287 11.4796C12.6698 11.6014 12.6174 11.7253 12.5703 11.8522C12.5227 11.8522 12.4751 11.8522 12.426 11.8522C12.4397 11.6506 12.4796 11.4566 12.5222 11.2593C12.5353 11.1981 12.5483 11.137 12.5613 11.0758C12.567 11.0491 12.5728 11.0223 12.5787 10.9947C12.5949 10.9125 12.6072 10.8303 12.6184 10.7474C12.5708 10.7474 12.5232 10.7474 12.4741 10.7474C12.489 10.7004 12.489 10.7004 12.5222 10.6513C12.59 10.6366 12.59 10.6366 12.6695 10.6333C12.6958 10.6319 12.7221 10.6305 12.7493 10.6291C12.7797 10.6282 12.7797 10.6282 12.8107 10.6273ZM12.6664 11.3478C12.6905 11.3959 12.6905 11.3959 12.6905 11.3959L12.6664 11.3478Z" fill="#8B8B8B"/>
<path d="M9.51752 10.651C9.61272 10.651 9.70792 10.651 9.80601 10.651C9.7917 10.7935 9.77167 10.9321 9.74281 11.0722C9.73911 11.0906 9.73541 11.1089 9.73159 11.1278C9.71993 11.1856 9.70813 11.2433 9.69632 11.301C9.68832 11.3406 9.68032 11.3801 9.67233 11.4196C9.65288 11.5157 9.63331 11.6118 9.61368 11.7079C9.63253 11.696 9.65137 11.6841 9.67078 11.6718C9.73389 11.6358 9.73389 11.6358 9.78197 11.6358C9.73432 11.7437 9.66371 11.8116 9.5656 11.876C9.49498 11.885 9.49498 11.885 9.4454 11.876C9.42953 11.8284 9.41366 11.7809 9.39732 11.7319C9.37798 11.7512 9.35864 11.7705 9.33872 11.7904C9.25307 11.876 9.25307 11.876 9.17193 11.882C9.08478 11.876 9.08478 11.876 9.04468 11.8456C8.98468 11.7675 8.98399 11.6837 8.98862 11.5878C9.03709 11.3771 9.14205 11.1584 9.32519 11.0353C9.39336 11.0068 9.41607 11.0095 9.48747 11.0338C9.51424 11.0465 9.51424 11.0465 9.54156 11.0594C9.54963 11.0203 9.55763 10.9813 9.5656 10.9423C9.57006 10.9205 9.57453 10.8988 9.57913 10.8764C9.59109 10.821 9.59109 10.821 9.58964 10.7711C9.55791 10.7632 9.52618 10.7553 9.49348 10.7471C9.50141 10.7154 9.50935 10.6837 9.51752 10.651ZM9.30866 11.2005C9.20491 11.366 9.17022 11.539 9.18095 11.7319C9.22062 11.7398 9.26028 11.7477 9.30115 11.7559C9.42629 11.6142 9.50544 11.4622 9.54156 11.2755C9.53361 11.1972 9.53361 11.1972 9.51752 11.1314C9.41099 11.1141 9.38401 11.1199 9.30866 11.2005ZM9.4454 11.6118C9.46944 11.6598 9.46944 11.6598 9.46944 11.6598L9.4454 11.6118ZM9.42136 11.6598C9.4454 11.7079 9.4454 11.7079 9.4454 11.7079L9.42136 11.6598Z" fill="#8B8B8B"/>
<path d="M16.8738 11.0596C16.8817 11.0517 16.8896 11.0438 16.8978 11.0356C16.9539 11.0346 17.01 11.0346 17.0661 11.0356C17.0477 11.1372 17.0291 11.2388 17.0105 11.3403C17.0054 11.3686 17.0002 11.397 16.9949 11.4261C16.8775 12.0656 16.8775 12.0656 16.7175 12.1855C16.5947 12.2249 16.4728 12.2267 16.3449 12.2125C16.3211 12.1967 16.2973 12.1808 16.2727 12.1645C16.2807 12.1248 16.2886 12.0852 16.2968 12.0444C16.3563 12.0325 16.3563 12.0325 16.417 12.0204C16.4264 12.0362 16.4358 12.0521 16.4455 12.0684C16.4854 12.1219 16.4854 12.1219 16.5492 12.1284C16.6108 12.1216 16.6108 12.1216 16.6499 12.0789C16.7069 11.973 16.7295 11.876 16.7295 11.7562C16.7146 11.7715 16.6998 11.7869 16.6844 11.8027C16.6171 11.868 16.5977 11.8753 16.5026 11.8823C16.417 11.8762 16.417 11.8762 16.3719 11.8507C16.3134 11.7501 16.3131 11.6737 16.3358 11.5624C16.3976 11.3406 16.4868 11.167 16.6814 11.0356C16.7685 11.0066 16.793 11.0225 16.8738 11.0596ZM16.6365 11.233C16.5334 11.3951 16.5095 11.5441 16.5131 11.7321C16.5528 11.7401 16.5925 11.748 16.6333 11.7562C16.794 11.5823 16.8761 11.3954 16.8738 11.1557C16.8488 11.1263 16.8488 11.1263 16.7956 11.1212C16.7137 11.1342 16.6854 11.1679 16.6365 11.233ZM16.7536 11.6841C16.7776 11.7321 16.7776 11.7321 16.7776 11.7321L16.7536 11.6841Z" fill="#8B8B8B"/>
<path d="M23.0762 11.0597C23.149 11.1689 23.1397 11.2681 23.1242 11.396C23.0719 11.5839 22.9909 11.7317 22.8358 11.8524C22.7576 11.8914 22.6821 11.8791 22.5953 11.8764C22.5834 11.8645 22.5834 11.8645 22.5713 11.8524C22.5634 11.8821 22.5554 11.9118 22.5473 11.9424C22.5428 11.9592 22.5383 11.9759 22.5337 11.9931C22.52 12.0515 22.52 12.0515 22.5232 12.1406C22.5629 12.1485 22.6026 12.1564 22.6434 12.1646C22.6434 12.1805 22.6434 12.1963 22.6434 12.2126C22.4848 12.2126 22.3261 12.2126 22.1626 12.2126C22.1626 12.1968 22.1626 12.1809 22.1626 12.1646C22.1968 12.1564 22.1968 12.1564 22.2317 12.1481C22.3096 12.1249 22.3096 12.1249 22.3333 12.0649C22.3578 11.9873 22.3752 11.9103 22.3912 11.8305C22.3943 11.8149 22.3975 11.7993 22.4007 11.7832C22.4072 11.7505 22.4137 11.7177 22.4202 11.6848C22.4301 11.6347 22.4401 11.5847 22.4503 11.5346C22.4566 11.5027 22.463 11.4707 22.4693 11.4387C22.4751 11.4098 22.4808 11.3809 22.4867 11.3511C22.5018 11.2728 22.5018 11.2728 22.4992 11.1798C22.4803 11.1957 22.4615 11.2115 22.4421 11.2279C22.379 11.2759 22.379 11.2759 22.3309 11.2759C22.3693 11.1761 22.4386 11.0997 22.5232 11.0357C22.5893 11.0237 22.5893 11.0237 22.6434 11.0357C22.6948 11.0871 22.7018 11.111 22.7156 11.1798C22.7329 11.161 22.7503 11.1422 22.7681 11.1228C22.874 11.0241 22.9439 10.9847 23.0762 11.0597ZM22.7636 11.2039C22.7193 11.2704 22.7193 11.2704 22.6855 11.3465C22.6735 11.3715 22.6615 11.3964 22.6491 11.4222C22.596 11.5471 22.5909 11.6455 22.5953 11.7803C22.6204 11.8101 22.6204 11.8101 22.675 11.8133C22.7426 11.8101 22.7426 11.8101 22.7892 11.7593C22.8872 11.6014 22.967 11.4175 22.956 11.2279C22.9338 11.1748 22.9338 11.1748 22.9079 11.1318C22.8512 11.1318 22.8076 11.1728 22.7636 11.2039Z" fill="#8B8B8B"/>
<path d="M23.5572 11.012C23.581 11.0199 23.6048 11.0278 23.6293 11.036C23.6711 11.1825 23.6302 11.3098 23.5947 11.4533C23.5889 11.4779 23.5831 11.5024 23.577 11.5277C23.5626 11.5881 23.548 11.6483 23.5331 11.7085C23.6093 11.6936 23.6093 11.6936 23.6669 11.6433C23.791 11.4516 23.8683 11.2585 23.9178 11.036C23.9733 11.036 24.0289 11.036 24.0861 11.036C24.0666 11.1341 24.047 11.2322 24.0275 11.3302C24.0219 11.3581 24.0164 11.3859 24.0107 11.4146C24.0027 11.4548 24.0027 11.4548 23.9945 11.4957C23.9871 11.5327 23.9871 11.5327 23.9796 11.5705C23.9683 11.6249 23.9559 11.6787 23.9418 11.7326C23.9646 11.7167 23.9874 11.7009 24.0109 11.6845C24.0861 11.6365 24.0861 11.6365 24.1342 11.6365C24.0864 11.7445 24.0158 11.812 23.9178 11.8767C23.8487 11.8872 23.8487 11.8872 23.7976 11.8767C23.7735 11.8527 23.7735 11.8527 23.772 11.7671C23.7725 11.7398 23.773 11.7126 23.7735 11.6845C23.7602 11.7029 23.7468 11.7212 23.733 11.7401C23.6564 11.8289 23.5986 11.8701 23.482 11.8887C23.4129 11.8767 23.4129 11.8767 23.3708 11.8268C23.3307 11.733 23.3461 11.6809 23.3694 11.5824C23.3729 11.5666 23.3765 11.5508 23.3802 11.5345C23.3908 11.4883 23.4018 11.4423 23.4129 11.3963C23.4225 11.3528 23.4321 11.3092 23.4415 11.2657C23.4479 11.2375 23.4544 11.2092 23.461 11.1801C23.4422 11.196 23.4233 11.2118 23.4039 11.2282C23.3408 11.2762 23.3408 11.2762 23.2927 11.2762C23.3256 11.2005 23.3614 11.1559 23.4249 11.1036C23.4396 11.0913 23.4542 11.0791 23.4693 11.0665C23.5091 11.036 23.5091 11.036 23.5572 11.012ZM23.7976 11.5884C23.8216 11.6365 23.8216 11.6365 23.8216 11.6365L23.7976 11.5884Z" fill="#8B8B8B"/>
<path d="M5.38187 11.0592C5.3898 11.0513 5.39773 11.0434 5.40591 11.0352C5.45398 11.0342 5.50208 11.0342 5.55015 11.0352C5.53617 11.1973 5.50575 11.3515 5.46892 11.51C5.45574 11.5785 5.45098 11.6383 5.45399 11.7077C5.46886 11.6959 5.48374 11.684 5.49907 11.6717C5.55015 11.6357 5.55015 11.6357 5.59823 11.6357C5.55079 11.7429 5.48142 11.8142 5.38187 11.8759C5.31125 11.8729 5.31125 11.8729 5.26166 11.8519C5.24976 11.7924 5.24976 11.7924 5.23762 11.7318C5.21828 11.7511 5.19894 11.7704 5.17902 11.7903C5.09338 11.8759 5.09338 11.8759 5.01224 11.8819C4.92509 11.8759 4.92509 11.8759 4.88001 11.8428C4.81771 11.7529 4.81668 11.6698 4.82892 11.5636C4.87594 11.3811 4.95478 11.1688 5.11094 11.0522C5.21323 11.0005 5.28084 11.0125 5.38187 11.0592ZM5.15197 11.1883C5.027 11.3563 4.98389 11.5254 4.99721 11.7318C5.05106 11.7546 5.05106 11.7546 5.11742 11.7558C5.25576 11.658 5.31079 11.5013 5.3459 11.3398C5.35741 11.2609 5.35923 11.2076 5.33378 11.1313C5.24385 11.1159 5.2201 11.1253 5.15197 11.1883Z" fill="#8B8B8B"/>
<path d="M1.2471 10.6751C1.40577 10.6751 1.56444 10.6751 1.72792 10.6751C1.72792 10.7068 1.72792 10.7385 1.72792 10.7712C1.69395 10.7766 1.69395 10.7766 1.6593 10.7821C1.58315 10.81 1.58315 10.81 1.56331 10.8599C1.54822 10.9159 1.5373 10.9716 1.52751 11.0288C1.52345 11.0495 1.51938 11.0703 1.5152 11.0916C1.50235 11.1578 1.49042 11.2242 1.47849 11.2906C1.46994 11.3355 1.46134 11.3804 1.45267 11.4253C1.43155 11.5354 1.41124 11.6456 1.39134 11.756C1.44595 11.7526 1.50054 11.749 1.55512 11.7454C1.58553 11.7435 1.61593 11.7415 1.64725 11.7395C1.72772 11.735 1.72772 11.735 1.80004 11.7079C1.80797 11.6683 1.81591 11.6287 1.82408 11.5878C1.84788 11.5878 1.87168 11.5878 1.8962 11.5878C1.88034 11.675 1.86447 11.7622 1.84812 11.852C1.57838 11.86 1.30864 11.8679 1.03073 11.8761C1.03073 11.8523 1.03073 11.8285 1.03073 11.804C1.09023 11.7921 1.09023 11.7921 1.15094 11.78C1.20792 11.558 1.2619 11.3353 1.31321 11.112C1.31856 11.0889 1.32392 11.0658 1.32943 11.042C1.33437 11.0204 1.3393 10.9987 1.34439 10.9764C1.34881 10.9571 1.35324 10.9377 1.3578 10.9178C1.36952 10.864 1.36952 10.864 1.3673 10.7952C1.3078 10.7714 1.3078 10.7714 1.2471 10.7472C1.2471 10.7234 1.2471 10.6996 1.2471 10.6751Z" fill="#8B8B8B"/>
<path d="M28.7069 10.7921C28.73 10.7923 28.753 10.7924 28.7767 10.7925C28.814 10.7926 28.814 10.7926 28.8521 10.7928C28.8783 10.793 28.9044 10.7932 28.9314 10.7934C28.9708 10.7935 28.9708 10.7935 29.011 10.7937C29.0761 10.794 29.1413 10.7944 29.2064 10.7949C29.1984 10.8266 29.1905 10.8583 29.1823 10.8909C29.0475 10.8909 28.9126 10.8909 28.7736 10.8909C28.7662 10.9375 28.7588 10.9841 28.7511 11.0321C28.7286 11.1732 28.7286 11.1732 28.7015 11.2272C28.7174 11.2193 28.7333 11.2114 28.7496 11.2032C28.8408 11.1904 28.929 11.1828 29.0114 11.2283C29.0817 11.2863 29.1299 11.3317 29.14 11.4235C29.144 11.5639 29.1348 11.6459 29.0381 11.7556C28.9197 11.8624 28.8395 11.8791 28.682 11.8787C28.6531 11.8788 28.6242 11.8788 28.5944 11.8789C28.5156 11.876 28.4422 11.8666 28.3649 11.8517C28.3729 11.82 28.3808 11.7883 28.389 11.7556C28.4136 11.7565 28.4383 11.7573 28.4636 11.7582C28.4964 11.7588 28.5291 11.7595 28.5618 11.7601C28.578 11.7607 28.5942 11.7613 28.6108 11.762C28.7184 11.7635 28.7851 11.7507 28.8698 11.6836C28.9303 11.5823 28.9303 11.5823 28.9355 11.4671C28.9217 11.4157 28.9217 11.4157 28.8938 11.3473C28.7738 11.3195 28.7738 11.3195 28.6609 11.3578C28.6334 11.3764 28.6334 11.3764 28.6054 11.3953C28.5736 11.3953 28.5419 11.3953 28.5092 11.3953C28.5238 11.2603 28.5475 11.132 28.5813 11.0005C28.5856 10.9833 28.5899 10.966 28.5943 10.9482C28.6329 10.7959 28.6329 10.7959 28.7069 10.7921Z" fill="#8B8B8B"/>
<path d="M14.0216 11.1064C14.1062 11.2137 14.095 11.338 14.0847 11.4681C14.0535 11.6258 13.9618 11.7454 13.8443 11.8524C13.7464 11.885 13.658 11.8923 13.5558 11.8765C13.4698 11.8304 13.4188 11.7782 13.3875 11.6843C13.3586 11.4714 13.4124 11.3089 13.5317 11.1319C13.6721 10.9871 13.8651 10.9788 14.0216 11.1064ZM13.6887 11.1714C13.5972 11.315 13.5765 11.4206 13.5768 11.5912C13.5768 11.621 13.5767 11.6508 13.5766 11.6815C13.5746 11.7541 13.5746 11.7541 13.6039 11.8044C13.6599 11.8145 13.6599 11.8145 13.7241 11.8044C13.8448 11.6944 13.8875 11.5442 13.8976 11.3856C13.8983 11.3086 13.8983 11.2327 13.8924 11.1559C13.8659 11.1251 13.8659 11.1251 13.8022 11.1184C13.7242 11.1235 13.7242 11.1235 13.6887 11.1714Z" fill="#8B8B8B"/>
<path d="M16.0563 11.06C16.1637 11.173 16.1852 11.2495 16.183 11.4012C16.1676 11.559 16.1134 11.689 15.9932 11.7941C15.8793 11.8818 15.7896 11.8904 15.6476 11.8767C15.5776 11.8469 15.5412 11.8267 15.5009 11.7624C15.4494 11.634 15.4596 11.4833 15.5003 11.3531C15.5714 11.199 15.6672 11.0762 15.8279 11.012C15.9133 11.012 15.9769 11.0283 16.0563 11.06ZM15.7633 11.1786C15.6598 11.3533 15.6219 11.5297 15.6476 11.7326C15.6634 11.7563 15.6793 11.7801 15.6957 11.8046C15.7769 11.81 15.7769 11.81 15.8639 11.7806C15.9585 11.6425 15.9876 11.4853 15.9872 11.3212C15.9872 11.2959 15.9873 11.2706 15.9873 11.2445C15.9885 11.1808 15.9885 11.1808 15.9601 11.1321C15.8716 11.122 15.8315 11.1183 15.7633 11.1786Z" fill="#8B8B8B"/>
<path d="M27.7642 10.7952C27.9863 10.7952 28.2084 10.7952 28.4373 10.7952C28.4373 10.9303 28.4373 10.9303 28.3844 11.0108C28.3728 11.0287 28.3613 11.0466 28.3494 11.065C28.3367 11.084 28.3241 11.1029 28.3111 11.1225C28.2848 11.163 28.2584 11.2035 28.2321 11.2441C28.2185 11.2649 28.2048 11.2858 28.1907 11.3073C28.1219 11.4131 28.0551 11.52 27.9881 11.6269C27.964 11.6652 27.9398 11.7036 27.9156 11.7419C27.9055 11.758 27.8954 11.7741 27.885 11.7907C27.8603 11.828 27.8603 11.828 27.8363 11.8521C27.7725 11.863 27.7084 11.8689 27.644 11.8761C27.6851 11.754 27.755 11.6518 27.8243 11.5443C27.8502 11.5037 27.8761 11.4631 27.902 11.4225C27.9151 11.4021 27.9282 11.3817 27.9416 11.3607C28.0013 11.2671 28.06 11.1731 28.1188 11.0789C28.1291 11.0624 28.1394 11.0459 28.1501 11.0288C28.1737 10.991 28.1973 10.9532 28.2209 10.9153C28.1659 10.9147 28.1108 10.9142 28.0557 10.9138C28.0096 10.9134 28.0096 10.9134 27.9627 10.913C27.8871 10.9098 27.8871 10.9098 27.8363 10.9393C27.8189 10.9788 27.8028 11.0189 27.7882 11.0594C27.7644 11.0594 27.7406 11.0594 27.7161 11.0594C27.732 10.9722 27.7478 10.8851 27.7642 10.7952Z" fill="#8B8B8B"/>
<path d="M19.8069 11.0357C19.882 11.0733 19.882 11.0733 19.9271 11.1318C19.9406 11.2174 19.9406 11.2174 19.9271 11.2999C19.8532 11.379 19.7729 11.3947 19.6675 11.3984C19.6441 11.3981 19.6206 11.3978 19.5965 11.3975C19.5728 11.3973 19.5492 11.3971 19.5248 11.3969C19.5068 11.3966 19.4888 11.3963 19.4703 11.396C19.4568 11.5652 19.4568 11.5652 19.5018 11.7248C19.6072 11.7762 19.7158 11.7634 19.8309 11.7563C19.7888 11.8494 19.7888 11.8494 19.7347 11.8764C19.6843 11.8806 19.6336 11.8828 19.583 11.8839C19.5558 11.8848 19.5286 11.8857 19.5006 11.8866C19.4056 11.8742 19.3688 11.8478 19.302 11.7803C19.2281 11.6668 19.2395 11.5405 19.2651 11.4119C19.3076 11.2647 19.3829 11.1379 19.5156 11.0557C19.6105 11.0184 19.7068 11.023 19.8069 11.0357ZM19.5319 11.1873C19.4883 11.2498 19.4883 11.2498 19.4943 11.324C19.6353 11.333 19.6353 11.333 19.7588 11.2759C19.7805 11.229 19.7805 11.229 19.7828 11.1798C19.7749 11.164 19.767 11.1481 19.7588 11.1318C19.6324 11.1179 19.6324 11.1179 19.5319 11.1873Z" fill="#8B8B8B"/>
<path d="M8.17134 11.0357C8.24646 11.0733 8.24646 11.0733 8.29154 11.1318C8.30506 11.2174 8.30506 11.2174 8.29154 11.2999C8.2177 11.379 8.13733 11.3947 8.03197 11.3984C8.00855 11.3981 7.98512 11.3978 7.96098 11.3975C7.9373 11.3973 7.91363 11.3971 7.88923 11.3969C7.87126 11.3966 7.85328 11.3963 7.83476 11.396C7.82125 11.5652 7.82125 11.5652 7.86632 11.7248C7.97167 11.7762 8.08031 11.7634 8.19538 11.7563C8.15331 11.8494 8.15331 11.8494 8.09921 11.8764C8.04874 11.8806 7.99809 11.8828 7.94746 11.8839C7.92028 11.8848 7.8931 11.8857 7.8651 11.8866C7.7701 11.8742 7.73328 11.8478 7.66648 11.7803C7.5926 11.6668 7.60398 11.5405 7.62957 11.4119C7.67211 11.2647 7.7474 11.1379 7.88003 11.0557C7.97497 11.0184 8.07127 11.023 8.17134 11.0357ZM7.89637 11.1873C7.85276 11.2498 7.85276 11.2498 7.85881 11.324C7.99977 11.333 7.99977 11.333 8.12326 11.2759C8.14501 11.229 8.14501 11.229 8.1473 11.1798C8.13936 11.164 8.13143 11.1481 8.12326 11.1318C7.99685 11.1179 7.99685 11.1179 7.89637 11.1873Z" fill="#8B8B8B"/>
<path d="M17.7635 11.0358C17.8266 11.0733 17.8266 11.0733 17.8597 11.1319C17.8717 11.2174 17.8717 11.2174 17.8597 11.3C17.7904 11.3716 17.7208 11.3951 17.6212 11.3984C17.5823 11.398 17.5823 11.398 17.5426 11.3976C17.5035 11.3972 17.5035 11.3972 17.4635 11.3969C17.4435 11.3966 17.4235 11.3964 17.4029 11.3961C17.405 11.4426 17.4076 11.4892 17.4104 11.5357C17.4125 11.5745 17.4125 11.5745 17.4146 11.6142C17.4221 11.683 17.4221 11.683 17.4555 11.7293C17.5172 11.7676 17.5639 11.7634 17.6358 11.7608C17.6716 11.7599 17.6716 11.7599 17.7082 11.7589C17.7265 11.758 17.7447 11.7572 17.7635 11.7563C17.756 11.8029 17.756 11.8029 17.7395 11.8524C17.6139 11.8942 17.4507 11.9113 17.3287 11.8521C17.2662 11.8014 17.2361 11.7608 17.2106 11.6843C17.1924 11.4905 17.222 11.3242 17.3263 11.1589C17.4543 11.0346 17.5907 11.0098 17.7635 11.0358ZM17.4916 11.1739C17.4521 11.2264 17.4361 11.2598 17.4269 11.324C17.5679 11.333 17.5679 11.333 17.6914 11.276C17.7132 11.2291 17.7132 11.2291 17.7154 11.1799C17.7075 11.164 17.6996 11.1482 17.6914 11.1319C17.6049 11.124 17.5621 11.1205 17.4916 11.1739Z" fill="#8B8B8B"/>
<path d="M2.59296 11.035C2.66808 11.0726 2.66808 11.0726 2.71316 11.1311C2.72668 11.2167 2.72668 11.2167 2.71316 11.2992C2.64383 11.3709 2.57427 11.3943 2.47472 11.3977C2.43581 11.3972 2.43581 11.3972 2.39612 11.3968C2.35693 11.3965 2.35693 11.3965 2.31695 11.3962C2.29697 11.3959 2.27698 11.3956 2.25638 11.3953C2.25848 11.4419 2.26108 11.4884 2.2639 11.5349C2.26599 11.5738 2.26599 11.5738 2.26812 11.6135C2.27561 11.6823 2.27561 11.6823 2.30897 11.7286C2.37065 11.7668 2.41738 11.7626 2.48928 11.7601C2.52512 11.7591 2.52512 11.7591 2.56168 11.7581C2.57994 11.7573 2.59819 11.7565 2.617 11.7556C2.60948 11.8021 2.60948 11.8021 2.59296 11.8517C2.46738 11.8935 2.30422 11.9105 2.18219 11.8514C2.11964 11.8006 2.08958 11.7601 2.06406 11.6835C2.04564 11.4875 2.07061 11.3028 2.19478 11.1446C2.31453 11.025 2.42855 11.0141 2.59296 11.035ZM2.31799 11.1867C2.27438 11.2491 2.27438 11.2491 2.28042 11.3233C2.42139 11.3323 2.42139 11.3323 2.54487 11.2752C2.56663 11.2283 2.56663 11.2283 2.56891 11.1791C2.56098 11.1633 2.55305 11.1474 2.54487 11.1311C2.41847 11.1173 2.41847 11.1173 2.31799 11.1867Z" fill="#8B8B8B"/>
<path d="M22.1147 11.0348C22.1914 11.0844 22.1914 11.0844 22.2349 11.1549C22.2409 11.242 22.2409 11.242 22.2109 11.323C22.076 11.4139 21.9363 11.4028 21.7781 11.3951C21.7694 11.5693 21.7694 11.5693 21.8262 11.7314C21.8898 11.7631 21.9387 11.7577 22.0095 11.7569C22.0337 11.7567 22.0578 11.7565 22.0826 11.7562C22.1104 11.7558 22.1104 11.7558 22.1388 11.7554C22.1313 11.8019 22.1313 11.8019 22.1147 11.8515C21.99 11.893 21.86 11.8904 21.7301 11.8755C21.6565 11.8356 21.6231 11.7818 21.5858 11.7073C21.5644 11.4973 21.5822 11.3297 21.706 11.1549C21.8335 11.0335 21.9419 11.0113 22.1147 11.0348ZM21.8428 11.1864C21.7995 11.2497 21.7995 11.2497 21.7781 11.323C21.9111 11.3336 21.9111 11.3336 22.0306 11.287C22.0425 11.2751 22.0544 11.2632 22.0666 11.251C22.0587 11.2114 22.0508 11.1717 22.0426 11.1309C21.9469 11.12 21.9127 11.1165 21.8428 11.1864Z" fill="#8B8B8B"/>
<path d="M10.4786 11.0355C10.5552 11.0851 10.5552 11.0851 10.5988 11.1556C10.6048 11.2427 10.6048 11.2427 10.5747 11.3237C10.4398 11.4146 10.3002 11.4035 10.142 11.3958C10.1332 11.57 10.1332 11.57 10.1901 11.7321C10.2486 11.7613 10.2963 11.7638 10.3614 11.7696C10.3833 11.7716 10.4051 11.7736 10.4277 11.7757C10.4445 11.7771 10.4613 11.7786 10.4786 11.7801C10.4786 11.8039 10.4786 11.8277 10.4786 11.8522C10.3538 11.8937 10.2239 11.8911 10.0939 11.8762C10.0204 11.8363 9.98696 11.7825 9.94969 11.708C9.93294 11.5168 9.9347 11.3421 10.0458 11.1796C10.1749 11.0428 10.2946 11.0105 10.4786 11.0355ZM10.2066 11.1871C10.1633 11.2504 10.1633 11.2504 10.142 11.3237C10.1874 11.3245 10.1874 11.3245 10.2337 11.3252C10.2507 11.3255 10.2677 11.3258 10.2852 11.3261C10.3392 11.3257 10.3392 11.3257 10.4065 11.2997C10.4156 11.2519 10.4236 11.2038 10.4305 11.1556C10.404 11.1243 10.404 11.1243 10.3388 11.1226C10.2583 11.124 10.2583 11.124 10.2066 11.1871Z" fill="#8B8B8B"/>
<path d="M25.4564 11.059C25.4484 11.1303 25.4405 11.2017 25.4323 11.2752C25.4085 11.2752 25.3847 11.2752 25.3602 11.2752C25.3443 11.2355 25.3285 11.1959 25.3121 11.1551C25.256 11.154 25.1999 11.1541 25.1438 11.1551C25.1138 11.1803 25.1138 11.1803 25.1117 11.236C25.1131 11.3022 25.1131 11.3022 25.1654 11.339C25.1851 11.3502 25.2047 11.3613 25.225 11.3727C25.3068 11.4196 25.3512 11.4495 25.3842 11.5394C25.3965 11.6334 25.3878 11.6766 25.3437 11.7615C25.2831 11.8335 25.256 11.849 25.1679 11.8756C25.0895 11.8812 25.0895 11.8812 25.0071 11.8801C24.966 11.8799 24.966 11.8799 24.9242 11.8797C24.8553 11.8756 24.8553 11.8756 24.8073 11.8516C24.8192 11.7446 24.8192 11.7446 24.8313 11.6354C24.8551 11.6354 24.8789 11.6354 24.9034 11.6354C24.9272 11.683 24.951 11.7306 24.9755 11.7796C25.0907 11.7852 25.0907 11.7852 25.1919 11.7315C25.2078 11.6618 25.2078 11.6618 25.1919 11.5874C25.1409 11.5303 25.1409 11.5303 25.0732 11.4853C24.9529 11.3981 24.9529 11.3981 24.9275 11.3472C24.914 11.2487 24.923 11.2102 24.977 11.125C25.1168 10.9768 25.2778 11.0123 25.4564 11.059Z" fill="#8B8B8B"/>
<path d="M11.7051 10.6273C11.7298 10.7015 11.7291 10.7235 11.7146 10.7971C11.7108 10.8167 11.707 10.8362 11.7031 10.8564C11.6989 10.8774 11.6946 10.8984 11.6902 10.9201C11.686 10.9417 11.6817 10.9634 11.6774 10.9857C11.6683 11.0314 11.6592 11.0771 11.6501 11.1229C11.636 11.193 11.6222 11.2631 11.6084 11.3333C11.5997 11.3777 11.5909 11.4221 11.582 11.4665C11.5779 11.4876 11.5737 11.5086 11.5694 11.5303C11.5655 11.5498 11.5616 11.5693 11.5575 11.5894C11.5541 11.6065 11.5507 11.6237 11.5471 11.6414C11.5368 11.6841 11.5368 11.6841 11.5127 11.7321C11.5311 11.7163 11.5494 11.7004 11.5683 11.6841C11.6329 11.636 11.6329 11.636 11.7051 11.636C11.6576 11.7432 11.5883 11.8146 11.4887 11.8762C11.4181 11.8732 11.4181 11.8732 11.3685 11.8522C11.3413 11.7354 11.3514 11.6415 11.3781 11.5266C11.3836 11.5011 11.3836 11.5011 11.3893 11.4751C11.4012 11.4211 11.4134 11.3672 11.4256 11.3133C11.4376 11.2595 11.4495 11.2056 11.4613 11.1518C11.4687 11.1184 11.4762 11.085 11.4837 11.0517C11.5064 10.9505 11.5233 10.8501 11.5368 10.7474C11.4892 10.7474 11.4416 10.7474 11.3925 10.7474C11.4081 10.7004 11.4081 10.7004 11.4406 10.6513C11.5032 10.6366 11.5032 10.6366 11.5758 10.6333C11.6 10.6319 11.6241 10.6305 11.6489 10.6291C11.6767 10.6282 11.6767 10.6282 11.7051 10.6273Z" fill="#8B8B8B"/>
<path d="M15.0462 10.651C15.1414 10.651 15.2367 10.651 15.3347 10.651C15.2633 11.0077 15.1919 11.3644 15.1184 11.7319C15.158 11.7002 15.1977 11.6685 15.2386 11.6358C15.2544 11.6358 15.2703 11.6358 15.2867 11.6358C15.2693 11.7409 15.2188 11.7818 15.1389 11.8473C15.0816 11.8842 15.0408 11.8881 14.9741 11.876C14.909 11.7458 14.9623 11.5794 14.9922 11.4437C14.9964 11.4237 15.0007 11.4037 15.0051 11.3831C15.0186 11.3197 15.0324 11.2563 15.0462 11.193C15.0555 11.1498 15.0648 11.1065 15.074 11.0633C15.0967 10.9579 15.1195 10.8525 15.1424 10.7471C15.0948 10.7471 15.0472 10.7471 14.9982 10.7471C15.014 10.7154 15.0299 10.6837 15.0462 10.651Z" fill="#8B8B8B"/>
<path d="M6.65634 10.7952C6.68014 10.7952 6.70394 10.7952 6.72847 10.7952C6.7126 10.8666 6.69673 10.9379 6.68038 11.0114C6.74385 11.0193 6.80732 11.0272 6.87271 11.0354C6.88064 11.0671 6.88858 11.0988 6.89675 11.1315C6.81742 11.1315 6.73808 11.1315 6.65634 11.1315C6.65371 11.1507 6.65107 11.1699 6.64836 11.1897C6.62174 11.3739 6.58475 11.5523 6.53614 11.732C6.55845 11.7161 6.58076 11.7003 6.60375 11.6839C6.68038 11.6359 6.68038 11.6359 6.75251 11.6359C6.71887 11.7152 6.68129 11.7582 6.61277 11.81C6.58874 11.8288 6.58874 11.8288 6.56422 11.8479C6.5019 11.8816 6.46175 11.8832 6.39189 11.8761C6.36785 11.8521 6.36785 11.8521 6.36259 11.7844C6.36448 11.6524 6.39851 11.5253 6.42795 11.3972C6.43369 11.3716 6.43942 11.346 6.44533 11.3197C6.45941 11.2569 6.47366 11.1942 6.48806 11.1315C6.44046 11.1394 6.39285 11.1473 6.34381 11.1555C6.35174 11.1159 6.35968 11.0762 6.36785 11.0354C6.39044 11.0327 6.39044 11.0327 6.41349 11.03C6.4737 11.0203 6.52738 11.0096 6.58422 10.9874C6.62352 10.9177 6.62352 10.9177 6.6323 10.8433C6.64024 10.8274 6.64817 10.8116 6.65634 10.7952Z" fill="#8B8B8B"/>
<path d="M14.494 11.012C14.5872 11.075 14.5872 11.075 14.6142 11.1561C14.635 11.1271 14.635 11.1271 14.6563 11.0976C14.7104 11.036 14.7104 11.036 14.7599 11.012C14.8065 11.012 14.8065 11.012 14.8501 11.039C14.8787 11.084 14.8787 11.084 14.8711 11.1486C14.8657 11.1669 14.8602 11.1853 14.8546 11.2041C14.8363 11.2076 14.8179 11.2111 14.799 11.2147C14.7324 11.2273 14.7324 11.2273 14.6623 11.2522C14.5602 11.4376 14.5044 11.6503 14.4459 11.8527C14.3904 11.8527 14.3348 11.8527 14.2776 11.8527C14.2931 11.7626 14.3086 11.6725 14.3242 11.5824C14.3286 11.5569 14.333 11.5314 14.3375 11.505C14.3418 11.4804 14.346 11.4558 14.3504 11.4304C14.3543 11.4078 14.3582 11.3852 14.3622 11.3618C14.3722 11.3086 14.384 11.2565 14.3978 11.2041C14.3839 11.2116 14.3701 11.219 14.3558 11.2267C14.3053 11.2505 14.2596 11.2636 14.2055 11.2762C14.2889 11.1449 14.3542 11.0804 14.494 11.012ZM14.5661 11.1801C14.5902 11.2282 14.5902 11.2282 14.5902 11.2282L14.5661 11.1801Z" fill="#8B8B8B"/>
<path d="M18.2438 11.012C18.2676 11.0199 18.2914 11.0278 18.3159 11.036C18.3445 11.0976 18.3445 11.0976 18.364 11.1561C18.3823 11.1368 18.4007 11.1175 18.4196 11.0976C18.4842 11.036 18.4842 11.036 18.5563 11.012C18.6089 11.0465 18.6089 11.0465 18.6525 11.084C18.6446 11.1237 18.6366 11.1633 18.6284 11.2041C18.6101 11.2076 18.5918 11.2111 18.5728 11.2147C18.5063 11.2273 18.5063 11.2273 18.4361 11.2522C18.3396 11.4165 18.2769 11.5948 18.2328 11.7795C18.2197 11.8286 18.2197 11.8286 18.1957 11.8527C18.1476 11.8536 18.0995 11.8537 18.0515 11.8527C18.0654 11.6906 18.0959 11.5363 18.1327 11.3779C18.1459 11.3093 18.1506 11.2496 18.1476 11.1801C18.1288 11.196 18.1099 11.2118 18.0905 11.2282C18.0274 11.2762 18.0274 11.2762 17.9793 11.2762C18.0122 11.2005 18.048 11.1559 18.1116 11.1036C18.1262 11.0913 18.1408 11.0791 18.1559 11.0665C18.1957 11.036 18.1957 11.036 18.2438 11.012ZM18.3159 11.2041C18.34 11.2522 18.34 11.2522 18.34 11.2522L18.3159 11.2041Z" fill="#8B8B8B"/>
<path d="M7.52462 11.0294C7.5697 11.0594 7.5697 11.0594 7.59374 11.1315C7.56669 11.184 7.56669 11.184 7.52162 11.2276C7.49335 11.2253 7.49335 11.2253 7.46452 11.2231C7.39474 11.2211 7.39474 11.2211 7.34131 11.2876C7.24583 11.4337 7.20859 11.614 7.161 11.78C7.15307 11.8038 7.14514 11.8276 7.13696 11.8521C7.08143 11.8521 7.02589 11.8521 6.96868 11.8521C6.97414 11.8253 6.97414 11.8253 6.97971 11.7981C6.99614 11.7175 7.01246 11.6369 7.02878 11.5563C7.03451 11.5283 7.04024 11.5003 7.04615 11.4714C7.05157 11.4445 7.057 11.4176 7.06258 11.39C7.06762 11.3652 7.07266 11.3404 7.07785 11.3149C7.09094 11.2505 7.09094 11.2505 7.08888 11.1795C7.07004 11.1954 7.0512 11.2112 7.03178 11.2276C6.96868 11.2756 6.96868 11.2756 6.92059 11.2756C6.9589 11.1761 7.02818 11.0988 7.11292 11.0354C7.18204 11.0264 7.18204 11.0264 7.23313 11.0354C7.24899 11.083 7.26486 11.1305 7.28121 11.1795C7.29955 11.1562 7.3179 11.133 7.3368 11.109C7.39092 11.0403 7.4328 10.997 7.52462 11.0294Z" fill="#8B8B8B"/>
<path d="M26.5382 10.7956C26.522 10.8913 26.5058 10.987 26.4895 11.0827C26.4839 11.1152 26.4784 11.1476 26.473 11.1801C26.4215 11.4849 26.4215 11.4849 26.39 11.6048C26.366 11.6862 26.366 11.6862 26.3699 11.7804C26.4016 11.7883 26.4334 11.7963 26.466 11.8044C26.466 11.8282 26.466 11.852 26.466 11.8765C26.3074 11.8765 26.1487 11.8765 25.9852 11.8765C25.9932 11.8527 26.0011 11.8289 26.0093 11.8044C26.0321 11.7995 26.0549 11.7945 26.0784 11.7894C26.1533 11.7651 26.1533 11.7651 26.1765 11.718C26.1971 11.6592 26.2118 11.601 26.2256 11.5402C26.2323 11.5119 26.239 11.4835 26.2459 11.4543C26.2839 11.2808 26.3091 11.1174 26.2978 10.9398C26.2264 10.9279 26.2264 10.9279 26.1535 10.9157C26.1535 10.8999 26.1535 10.884 26.1535 10.8677C26.1905 10.8554 26.2276 10.8435 26.2647 10.8317C26.2853 10.825 26.306 10.8183 26.3272 10.8114C26.3997 10.7943 26.464 10.7946 26.5382 10.7956Z" fill="#8B8B8B"/>
<path d="M18.9413 11.012C18.9909 11.0345 18.9909 11.0345 19.0375 11.084C19.041 11.2329 18.9974 11.3858 18.9638 11.5299C18.9594 11.5495 18.9549 11.5692 18.9503 11.5894C18.9394 11.6372 18.9283 11.6849 18.9173 11.7326C18.9356 11.7167 18.954 11.7009 18.9729 11.6845C19.0375 11.6365 19.0375 11.6365 19.1096 11.6365C19.0619 11.7445 18.9912 11.812 18.8932 11.8767C18.8241 11.8872 18.8241 11.8872 18.773 11.8767C18.749 11.8527 18.749 11.8527 18.7445 11.7835C18.7462 11.6606 18.7727 11.5419 18.7971 11.4218C18.8016 11.3985 18.8062 11.3752 18.811 11.3512C18.8222 11.2942 18.8336 11.2371 18.8451 11.1801C18.8263 11.196 18.8075 11.2118 18.788 11.2282C18.7249 11.2762 18.7249 11.2762 18.6768 11.2762C18.7097 11.2005 18.7455 11.1559 18.8091 11.1036C18.8237 11.0913 18.8383 11.0791 18.8534 11.0665C18.8932 11.036 18.8932 11.036 18.9413 11.012Z" fill="#8B8B8B"/>
<path d="M6.00708 11.012C6.05967 11.0465 6.05967 11.0465 6.10324 11.084C6.08713 11.2305 6.06092 11.3725 6.02962 11.5164C6.02514 11.5373 6.02066 11.5582 6.01605 11.5797C6.00512 11.6307 5.99409 11.6816 5.98304 11.7326C6.00188 11.7167 6.02072 11.7009 6.04014 11.6845C6.10324 11.6365 6.10324 11.6365 6.15133 11.6365C6.13394 11.7416 6.08354 11.7826 6.00351 11.8479C5.94558 11.8854 5.90617 11.8905 5.83879 11.8767C5.81475 11.8527 5.81475 11.8527 5.81025 11.7708C5.8118 11.6468 5.83681 11.5292 5.86283 11.4083C5.86742 11.3863 5.87201 11.3642 5.87673 11.3415C5.88796 11.2877 5.89936 11.2339 5.91092 11.1801C5.89207 11.196 5.87323 11.2118 5.85382 11.2282C5.79071 11.2762 5.79071 11.2762 5.74263 11.2762C5.78106 11.1764 5.85353 11.1033 5.93496 11.036C5.95876 11.0281 5.98256 11.0202 6.00708 11.012Z" fill="#8B8B8B"/>
<path d="M24.5187 11.012C24.5505 11.0278 24.5822 11.0437 24.6149 11.06C24.6271 11.2774 24.5905 11.474 24.5428 11.6845C24.5586 11.6845 24.5745 11.6845 24.5909 11.6845C24.6067 11.6687 24.6226 11.6528 24.6389 11.6365C24.6627 11.6365 24.6865 11.6365 24.7111 11.6365C24.6843 11.7168 24.659 11.7415 24.5969 11.7971C24.5806 11.8121 24.5644 11.827 24.5477 11.8424C24.4844 11.8834 24.4485 11.8854 24.3745 11.8767C24.3504 11.8527 24.3504 11.8527 24.3459 11.7835C24.3477 11.6606 24.3742 11.5419 24.3985 11.4218C24.4031 11.3985 24.4077 11.3752 24.4124 11.3512C24.4237 11.2942 24.4351 11.2371 24.4466 11.1801C24.4278 11.196 24.4089 11.2118 24.3895 11.2282C24.3264 11.2762 24.3264 11.2762 24.2783 11.2762C24.3131 11.1935 24.3571 11.1474 24.4256 11.0901C24.443 11.0753 24.4604 11.0606 24.4783 11.0454C24.4983 11.0289 24.4983 11.0289 24.5187 11.012Z" fill="#8B8B8B"/>
<path d="M6.09312 10.6421C6.18812 10.6956 6.21482 10.7907 6.24788 10.8913C6.24788 10.9071 6.24788 10.923 6.24788 10.9393C6.13369 10.9213 6.13369 10.9213 6.0796 10.8672C6.00716 10.8766 5.97389 10.8976 5.91131 10.9393C5.8467 10.9423 5.8467 10.9423 5.79111 10.9393C5.79111 10.8913 5.79111 10.8913 5.8437 10.8357C5.86601 10.8144 5.88832 10.7931 5.91131 10.7712C5.93115 10.7484 5.95098 10.7256 5.97141 10.7021C6.03152 10.6511 6.03152 10.6511 6.09312 10.6421Z" fill="#8B8B8B"/>
<path d="M12.2276 10.6989C12.2817 10.747 12.2817 10.747 12.2982 10.813C12.2752 10.9218 12.2218 10.9878 12.1374 11.0592C12.0683 11.0817 12.0683 11.0817 12.0172 11.0832C12.0252 11.0594 12.0331 11.0357 12.0413 11.0112C12.0571 11.0112 12.073 11.0112 12.0893 11.0112C12.0973 10.9636 12.1052 10.916 12.1134 10.867C12.0975 10.867 12.0817 10.867 12.0653 10.867C12.0653 10.8195 12.0653 10.7719 12.0653 10.7229C12.1311 10.6767 12.1501 10.6708 12.2276 10.6989Z" fill="#8B8B8B"/>
<path d="M19.0559 10.708C19.0738 10.7209 19.0917 10.7339 19.1101 10.7472C19.1022 10.7869 19.0942 10.8267 19.086 10.8677C19.0182 10.8843 19.0182 10.8843 18.9413 10.8918C18.8945 10.8632 18.8945 10.8632 18.8689 10.8195C18.8704 10.7698 18.8704 10.7698 18.893 10.7231C18.9599 10.6682 18.9774 10.6688 19.0559 10.708Z" fill="#8B8B8B"/>
<path d="M24.5669 10.6751C24.6257 10.6932 24.6257 10.6932 24.6875 10.7233C24.7116 10.77 24.7116 10.77 24.7116 10.8197C24.686 10.8634 24.686 10.8634 24.6392 10.892C24.5624 10.8845 24.5624 10.8845 24.4945 10.8679C24.4764 10.8257 24.4764 10.8257 24.4704 10.7715C24.5171 10.7173 24.5171 10.7173 24.5669 10.6751Z" fill="#8B8B8B"/>
</svg>
