<svg width="22" height="11" viewBox="0 0 22 11" fill="none" xmlns="http://www.w3.org/2000/svg">
<g clip-path="url(#clip0_4_127)">
<path d="M9.61404 0.152161C9.94554 0.152161 10.277 0.152161 10.6186 0.152161C10.6186 1.0076 10.6186 1.86305 10.6186 2.74441C10.8154 2.67227 11.0123 2.60012 11.215 2.52579C11.2772 2.50517 11.3394 2.48456 11.4034 2.46332C11.4138 1.70064 11.4241 0.937956 11.4348 0.152161C11.7559 0.152161 12.0771 0.152161 12.408 0.152161C12.4183 0.760246 12.4287 1.36833 12.4393 1.99484C12.9238 1.62001 13.0723 1.24605 13.1527 0.660259C13.1734 0.49126 13.1837 0.322198 13.1928 0.152161C13.4103 0.152161 13.6279 0.152161 13.852 0.152161C13.8601 0.949706 13.7569 1.72934 13.1793 2.32849C12.9574 2.54761 12.7129 2.68692 12.4393 2.83811C12.4238 4.30679 12.4238 4.30679 12.408 5.80514C12.0868 5.80514 11.7657 5.80514 11.4348 5.80514C11.4348 4.96 11.4348 4.11487 11.4348 3.24412C11.1085 3.35234 11.1085 3.35234 10.7756 3.46275C10.7238 3.47305 10.672 3.48336 10.6186 3.49398C10.6186 4.25666 10.6186 5.01935 10.6186 5.80514C10.2871 5.80514 9.95559 5.80514 9.61404 5.80514C9.61404 5.20736 9.61404 4.60958 9.61404 3.99369C9.20364 4.29991 8.97479 4.64046 8.89202 5.14927C8.86546 5.3675 8.84758 5.58604 8.82923 5.80514C8.61168 5.80514 8.39414 5.80514 8.16999 5.80514C8.14384 5.01587 8.28935 4.30011 8.8323 3.7026C9.03939 3.4882 9.27429 3.29877 9.55125 3.18166C9.57197 3.18166 9.59269 3.18166 9.61404 3.18166C9.61404 2.18192 9.61404 1.18219 9.61404 0.152161Z" fill="#8B8B8B"/>
<path d="M8.54659 7.49187C9.04675 7.48704 9.04675 7.48704 9.55702 7.48211C9.66148 7.48069 9.76593 7.47927 9.87354 7.47781C9.95749 7.47735 10.0414 7.47695 10.1254 7.47662C10.1466 7.47622 10.1678 7.47581 10.1897 7.47539C10.5398 7.469 10.8838 7.50804 11.1541 7.75149C11.3329 7.95411 11.4158 8.1805 11.4122 8.45006C11.386 8.66216 11.3124 8.84766 11.1521 8.99101C11.1764 9.08865 11.1764 9.08865 11.2542 9.14912C11.4332 9.32468 11.5075 9.52375 11.5151 9.77181C11.5044 10.0381 11.4314 10.275 11.2442 10.4715C10.7808 10.8524 10.1286 10.7805 9.5662 10.7777C9.44601 10.7771 9.32583 10.777 9.20564 10.777C9.1293 10.7769 9.05297 10.7767 8.97663 10.7765C8.92269 10.7764 8.92269 10.7764 8.86765 10.7764C8.83461 10.7762 8.80156 10.776 8.76752 10.7758C8.73841 10.7756 8.70929 10.7755 8.6793 10.7754C8.60937 10.7712 8.60937 10.7712 8.54659 10.74C8.54659 9.66812 8.54659 8.59624 8.54659 7.49187ZM9.23721 8.11651C9.23721 8.33295 9.23721 8.54939 9.23721 8.77238C9.3852 8.77382 9.53317 8.77507 9.68116 8.77581C9.73143 8.77613 9.78169 8.77655 9.83196 8.7771C9.90451 8.77786 9.97706 8.77821 10.0496 8.77848C10.0718 8.77881 10.094 8.77913 10.1169 8.77946C10.2984 8.7795 10.4624 8.76517 10.6008 8.6416C10.6639 8.52868 10.6682 8.46265 10.6499 8.33514C10.5877 8.22375 10.5465 8.18687 10.4256 8.14386C10.298 8.11504 10.1795 8.10853 10.0496 8.11041C10.0262 8.1105 10.0029 8.11059 9.97876 8.11068C9.90489 8.11103 9.83102 8.11181 9.75715 8.11261C9.70673 8.11292 9.65631 8.11321 9.60589 8.11346C9.48299 8.11409 9.36012 8.11532 9.23721 8.11651ZM9.23721 9.36579C9.23721 9.61315 9.23721 9.8605 9.23721 10.1154C9.39862 10.1168 9.55999 10.118 9.7214 10.1188C9.77623 10.1191 9.83107 10.1195 9.8859 10.1201C9.965 10.1208 10.0441 10.1212 10.1232 10.1215C10.1475 10.1218 10.1717 10.1221 10.1967 10.1224C10.3793 10.1225 10.5488 10.1097 10.695 9.99043C10.766 9.85474 10.7646 9.73442 10.744 9.58441C10.6927 9.46171 10.6458 9.41568 10.5243 9.36579C10.4597 9.35688 10.4597 9.35688 10.3919 9.3587C10.3661 9.3587 10.3404 9.35871 10.3138 9.35871C10.2863 9.35904 10.2588 9.35936 10.2305 9.35969C10.2021 9.35978 10.1737 9.35987 10.1445 9.35996C10.0539 9.36031 9.96342 9.36109 9.87291 9.36189C9.81147 9.3622 9.75004 9.36248 9.6886 9.36274C9.53813 9.36338 9.38768 9.3646 9.23721 9.36579Z" fill="#8B8B8B"/>
<path d="M17.5253 7.71018C17.6145 7.77763 17.7014 7.84578 17.7765 7.9288C17.7765 7.94941 17.7765 7.97003 17.7765 7.99126C17.7972 7.99126 17.8179 7.99126 17.8392 7.99126C18.1716 8.4123 18.2477 8.86833 18.2096 9.39024C18.1509 9.81967 17.9048 10.1842 17.5763 10.4583C17.1845 10.7495 16.7134 10.8822 16.2278 10.82C15.7162 10.735 15.2966 10.5046 14.9865 10.0838C14.7042 9.65568 14.6325 9.18899 14.7373 8.68617C14.803 8.43303 14.9172 8.19927 15.0767 7.99126C15.0974 7.99126 15.1182 7.99126 15.1395 7.99126C15.1467 7.97319 15.1538 7.95511 15.1612 7.93649C15.3202 7.66504 15.7203 7.51145 16.0099 7.42567C16.537 7.30097 17.0771 7.41821 17.5253 7.71018ZM15.579 8.49098C15.4189 8.74527 15.3449 9.02375 15.4074 9.32021C15.4538 9.48633 15.5181 9.62587 15.6104 9.77148C15.6311 9.77148 15.6518 9.77148 15.6732 9.77148C15.6805 9.79008 15.6878 9.80868 15.6954 9.82785C15.7877 9.98377 15.9928 10.0607 16.1558 10.1267C16.491 10.1842 16.7751 10.1495 17.0694 9.97535C17.2863 9.82269 17.4317 9.6183 17.5057 9.36352C17.5559 9.04855 17.5239 8.77035 17.3417 8.49793C17.1449 8.26163 16.916 8.0994 16.604 8.06715C16.1963 8.04324 15.8337 8.15455 15.579 8.49098Z" fill="#8B8B8B"/>
<path d="M0.981003 7.49173C1.19855 7.49173 1.4161 7.49173 1.64024 7.49173C1.64024 7.88338 1.64024 8.27503 1.64024 8.67854C2.15821 8.67854 2.67619 8.67854 3.20985 8.67854C3.20985 8.28689 3.20985 7.89525 3.20985 7.49173C3.43776 7.49173 3.66567 7.49173 3.90048 7.49173C3.90048 8.56361 3.90048 9.63549 3.90048 10.7399C3.8292 10.7753 3.78927 10.7751 3.71017 10.7752C3.68516 10.7753 3.66015 10.7753 3.63439 10.7754C3.60824 10.7752 3.5821 10.7751 3.55517 10.775C3.52903 10.7751 3.50289 10.7752 3.47595 10.7754C3.43844 10.7753 3.43844 10.7753 3.40017 10.7752C3.37722 10.7752 3.35428 10.7752 3.33064 10.7751C3.27264 10.7711 3.27264 10.7711 3.20985 10.7399C3.20985 10.2967 3.20985 9.85349 3.20985 9.39688C2.69188 9.39688 2.17391 9.39688 1.64024 9.39688C1.64024 9.84006 1.64024 10.2832 1.64024 10.7399C1.44347 10.8377 1.201 10.7711 0.981003 10.7711C0.981003 9.6889 0.981003 8.60671 0.981003 7.49173Z" fill="#8B8B8B"/>
<path d="M4.74822 7.49173C4.97613 7.49173 5.20403 7.49173 5.43885 7.49173C5.43931 7.54937 5.43976 7.60701 5.44024 7.6664C5.44187 7.85826 5.44392 8.0501 5.44625 8.24195C5.44764 8.3581 5.44888 8.47425 5.44972 8.59041C5.45055 8.70281 5.45182 8.8152 5.45339 8.92759C5.45416 8.99068 5.45448 9.05379 5.45479 9.11689C5.45921 9.39723 5.47888 9.67702 5.61543 9.92782C5.81978 10.099 6.01126 10.1273 6.27271 10.1308C6.29792 10.1314 6.32313 10.132 6.34911 10.1326C6.54862 10.1305 6.71732 10.0823 6.86811 9.94729C7.01656 9.78286 7.04745 9.61426 7.04986 9.39927C7.05018 9.37853 7.0505 9.35779 7.05082 9.33642C7.05178 9.26849 7.05232 9.20056 7.05285 9.13263C7.05344 9.08528 7.05406 9.03793 7.0547 8.99058C7.0563 8.86644 7.05755 8.74229 7.05872 8.61813C7.05998 8.49126 7.06158 8.36439 7.06315 8.23751C7.06619 7.98892 7.06881 7.74033 7.07125 7.49173C7.30951 7.49173 7.54778 7.49173 7.79327 7.49173C7.79541 7.74426 7.79713 7.99677 7.79815 8.24931C7.79864 8.36662 7.7993 8.48392 7.80037 8.60123C7.80141 8.71484 7.80196 8.82844 7.80221 8.94205C7.80238 8.98499 7.80271 9.02793 7.80323 9.07086C7.80946 9.61212 7.74002 10.1173 7.35378 10.5212C7.00384 10.8401 6.52008 10.8571 6.07074 10.8434C5.6774 10.8236 5.35582 10.706 5.08176 10.4178C4.97062 10.2854 4.90105 10.1518 4.8424 9.99028C4.83009 9.96065 4.81779 9.93102 4.80512 9.90049C4.72855 9.60752 4.74395 9.29578 4.74515 8.99538C4.74521 8.95175 4.74526 8.90813 4.74529 8.86451C4.74541 8.75088 4.74571 8.63726 4.74606 8.52364C4.74639 8.40722 4.74653 8.2908 4.74669 8.17438C4.74702 7.94683 4.74757 7.71928 4.74822 7.49173Z" fill="#8B8B8B"/>
<path d="M18.4036 7.49173C19.2841 7.49173 20.1647 7.49173 21.0719 7.49173C21.0719 7.72878 21.0719 7.96583 21.0719 8.21006C20.7508 8.21006 20.4296 8.21006 20.0988 8.21006C20.0988 9.04489 20.0988 9.87972 20.0988 10.7399C19.8709 10.7399 19.6429 10.7399 19.4081 10.7399C19.4081 9.90502 19.4081 9.07019 19.4081 8.21006C19.0766 8.21006 18.7451 8.21006 18.4036 8.21006C18.4036 7.97301 18.4036 7.73596 18.4036 7.49173Z" fill="#8B8B8B"/>
<path d="M12.3136 7.49173C12.5519 7.49173 12.7902 7.49173 13.0357 7.49173C13.0357 8.32656 13.0357 9.16139 13.0357 10.0215C13.5301 10.0203 13.5301 10.0203 14.0246 10.0187C14.0863 10.0186 14.1481 10.0185 14.2098 10.0185C14.2584 10.0182 14.2584 10.0182 14.3079 10.018C14.3385 10.018 14.3691 10.018 14.4006 10.018C14.4273 10.0179 14.454 10.0178 14.4815 10.0178C14.5425 10.0215 14.5425 10.0215 14.5739 10.0527C14.5739 10.2795 14.5739 10.5062 14.5739 10.7399C13.828 10.7399 13.0821 10.7399 12.3136 10.7399C12.3136 9.66797 12.3136 8.59609 12.3136 7.49173Z" fill="#8B8B8B"/>
</g>
<defs>
<clipPath id="clip0_4_127">
<rect width="20.0911" height="10.6813" fill="white" transform="translate(0.98098 0.152252)"/>
</clipPath>
</defs>
</svg>
