<svg width="25" height="13" viewBox="0 0 25 13" fill="none" xmlns="http://www.w3.org/2000/svg">
<g clip-path="url(#clip0_4_213)">
<path d="M14.611 1.58503C14.6892 1.65885 14.7624 1.73391 14.8288 1.81853C14.836 1.82731 14.8431 1.83609 14.8505 1.84514C14.9182 1.92948 14.976 2.01927 15.032 2.11153C15.0361 2.11815 15.0401 2.12476 15.0443 2.13158C15.1963 2.38247 15.2941 2.66665 15.3462 2.95389C15.3477 2.96188 15.3492 2.96986 15.3508 2.97809C15.4017 3.25776 15.3901 3.56367 15.3369 3.84204C15.334 3.85722 15.334 3.85722 15.3311 3.8727C15.2169 4.44799 14.9084 4.98036 14.487 5.38943C14.4623 5.41373 14.4378 5.43816 14.4135 5.46283C14.3518 5.52527 14.2885 5.58258 14.219 5.63665C14.2077 5.64571 14.1964 5.65478 14.1851 5.66387C14.1211 5.71532 14.0567 5.76518 13.9881 5.81062C14.0394 5.82115 14.0898 5.82164 14.142 5.82227C14.1519 5.82241 14.1617 5.82256 14.1718 5.82272C14.2619 5.82399 14.3521 5.82471 14.4422 5.82527C14.5027 5.82565 14.5632 5.8262 14.6237 5.82718C14.6823 5.82813 14.7409 5.82863 14.7995 5.82882C14.8218 5.82896 14.8441 5.82927 14.8664 5.82973C14.8976 5.83036 14.9288 5.8304 14.96 5.83031C14.9692 5.83063 14.9784 5.83094 14.9878 5.83127C15.0278 5.83062 15.0505 5.82903 15.0794 5.80016C15.0961 5.7768 15.1105 5.75329 15.1244 5.72821C15.1331 5.71415 15.1419 5.70011 15.1507 5.68611C15.1589 5.6725 15.1671 5.65887 15.1753 5.64523C15.2104 5.58755 15.2456 5.53168 15.2907 5.48099C15.2959 5.47512 15.3011 5.46924 15.3064 5.46318C15.3582 5.40806 15.4186 5.3731 15.4955 5.3699C15.5113 5.36994 15.5113 5.36994 15.5275 5.36998C15.5381 5.36995 15.5487 5.36993 15.5596 5.3699C15.5864 5.37112 15.5864 5.37112 15.6049 5.38028C15.5928 5.41889 15.5779 5.45379 15.5591 5.48965C15.5537 5.50013 15.5482 5.51061 15.5425 5.5214C15.5366 5.53273 15.5306 5.54406 15.5246 5.55539C15.5183 5.56728 15.5121 5.57918 15.5059 5.59107C15.4532 5.69117 15.3995 5.79069 15.3455 5.89009C15.319 5.93888 15.2927 5.98778 15.2666 6.03673C15.2612 6.04676 15.2612 6.04676 15.2557 6.05698C15.2416 6.08336 15.2275 6.10973 15.2134 6.13612C15.2037 6.15427 15.194 6.17242 15.1843 6.19056C15.1788 6.20097 15.1732 6.21137 15.1675 6.22209C15.1624 6.23134 15.1574 6.24058 15.1522 6.25011C15.1468 6.26214 15.1468 6.26214 15.1412 6.27441C15.1244 6.29589 15.1244 6.29589 15.0967 6.30155C15.0852 6.30152 15.0738 6.30149 15.0619 6.30146C15.0555 6.30151 15.0492 6.30155 15.0426 6.3016C15.0211 6.3017 14.9996 6.30146 14.9781 6.30124C14.9627 6.30124 14.9472 6.30126 14.9318 6.3013C14.8898 6.30135 14.8478 6.30112 14.8057 6.30084C14.7613 6.30058 14.7169 6.30058 14.6725 6.30056C14.5975 6.30047 14.5225 6.30022 14.4475 6.29985C14.3434 6.29934 14.2392 6.29913 14.1351 6.29898C13.5275 6.29804 13.5275 6.29804 13.2315 6.29167C13.2233 6.2915 13.2152 6.29133 13.2068 6.29115C13.0914 6.28857 12.9762 6.2834 12.8609 6.27758C12.8736 6.2513 12.8851 6.2333 12.9069 6.2136C12.9123 6.20867 12.9177 6.20375 12.9232 6.19868C12.929 6.19356 12.9347 6.18844 12.9406 6.18316C12.9465 6.17782 12.9524 6.17248 12.9584 6.16698C12.993 6.13575 13.0279 6.10502 13.0633 6.07472C13.1051 6.03823 13.1457 6.00043 13.1865 5.96286C13.2022 5.94843 13.218 5.9341 13.2338 5.91978C13.3084 5.85193 13.3806 5.78187 13.4522 5.71104C13.4568 5.70654 13.4613 5.70203 13.4661 5.69739C13.5189 5.64521 13.57 5.5921 13.6185 5.53593C13.6316 5.52179 13.6446 5.50767 13.6578 5.49358C13.7048 5.44189 13.7478 5.38742 13.7907 5.33232C13.8027 5.31693 13.8148 5.30163 13.827 5.28636C13.9182 5.17151 13.998 5.04923 14.0712 4.92247C14.0757 4.91467 14.0802 4.90687 14.0849 4.89884C14.4716 4.2253 14.6057 3.4038 14.4009 2.65049C14.3091 2.32753 14.1587 2.03065 13.9419 1.77275C13.9357 1.76538 13.9357 1.76538 13.9294 1.75787C13.8402 1.65198 13.7473 1.5554 13.637 1.4706C13.6321 1.46676 13.6272 1.46293 13.6221 1.45898C13.3165 1.22178 12.94 1.08366 12.556 1.04026C12.5486 1.03939 12.5411 1.03853 12.5334 1.03764C11.9834 0.980774 11.4178 1.12575 10.9828 1.46697C10.9453 1.49718 10.9099 1.52953 10.8746 1.56216C10.8625 1.5725 10.8503 1.5828 10.8382 1.59306C10.7522 1.66786 10.6786 1.74816 10.61 1.83862C10.5977 1.85471 10.5852 1.87059 10.5726 1.88645C10.2508 2.29883 10.1059 2.84035 10.1054 3.35562C10.1054 3.36232 10.1054 3.36901 10.1054 3.37591C10.1065 4.11757 10.3941 4.83337 10.8704 5.40087C10.8888 5.42295 10.9068 5.44543 10.9248 5.46783C11.0091 5.56946 11.1031 5.66256 11.1968 5.75568C11.2049 5.76378 11.213 5.77187 11.2214 5.78021C11.262 5.82034 11.3031 5.85913 11.3466 5.89615C11.3771 5.92247 11.4064 5.95016 11.4358 5.97772C11.4757 6.01499 11.5157 6.05216 11.5563 6.08866C11.6002 6.12807 11.6431 6.16827 11.6853 6.20948C11.6901 6.21418 11.695 6.21888 11.7 6.22372C11.7116 6.23522 11.7228 6.2472 11.7338 6.25927C11.7338 6.26531 11.7338 6.27136 11.7338 6.27758C10.9799 6.31076 10.2245 6.29579 9.47025 6.28674C9.46605 6.27864 9.46185 6.27054 9.45752 6.26219C9.44168 6.23168 9.42584 6.20118 9.40998 6.17069C9.40317 6.15757 9.39636 6.14445 9.38955 6.13133C9.35063 6.05631 9.31129 5.98162 9.26988 5.9079C9.21891 5.81629 9.17041 5.72347 9.12217 5.63042C9.1133 5.61331 9.10441 5.59621 9.09551 5.57911C9.08293 5.55491 9.0704 5.53069 9.05789 5.50646C9.0541 5.49917 9.0503 5.49188 9.04639 5.48438C9.02732 5.44726 9.01107 5.41122 8.99907 5.37112C9.0726 5.35232 9.14287 5.35734 9.21156 5.38943C9.31246 5.44852 9.37343 5.5446 9.43041 5.64294C9.4652 5.70252 9.49864 5.7586 9.54416 5.81062C9.54416 5.81666 9.54416 5.8227 9.54416 5.82893C9.89783 5.82591 10.2515 5.82289 10.6159 5.81977C10.5671 5.78351 10.5183 5.74726 10.468 5.7099C10.3956 5.65051 10.3249 5.58961 10.2556 5.52678C10.2463 5.51846 10.2371 5.51015 10.2278 5.50185C10.156 5.43723 10.0863 5.37186 10.023 5.29887C10.0047 5.27795 9.98578 5.25761 9.96684 5.23721C9.91526 5.18039 9.86787 5.12072 9.82133 5.05981C9.81656 5.05358 9.81179 5.04734 9.80688 5.04092C9.44649 4.56622 9.22734 3.98536 9.22831 3.38881C9.22831 3.38241 9.22832 3.37601 9.22833 3.36942C9.22858 3.26058 9.23319 3.15332 9.24852 3.04546C9.25023 3.03325 9.25023 3.03325 9.25198 3.0208C9.34118 2.40982 9.65163 1.83565 10.1447 1.45228C10.1551 1.44378 10.1655 1.43526 10.1759 1.42671C10.2631 1.35554 10.3544 1.29262 10.4496 1.23254C10.4552 1.22894 10.4609 1.22535 10.4667 1.22164C10.9262 0.932135 11.4694 0.769253 12.0109 0.728946C12.0177 0.72843 12.0245 0.727913 12.0315 0.727381C12.9615 0.660257 13.9268 0.944715 14.611 1.58503Z" fill="#8B8B8B"/>
<path d="M9.68282 7.47714C9.68891 7.47714 9.69501 7.47714 9.70129 7.47714C9.94428 8.20658 9.94428 8.20658 10.0614 8.57235C10.0783 8.62529 10.0953 8.6782 10.1123 8.73111C10.2197 9.06515 10.3258 9.39961 10.431 9.73433C10.4527 9.80346 10.4745 9.87258 10.4962 9.9417C10.5729 10.1853 10.6495 10.4288 10.7259 10.6725C10.7281 10.6796 10.7303 10.6867 10.7326 10.694C10.7438 10.7296 10.7549 10.7652 10.7661 10.8008C10.7694 10.8113 10.7694 10.8113 10.7727 10.822C10.7771 10.8361 10.7815 10.8502 10.7859 10.8642C10.8594 11.0986 10.9332 11.3328 11.0074 11.5669C11.0453 11.6862 11.083 11.8056 11.1204 11.925C11.1235 11.9352 11.1267 11.9453 11.13 11.9557C11.1329 11.965 11.1358 11.9742 11.1387 11.9837C11.1413 11.9918 11.1438 11.9999 11.1464 12.0083C11.1518 12.0278 11.1518 12.0278 11.1518 12.0461C10.917 12.0461 10.6823 12.0461 10.4404 12.0461C10.3616 11.8094 10.2847 11.5723 10.2106 11.3342C10.2086 11.3278 10.2066 11.3213 10.2045 11.3147C10.1526 11.1477 10.1011 10.9806 10.0499 10.8134C10.0301 10.7489 10.0104 10.6845 9.99058 10.62C9.98814 10.612 9.98569 10.604 9.98318 10.5958C9.89803 10.3182 9.81021 10.0416 9.71941 9.76574C9.70479 9.72123 9.69025 9.6767 9.67571 9.63217C9.65042 9.55474 9.62507 9.47733 9.59967 9.39994C9.56048 9.47259 9.52947 9.54791 9.4987 9.6243C9.48344 9.66216 9.46803 9.69997 9.45264 9.73779C9.44948 9.74554 9.44632 9.7533 9.44307 9.7613C9.38874 9.89468 9.3325 10.0273 9.2763 10.1599C9.27293 10.1679 9.26955 10.1758 9.26607 10.1841C9.16864 10.414 9.07011 10.6435 8.96978 10.8723C8.95359 10.9092 8.93744 10.9462 8.92129 10.9831C8.90144 11.0285 8.88158 11.0739 8.86171 11.1194C8.84263 11.163 8.82357 11.2066 8.80455 11.2503C8.74378 11.3896 8.68242 11.5286 8.62076 11.6675C8.54597 11.8361 8.47214 12.0051 8.39861 12.1743C8.38947 12.1743 8.38032 12.1743 8.3709 12.1743C8.36841 12.1683 8.36592 12.1623 8.36336 12.1561C8.21874 11.8086 8.07143 11.4622 7.92251 11.1165C7.89027 11.0416 7.85811 10.9667 7.82598 10.8917C7.73155 10.6715 7.63654 10.4515 7.53962 10.2323C7.51743 10.1821 7.49533 10.1319 7.47328 10.0816C7.40573 9.92763 7.33787 9.77379 7.26953 9.62016C7.26162 9.60236 7.25371 9.58456 7.24581 9.56676C7.23485 9.54207 7.22386 9.51739 7.21286 9.49271C7.20957 9.48528 7.20628 9.47785 7.20288 9.4702C7.19004 9.43734 7.19004 9.43734 7.16984 9.40909C7.16791 9.41544 7.16597 9.42179 7.16397 9.42833C7.06498 9.7525 6.9651 10.0764 6.86323 10.3997C6.86089 10.4071 6.85855 10.4145 6.85613 10.4222C6.83514 10.4888 6.81413 10.5555 6.79312 10.6221C6.75208 10.7522 6.71116 10.8824 6.67037 11.0126C6.66715 11.0228 6.66394 11.0331 6.66063 11.0436C6.61723 11.1822 6.57417 11.3208 6.53128 11.4595C6.52886 11.4673 6.52643 11.4751 6.52394 11.4832C6.49983 11.5611 6.47575 11.6391 6.4517 11.717C6.44279 11.7459 6.43387 11.7747 6.42496 11.8036C6.42081 11.8171 6.41667 11.8305 6.41252 11.8439C6.39168 11.9116 6.37058 11.9791 6.34758 12.0461C6.27 12.0463 6.19241 12.0464 6.11482 12.0465C6.07878 12.0466 6.04274 12.0467 6.0067 12.0468C5.97184 12.0469 5.93697 12.0469 5.90211 12.0469C5.8889 12.047 5.87568 12.047 5.86247 12.047C5.78352 12.0473 5.70554 12.045 5.62695 12.0369C5.63238 11.989 5.64384 11.946 5.66019 11.9005C5.66529 11.886 5.67038 11.8715 5.67548 11.857C5.67955 11.8455 5.67955 11.8455 5.68371 11.8338C5.73806 11.68 5.78959 11.5255 5.83945 11.3702C5.84255 11.3606 5.84565 11.3509 5.84885 11.341C5.86442 11.2924 5.87997 11.2439 5.8955 11.1954C5.91222 11.1431 5.92907 11.0909 5.94595 11.0387C6.05132 10.7125 6.15318 10.3853 6.25364 10.0576C6.71084 8.56653 6.71084 8.56653 7.02895 7.66999C7.03249 7.66019 7.03249 7.66019 7.03611 7.65018C7.04266 7.63208 7.04929 7.614 7.05595 7.59592C7.05967 7.58575 7.0634 7.57558 7.06723 7.56509C7.07745 7.54124 7.07745 7.54124 7.09593 7.52292C7.13856 7.60552 7.17816 7.68876 7.21488 7.77415C7.22264 7.79206 7.23042 7.80997 7.2382 7.82788C7.2437 7.84056 7.2492 7.85324 7.2547 7.86593C7.28536 7.93664 7.31645 8.00717 7.34754 8.0777C7.48929 8.39944 7.62914 8.72198 7.76856 9.04473C7.79448 9.10472 7.82045 9.1647 7.84648 9.22465C7.93292 9.42373 8.0176 9.62353 8.1017 9.8236C8.11216 9.84848 8.12263 9.87336 8.1331 9.89825C8.21704 10.0978 8.29992 10.2977 8.38014 10.4987C8.45617 10.3332 8.53084 10.1672 8.60345 10.0001C8.6387 9.9191 8.67428 9.8382 8.70981 9.75727C8.72999 9.71129 8.75016 9.66531 8.77033 9.61933C8.81269 9.52277 8.81269 9.52277 8.8308 9.48153C8.94036 9.232 9.04825 8.98175 9.1562 8.73154C9.16203 8.71802 9.16203 8.71802 9.16799 8.70422C9.30888 8.37768 9.446 8.04964 9.58142 7.72083C9.61493 7.63948 9.64851 7.55817 9.68282 7.47714Z" fill="#8B8B8B"/>
<path d="M18.5058 7.77962C18.5194 7.78674 18.533 7.79386 18.5466 7.80098C18.7251 7.89583 18.8877 8.01317 19.0354 8.15048C19.0565 8.16996 19.078 8.18864 19.1 8.2071C19.13 8.23294 19.156 8.26079 19.1817 8.29083C19.2009 8.31318 19.2209 8.33479 19.2409 8.35646C19.3373 8.46267 19.3373 8.46267 19.3373 8.50296C19.315 8.52061 19.2929 8.53645 19.2692 8.55218C19.2547 8.56209 19.2401 8.572 19.2256 8.58193C19.2181 8.58704 19.2106 8.59215 19.2028 8.59742C19.1676 8.62152 19.1329 8.64632 19.0983 8.67121C19.0881 8.67848 19.0881 8.67848 19.0778 8.6859C18.9852 8.75239 18.8929 8.81944 18.8015 8.88752C18.7663 8.87389 18.7524 8.85527 18.7316 8.82457C18.6888 8.7643 18.6402 8.71181 18.589 8.65862C18.5821 8.65135 18.5753 8.64408 18.5682 8.63658C18.3221 8.38238 17.9338 8.21174 17.582 8.1825C17.5748 8.1819 17.5676 8.18129 17.5602 8.18068C17.1592 8.1493 16.7349 8.25548 16.4179 8.50868C16.4023 8.5219 16.3869 8.53525 16.3717 8.54874C16.3638 8.55552 16.356 8.56229 16.3479 8.56927C16.3247 8.58959 16.3019 8.61026 16.2793 8.63115C16.2727 8.6371 16.2661 8.64304 16.2593 8.64917C15.9437 8.94535 15.7837 9.39979 15.7715 9.82141C15.7672 10.1048 15.845 10.3981 15.9836 10.6455C15.9886 10.6548 15.9936 10.6641 15.9988 10.6737C16.2046 11.0431 16.5712 11.3071 16.975 11.4261C17.3856 11.5384 17.8365 11.4869 18.2102 11.2864C18.2199 11.2813 18.2296 11.2761 18.2395 11.2707C18.3733 11.1961 18.4868 11.1039 18.595 10.9967C18.6076 10.9841 18.6204 10.9718 18.6335 10.9598C18.7642 10.8383 18.8565 10.6786 18.9337 10.5202C18.9375 10.5125 18.9413 10.5047 18.9452 10.4968C18.9652 10.4545 18.9821 10.4122 18.9968 10.3678C19.0001 10.3581 19.0033 10.3483 19.0066 10.3382C19.0103 10.3272 19.0103 10.3272 19.014 10.3159C19.0064 10.3159 18.9988 10.3159 18.991 10.3159C18.806 10.3161 18.621 10.3163 18.436 10.3164C18.3465 10.3164 18.2571 10.3165 18.1676 10.3166C18.0896 10.3167 18.0116 10.3167 17.9337 10.3167C17.8924 10.3168 17.8511 10.3168 17.8098 10.3169C17.7709 10.3169 17.732 10.3169 17.6932 10.3169C17.6789 10.3169 17.6647 10.3169 17.6504 10.317C17.6309 10.317 17.6114 10.317 17.5919 10.317C17.581 10.317 17.5701 10.317 17.5589 10.317C17.5233 10.3158 17.4879 10.3111 17.4526 10.3067C17.4526 10.0922 17.4526 9.87767 17.4526 9.65664C18.2148 9.65664 18.977 9.65664 19.7623 9.65664C19.7623 9.87268 19.7623 9.87268 19.7554 9.9565C19.7546 9.96644 19.7538 9.97639 19.7529 9.98663C19.7091 10.4814 19.5237 10.9675 19.1895 11.3414C19.1828 11.349 19.1761 11.3567 19.1692 11.3646C19.1281 11.4109 19.085 11.455 19.0411 11.4987C19.0359 11.504 19.0307 11.5092 19.0253 11.5146C18.8569 11.6808 18.6567 11.8194 18.4412 11.9188C18.4287 11.9246 18.4163 11.9304 18.4039 11.9364C17.9797 12.139 17.4815 12.1982 17.0184 12.1196C17.0056 12.1175 17.0056 12.1175 16.9925 12.1153C16.642 12.0543 16.2992 11.9097 16.0206 11.6893C16.012 11.6825 16.0034 11.6758 15.9945 11.6688C15.8453 11.5496 15.7033 11.4191 15.5892 11.2659C15.5767 11.2492 15.564 11.2327 15.5513 11.2161C15.4924 11.139 15.4399 11.0596 15.3923 10.9751C15.388 10.9675 15.3837 10.9599 15.3793 10.9521C15.0786 10.4155 15.0054 9.7834 15.1709 9.19136C15.2544 8.90977 15.3929 8.64113 15.5771 8.4114C15.5836 8.4032 15.5901 8.39499 15.5968 8.38654C15.7061 8.25127 15.8276 8.12476 15.9652 8.01768C15.9743 8.01044 15.9834 8.00319 15.9928 7.99572C16.339 7.72484 16.7724 7.55265 17.2124 7.5141C17.2185 7.51353 17.2245 7.51297 17.2308 7.51238C17.6686 7.47329 18.1204 7.57231 18.5058 7.77962Z" fill="#8B8B8B"/>
<path d="M3.56654 7.54122C3.57998 7.54388 3.57998 7.54388 3.5937 7.54659C3.80463 7.58959 4.01044 7.65814 4.20402 7.75181C4.20988 7.75463 4.21573 7.75744 4.22176 7.76034C4.41259 7.85331 4.58711 7.98135 4.73987 8.12722C4.74598 8.13302 4.75208 8.13882 4.75837 8.1448C4.84602 8.22851 4.92675 8.31363 4.99856 8.41106C5.00649 8.4216 5.01442 8.43214 5.02235 8.44268C5.07812 8.51765 5.12804 8.59541 5.1741 8.67659C5.17812 8.68366 5.18213 8.69072 5.18627 8.69801C5.34364 8.97819 5.44613 9.29094 5.47898 9.61052C5.48001 9.61934 5.48103 9.62817 5.48209 9.63727C5.54054 10.2291 5.34648 10.8264 4.97085 11.2861C4.94117 11.3207 4.9098 11.3537 4.87846 11.3868C4.86723 11.3995 4.85607 11.4123 4.84497 11.4252C4.78976 11.4878 4.73045 11.5424 4.66492 11.5943C4.64754 11.6083 4.63042 11.6225 4.6136 11.6371C4.14504 12.0419 3.52669 12.18 2.9204 12.1405C2.47133 12.1059 2.04795 11.9239 1.70029 11.6432C1.69525 11.6391 1.69021 11.6351 1.68502 11.6309C1.55832 11.5282 1.43976 11.4149 1.33997 11.2861C1.33061 11.2744 1.32124 11.2628 1.31186 11.2511C1.14753 11.045 1.01831 10.8117 0.933463 10.5628C0.930918 10.5553 0.928374 10.5479 0.925753 10.5403C0.864418 10.3583 0.82203 10.1668 0.820395 9.97451C0.820304 9.96572 0.820214 9.95692 0.820121 9.94786C0.818601 9.76201 0.818403 9.58213 0.859552 9.39992C0.861581 9.39044 0.86361 9.38095 0.8657 9.37117C0.909013 9.17016 0.971954 8.98042 1.06281 8.79562C1.06642 8.78828 1.07002 8.78093 1.07374 8.77337C1.17833 8.56335 1.31508 8.37808 1.47856 8.20962C1.48506 8.20288 1.48506 8.20288 1.4917 8.19599C1.55134 8.13439 1.61403 8.0791 1.68181 8.0265C1.69102 8.01916 1.70022 8.01182 1.70971 8.00425C1.78582 7.94413 1.86602 7.89247 1.94974 7.84338C1.95613 7.8396 1.96252 7.83582 1.96911 7.83193C2.21631 7.68709 2.48215 7.59721 2.76276 7.54122C2.77075 7.53957 2.77874 7.53791 2.78698 7.53621C3.03216 7.48738 3.32195 7.49192 3.56654 7.54122ZM1.93992 8.68746C1.88165 8.75262 1.83208 8.82395 1.78344 8.89634C1.77964 8.90195 1.77584 8.90757 1.77192 8.91335C1.5328 9.27156 1.44662 9.74686 1.52628 10.168C1.53151 10.1929 1.5372 10.2176 1.54323 10.2423C1.54516 10.2502 1.54709 10.2581 1.54908 10.2663C1.59107 10.4313 1.66059 10.586 1.75572 10.7276C1.76181 10.737 1.76789 10.7463 1.77416 10.756C1.83679 10.8515 1.90849 10.9373 1.98669 11.0206C1.99246 11.0268 1.99822 11.033 2.00416 11.0394C2.28761 11.3333 2.72851 11.4809 3.13115 11.4901C3.58614 11.4946 3.98652 11.3277 4.31489 11.0206C4.32178 11.0142 4.32868 11.0079 4.33578 11.0013C4.62677 10.7245 4.78803 10.2981 4.79794 9.90355C4.80066 9.7616 4.79687 9.62179 4.76759 9.48233C4.76605 9.47485 4.76452 9.46738 4.76294 9.45968C4.67563 9.04843 4.43 8.67212 4.07334 8.44092C3.82752 8.28542 3.5374 8.17401 3.24257 8.17082C3.23566 8.17073 3.22875 8.17064 3.22164 8.17054C2.72436 8.16537 2.28424 8.32769 1.93992 8.68746Z" fill="#8B8B8B"/>
<path d="M22.0721 7.349C22.0982 7.38071 22.1164 7.41558 22.135 7.4519C22.14 7.46163 22.14 7.46163 22.1451 7.47156C22.1523 7.48546 22.1595 7.49937 22.1666 7.51329C22.1817 7.54258 22.1968 7.57184 22.2119 7.6011C22.2194 7.61574 22.227 7.63038 22.2345 7.64502C22.2638 7.70177 22.2934 7.75835 22.3233 7.81482C22.4889 8.12865 22.654 8.44303 22.8119 8.76076C22.8295 8.79603 22.8474 8.83109 22.8661 8.86583C22.9172 8.96096 22.9665 9.05691 23.015 9.15334C23.0184 9.15993 23.0217 9.16653 23.0251 9.17333C23.0528 9.22836 23.0804 9.28341 23.1081 9.33846C23.1321 9.38625 23.1561 9.43404 23.1802 9.48181C23.1835 9.48845 23.1869 9.4951 23.1903 9.50194C23.226 9.57287 23.262 9.64364 23.2997 9.71358C23.3446 9.79691 23.3871 9.88143 23.4296 9.96595C23.4334 9.97337 23.4371 9.98079 23.441 9.98844C23.4721 10.0504 23.5033 10.1124 23.5344 10.1743C23.5614 10.2281 23.5885 10.2819 23.6156 10.3356C23.6211 10.3467 23.6211 10.3467 23.6268 10.3581C23.6698 10.4434 23.7132 10.5284 23.7585 10.6126C23.815 10.7177 23.8675 10.8247 23.9209 10.9313C23.9739 11.0369 24.0272 11.1422 24.0829 11.2464C24.1126 11.3019 24.1412 11.358 24.1693 11.4143C24.2015 11.4786 24.2341 11.5426 24.2681 11.606C24.2844 11.6367 24.3008 11.6675 24.3171 11.6982C24.3202 11.7039 24.3232 11.7096 24.3264 11.7155C24.3479 11.7558 24.3692 11.7961 24.3905 11.8366C24.3978 11.8503 24.405 11.864 24.4124 11.8777C24.4227 11.897 24.4329 11.9165 24.4431 11.9359C24.4462 11.9417 24.4494 11.9475 24.4526 11.9535C24.4709 11.9887 24.4742 12.0048 24.4742 12.0461C24.2242 12.0461 23.9742 12.0461 23.7166 12.0461C23.6094 11.8442 23.6094 11.8442 23.5588 11.744C23.5552 11.7368 23.5515 11.7295 23.5477 11.722C23.544 11.7146 23.5402 11.7072 23.5364 11.6996C23.5284 11.6839 23.5205 11.6681 23.5125 11.6524C23.4961 11.6199 23.4797 11.5874 23.4633 11.5549C23.4423 11.5132 23.4212 11.4715 23.4001 11.4298C23.3837 11.3976 23.3674 11.3653 23.3512 11.333C23.3434 11.3176 23.3356 11.3022 23.3278 11.2868C23.317 11.2655 23.3063 11.2442 23.2955 11.2228C23.2923 11.2165 23.2891 11.2102 23.2857 11.2036C23.2639 11.1601 23.2639 11.1601 23.2639 11.1397C23.2538 11.1397 23.2438 11.1397 23.2334 11.1397C22.9869 11.1399 22.7403 11.14 22.4938 11.1401C22.3746 11.1402 22.2553 11.1402 22.1361 11.1403C22.032 11.1404 21.9279 11.1405 21.8238 11.1405C21.7689 11.1405 21.7139 11.1406 21.659 11.1406C21.4085 11.1409 21.1583 11.1392 20.908 11.1305C20.9051 11.1391 20.9023 11.1478 20.8994 11.1567C20.8909 11.1813 20.8817 11.2024 20.8694 11.2252C20.8653 11.2328 20.8612 11.2404 20.857 11.2482C20.8525 11.2565 20.848 11.2648 20.8434 11.2733C20.7934 11.3671 20.7451 11.4616 20.6974 11.5565C20.6939 11.5635 20.6904 11.5705 20.6867 11.5777C20.6613 11.6281 20.636 11.6786 20.6106 11.7291C20.5849 11.7803 20.5592 11.8315 20.5334 11.8827C20.5232 11.903 20.513 11.9233 20.5028 11.9436C20.4966 11.9559 20.4904 11.9681 20.4843 11.9804C20.4762 11.9965 20.4762 11.9965 20.4679 12.0129C20.4553 12.037 20.4553 12.037 20.446 12.0461C20.4219 12.047 20.3979 12.0473 20.3738 12.0472C20.3662 12.0472 20.3586 12.0472 20.3508 12.0472C20.3257 12.0471 20.3005 12.0471 20.2754 12.047C20.258 12.047 20.2406 12.047 20.2232 12.047C20.1774 12.0469 20.1315 12.0468 20.0857 12.0467C20.0389 12.0466 19.9922 12.0466 19.9454 12.0466C19.8536 12.0465 19.7618 12.0463 19.67 12.0461C19.6807 12.0128 19.6922 11.9815 19.7083 11.9505C19.7122 11.9429 19.7161 11.9353 19.7201 11.9275C19.7243 11.9195 19.7285 11.9114 19.7329 11.9031C19.7373 11.8945 19.7417 11.8859 19.7463 11.8771C19.7605 11.8497 19.7747 11.8223 19.7889 11.7949C19.7982 11.7771 19.8074 11.7593 19.8166 11.7414C19.863 11.6518 19.9097 11.5624 19.9568 11.4732C20.011 11.3703 20.0644 11.2671 20.1175 11.1637C20.1369 11.1259 20.1564 11.0881 20.1758 11.0503C20.1807 11.0408 20.1855 11.0314 20.1905 11.0217C20.222 10.9606 20.2536 10.8995 20.2852 10.8385C20.3699 10.675 20.4542 10.5113 20.5365 10.3466C20.5697 10.2803 20.6036 10.2146 20.6385 10.1493C20.69 10.053 20.739 9.95543 20.7879 9.85779C20.805 9.82363 20.8221 9.78949 20.8393 9.75535C20.843 9.74798 20.8466 9.74062 20.8504 9.73302C20.8772 9.6798 20.905 9.62718 20.9331 9.57463C20.9774 9.4915 21.0202 9.40766 21.0624 9.32348C21.075 9.29841 21.0876 9.27335 21.1002 9.2483C21.127 9.1951 21.1538 9.14189 21.1805 9.08867C21.2116 9.02686 21.2427 8.96505 21.2738 8.90326C21.2861 8.87894 21.2983 8.8546 21.3105 8.83026C21.3479 8.75598 21.3858 8.68206 21.425 8.60872C21.4704 8.52377 21.514 8.43797 21.5572 8.35191C21.5707 8.32499 21.5843 8.29809 21.5978 8.27119C21.6266 8.21407 21.6553 8.15694 21.6841 8.0998C21.7174 8.03345 21.7508 7.96711 21.7842 7.90078C21.7974 7.87463 21.8105 7.84847 21.8237 7.8223C21.8773 7.71565 21.9325 7.6099 21.9889 7.50465C21.998 7.48764 22.0071 7.47063 22.0161 7.45362C22.0229 7.44106 22.0296 7.42851 22.0363 7.41595C22.0398 7.40931 22.0434 7.40268 22.047 7.39583C22.0554 7.38022 22.0637 7.36461 22.0721 7.349ZM22.0721 8.85061C22.0004 8.98375 21.932 9.11835 21.8642 9.25348C21.8073 9.36691 21.7504 9.48018 21.6904 9.59205C21.6436 9.67981 21.5993 9.76885 21.5547 9.85779C21.4949 9.97726 21.4341 10.0961 21.371 10.2139C21.3454 10.2618 21.3201 10.3099 21.2949 10.3579C21.2896 10.368 21.2842 10.3781 21.2788 10.3884C21.2738 10.3979 21.2688 10.4074 21.2636 10.4172C21.2569 10.4299 21.2569 10.4299 21.2501 10.4428C21.2399 10.4599 21.2399 10.4599 21.2406 10.4713C21.3363 10.4795 21.4311 10.4817 21.5271 10.4814C21.5424 10.4814 21.5577 10.4814 21.573 10.4815C21.6142 10.4815 21.6553 10.4814 21.6965 10.4813C21.7396 10.4813 21.7828 10.4813 21.8259 10.4813C21.9075 10.4812 21.989 10.4812 22.0705 10.4811C22.1634 10.481 22.2563 10.4809 22.3493 10.4809C22.5402 10.4808 22.7311 10.4806 22.9221 10.4804C22.9172 10.4708 22.9123 10.4611 22.9073 10.4512C22.8742 10.3856 22.8412 10.3201 22.8082 10.2545C22.7741 10.1868 22.74 10.1192 22.7059 10.0515C22.6855 10.011 22.6651 9.97048 22.6447 9.92994C22.6247 9.89016 22.6046 9.85039 22.5846 9.81063C22.5771 9.79573 22.5696 9.78082 22.5621 9.76591C22.5144 9.67105 22.4655 9.57692 22.4154 9.48327C22.391 9.43759 22.3677 9.39141 22.3446 9.34504C22.2609 9.17808 22.1712 9.01436 22.0813 8.85061C22.0783 8.85061 22.0752 8.85061 22.0721 8.85061Z" fill="#8B8B8B"/>
<path d="M11.7061 7.60529C12.6086 7.60529 13.511 7.60529 14.4408 7.60529C14.4408 7.82284 14.4408 8.04039 14.4408 8.26453C13.767 8.26453 13.0932 8.26453 12.399 8.26453C12.399 8.67244 12.399 9.08034 12.399 9.50061C13.0515 9.50061 13.7039 9.50061 14.3761 9.50061C14.3761 9.71816 14.3761 9.93571 14.3761 10.1599C13.7237 10.1599 13.0712 10.1599 12.399 10.1599C12.399 10.5647 12.399 10.9696 12.399 11.3868C12.5853 11.3866 12.5853 11.3866 12.7753 11.3865C12.8544 11.3864 12.9336 11.3864 13.0128 11.3863C13.1381 11.3863 13.2635 11.3862 13.3888 11.3861C13.4801 11.386 13.5715 11.3859 13.6628 11.3859C13.7111 11.3859 13.7593 11.3859 13.8075 11.3858C13.8532 11.3858 13.8989 11.3857 13.9445 11.3857C13.961 11.3857 13.9776 11.3857 13.9941 11.3857C14.1432 11.3854 14.2915 11.391 14.4408 11.3959C14.4408 11.6105 14.4408 11.825 14.4408 12.046C13.5384 12.046 12.6359 12.046 11.7061 12.046C11.7061 10.5806 11.7061 9.11514 11.7061 7.60529Z" fill="#8B8B8B"/>
</g>
<defs>
<clipPath id="clip0_4_213">
<rect width="23.6515" height="12.4615" fill="white" transform="translate(0.822754 0.262085)"/>
</clipPath>
</defs>
</svg>
