<svg width="21" height="13" viewBox="0 0 21 13" fill="none" xmlns="http://www.w3.org/2000/svg">
<g clip-path="url(#clip0_4_155)">
<path d="M11.077 1.06129C11.1514 1.12613 11.1962 1.20331 11.2101 1.30176C11.2163 1.40549 11.1889 1.50008 11.1208 1.57979C11.0632 1.64026 10.9928 1.67726 10.9105 1.6903C10.9114 1.69515 10.9114 1.69515 10.9123 1.7001C10.9218 1.75324 10.9269 1.80675 10.9324 1.86042C10.9335 1.8714 10.9346 1.88239 10.9358 1.89337C10.9388 1.92347 10.9419 1.95357 10.945 1.98367C10.9483 2.01621 10.9516 2.04874 10.955 2.08128C10.9608 2.13778 10.9666 2.19428 10.9723 2.25079C10.9784 2.31048 10.9845 2.37018 10.9906 2.42987C10.991 2.43361 10.9914 2.43734 10.9918 2.44119C10.9937 2.46019 10.9957 2.47918 10.9976 2.49817C11.0114 2.63298 11.0252 2.76779 11.039 2.9026C11.0522 3.03179 11.0654 3.16098 11.0787 3.29016C11.0791 3.2941 11.0795 3.29803 11.0799 3.30208C11.0847 3.34955 11.0896 3.39702 11.0945 3.44448C11.1021 3.51905 11.1097 3.59363 11.1174 3.6682C11.118 3.67396 11.118 3.67396 11.1186 3.67984C11.1299 3.79078 11.1413 3.90173 11.1526 4.01268C11.1587 4.07199 11.1647 4.13131 11.1708 4.19063C11.1715 4.19738 11.1722 4.20413 11.1729 4.21108C11.2076 4.55027 11.2424 4.88944 11.2773 5.2286C11.2862 5.21132 11.2912 5.19533 11.2956 5.17629C11.2972 5.16972 11.2987 5.16315 11.3003 5.15638C11.302 5.14902 11.3037 5.14166 11.3054 5.1343C11.3072 5.12642 11.3091 5.11853 11.3109 5.11065C11.315 5.09327 11.319 5.07589 11.3231 5.05851C11.3297 5.02967 11.3365 5.00084 11.3432 4.97201C11.3507 4.93981 11.3582 4.90762 11.3657 4.87542C11.3867 4.78568 11.4077 4.69597 11.4287 4.60627C11.4295 4.60278 11.4304 4.59929 11.4312 4.59569C11.4388 4.56327 11.4464 4.53084 11.454 4.49842C11.4717 4.4231 11.4894 4.34778 11.5071 4.27246C11.5125 4.2493 11.5179 4.22613 11.5234 4.20296C11.5461 4.10593 11.5689 4.0089 11.5917 3.91186C11.6077 3.84349 11.6237 3.77512 11.6398 3.70675C11.6424 3.69547 11.6451 3.68419 11.6477 3.6729C11.718 3.37339 11.718 3.37339 11.7504 3.23578C11.7515 3.23112 11.7526 3.22647 11.7537 3.22167C11.7632 3.18124 11.7727 3.14081 11.7823 3.10038C11.8109 2.97879 11.8394 2.85716 11.8679 2.73552C11.8715 2.72012 11.8751 2.70473 11.8787 2.68933C11.8832 2.66998 11.8878 2.65062 11.8923 2.63127C11.8932 2.62742 11.8941 2.62357 11.895 2.61961C11.9048 2.57768 11.9146 2.53574 11.9244 2.49381C11.9344 2.45108 11.9444 2.40835 11.9544 2.36563C11.9552 2.36225 11.956 2.35886 11.9568 2.35538C11.9828 2.24406 12.0093 2.13286 12.0366 2.02185C12.0335 2.02082 12.0303 2.01978 12.027 2.01871C12.0229 2.01734 12.0187 2.01596 12.0144 2.01455C12.0103 2.01319 12.0061 2.01183 12.0019 2.01044C11.9273 1.98418 11.8671 1.92448 11.83 1.85607C11.828 1.8524 11.8259 1.84872 11.8238 1.84492C11.7826 1.76705 11.776 1.67184 11.7968 1.58669C11.8256 1.49378 11.8828 1.41844 11.9688 1.37296C11.9741 1.37025 11.9741 1.37025 11.9795 1.36749C11.9828 1.3658 11.986 1.36411 11.9894 1.36237C12.0368 1.33917 12.0838 1.33001 12.1364 1.33057C12.1416 1.33061 12.1468 1.33065 12.1521 1.33069C12.2496 1.33285 12.3331 1.37423 12.4005 1.44438C12.4644 1.51804 12.4912 1.60382 12.4912 1.70066C12.484 1.79958 12.4416 1.88871 12.3673 1.95451C12.3113 1.99919 12.2495 2.02446 12.1791 2.03549C12.1748 2.03618 12.1705 2.03687 12.1661 2.03759C12.1557 2.03927 12.1452 2.04093 12.1348 2.04257C12.1175 2.35336 12.1003 2.66415 12.0831 2.97494C12.0828 2.97954 12.0826 2.98414 12.0823 2.98887C12.0768 3.08878 12.0712 3.18869 12.0657 3.28859C12.063 3.33759 12.0603 3.38658 12.0575 3.43557C12.0573 3.44045 12.057 3.44532 12.0567 3.45034C12.048 3.60846 12.0392 3.76658 12.0304 3.92469C12.0214 4.08713 12.0124 4.24958 12.0034 4.41202C12.0021 4.43494 12.0009 4.45787 11.9996 4.4808C11.9993 4.48531 11.9991 4.48982 11.9988 4.49447C11.9948 4.5672 11.9908 4.63994 11.9867 4.71267C11.9827 4.78573 11.9786 4.8588 11.9746 4.93186C11.9722 4.9753 11.9698 5.01875 11.9673 5.06219C11.9655 5.09458 11.9637 5.12697 11.962 5.15935C11.9612 5.1725 11.9605 5.18564 11.9598 5.19878C11.9588 5.21657 11.9578 5.23436 11.9568 5.25215C11.9565 5.25732 11.9562 5.26249 11.9559 5.26781C11.9557 5.27255 11.9554 5.27729 11.9551 5.28217C11.9548 5.28827 11.9548 5.28827 11.9545 5.2945C11.954 5.30708 11.9539 5.31962 11.954 5.33221C12.0052 5.2242 12.0561 5.1161 12.1062 5.00755C12.1199 4.97783 12.1336 4.94812 12.1474 4.91842C12.1515 4.90947 12.1515 4.90947 12.1558 4.90033C12.1898 4.82684 12.224 4.75343 12.2582 4.68001C12.2688 4.65716 12.2795 4.63432 12.2901 4.61147C12.2923 4.60664 12.2923 4.60664 12.2946 4.60171C12.3191 4.54916 12.3435 4.49656 12.3678 4.44395C12.3897 4.39654 12.4118 4.34918 12.4338 4.30183C12.4556 4.25505 12.4773 4.20825 12.499 4.16141C12.5221 4.11152 12.5452 4.06166 12.5684 4.01183C12.5699 4.0086 12.5714 4.00538 12.5729 4.00207C12.5851 3.97593 12.5973 3.94979 12.6095 3.92365C12.6201 3.9008 12.6307 3.87796 12.6414 3.85511C12.6436 3.85028 12.6436 3.85028 12.6459 3.84535C12.6704 3.7928 12.6947 3.7402 12.7191 3.68759C12.741 3.64019 12.763 3.59282 12.7851 3.54547C12.8097 3.49267 12.8342 3.43984 12.8586 3.38698C12.8769 3.34745 12.8953 3.30795 12.9137 3.26846C12.9429 3.20561 12.9722 3.14273 13.0013 3.07981C13.0056 3.07056 13.0099 3.06131 13.0142 3.05207C13.0387 2.99912 13.0628 2.94605 13.0853 2.89218C13.0819 2.89028 13.0784 2.88837 13.0749 2.88641C12.9881 2.83765 12.9318 2.76428 12.9026 2.66942C12.8801 2.57695 12.892 2.48326 12.9367 2.39924C12.9891 2.31427 13.0688 2.25403 13.1657 2.23037C13.2638 2.21124 13.3568 2.228 13.4417 2.28088C13.4605 2.29511 13.477 2.31062 13.4934 2.3275C13.4974 2.33144 13.5015 2.33538 13.5056 2.33944C13.571 2.40675 13.5989 2.49705 13.5978 2.58977C13.5928 2.66862 13.5675 2.73694 13.5192 2.79893C13.5166 2.80249 13.514 2.80605 13.5112 2.80972C13.459 2.87548 13.3739 2.91736 13.2919 2.92845C13.2505 2.93097 13.2088 2.93131 13.168 2.92326C13.1668 2.92996 13.1656 2.93665 13.1644 2.94355C13.1562 2.98473 13.1436 3.02472 13.1316 3.06492C13.1289 3.07389 13.1263 3.08287 13.1236 3.09184C13.1179 3.11106 13.1123 3.13027 13.1065 3.14948C13.0927 3.19597 13.079 3.24248 13.0653 3.28899C13.0605 3.30501 13.0558 3.32104 13.051 3.33706C13.0223 3.43436 12.9938 3.53175 12.9654 3.62917C12.9591 3.65089 12.9527 3.67262 12.9464 3.69434C12.9451 3.69869 12.9439 3.70303 12.9426 3.70751C12.94 3.71634 12.9374 3.72516 12.9348 3.73399C12.9323 3.74285 12.9297 3.75171 12.9271 3.76056C12.8948 3.87143 12.8624 3.98226 12.8299 4.09309C12.8285 4.09808 12.827 4.10307 12.8255 4.10821C12.7795 4.26536 12.7334 4.42248 12.6873 4.5796C12.6446 4.72522 12.602 4.87087 12.5594 5.01652C12.5185 5.15629 12.4775 5.29605 12.4365 5.43579C12.4086 5.53093 12.3807 5.62608 12.3529 5.72124C12.3514 5.72645 12.3499 5.73166 12.3483 5.73703C12.3346 5.78386 12.3209 5.83068 12.3072 5.87751C12.3044 5.88722 12.3015 5.89693 12.2987 5.90665C12.2973 5.91142 12.2959 5.9162 12.2944 5.92111C12.2834 5.95901 12.2723 5.99691 12.2611 6.0348C12.2523 6.0649 12.2435 6.09502 12.2348 6.12514C12.2288 6.1459 12.2227 6.16666 12.2166 6.18742C12.2138 6.19723 12.2109 6.20704 12.2081 6.21686C12.169 6.35191 12.1188 6.46173 12.0211 6.56518C12.015 6.57187 12.015 6.57187 12.0087 6.5787C11.8719 6.72206 11.6842 6.80895 11.4994 6.87083C11.4955 6.87218 11.4917 6.87353 11.4877 6.87492C11.4052 6.90345 11.3186 6.92167 11.2329 6.93781C11.2229 6.9397 11.2129 6.94165 11.2029 6.9436C11.0908 6.96394 10.9767 6.96606 10.863 6.9657C10.8568 6.96569 10.8507 6.96568 10.8443 6.96567C10.7483 6.96543 10.6543 6.96253 10.5592 6.94854C10.553 6.94765 10.5468 6.94676 10.5404 6.94585C10.3632 6.9197 10.1886 6.87157 10.0271 6.79312C10.02 6.78974 10.0128 6.78636 10.0057 6.78299C9.90352 6.73399 9.81191 6.67174 9.73004 6.59326C9.7249 6.58834 9.71974 6.58345 9.71455 6.57858C9.60607 6.47672 9.55232 6.35461 9.51165 6.21305C9.50929 6.20494 9.50694 6.19683 9.50458 6.18872C9.49951 6.1713 9.49447 6.15388 9.48944 6.13646C9.48132 6.10833 9.47316 6.08022 9.46499 6.0521C9.45633 6.02229 9.44767 5.99248 9.43902 5.96266C9.41028 5.86357 9.38132 5.76455 9.35231 5.66554C9.34356 5.63567 9.33482 5.60579 9.32607 5.57592C9.32461 5.57094 9.32316 5.56597 9.32166 5.56084C9.31871 5.55077 9.31576 5.5407 9.31281 5.53062C9.30838 5.51549 9.30395 5.50036 9.29952 5.48523C9.28036 5.41975 9.26119 5.35428 9.24204 5.28879C9.18174 5.08268 9.12139 4.87659 9.06094 4.67053C9.01672 4.51981 8.97258 4.36906 8.92847 4.21831C8.8911 4.09055 8.8537 3.96279 8.81622 3.83506C8.77404 3.69131 8.73192 3.54754 8.68984 3.40376C8.68758 3.39604 8.68758 3.39604 8.68527 3.38816C8.63993 3.23324 8.59467 3.0783 8.54971 2.92326C8.54145 2.92451 8.54145 2.92451 8.53303 2.92578C8.43159 2.93967 8.33419 2.92153 8.25107 2.85883C8.24378 2.85277 8.23656 2.84662 8.22943 2.84038C8.22638 2.8378 8.22332 2.83522 8.22017 2.83257C8.16246 2.77986 8.12076 2.69636 8.11507 2.61809C8.11022 2.51161 8.13282 2.4159 8.20554 2.33527C8.27535 2.26176 8.36573 2.22469 8.46642 2.22163C8.55994 2.22245 8.64573 2.25826 8.71214 2.3242C8.72774 2.34033 8.74296 2.35609 8.75635 2.37413C8.75854 2.37705 8.76074 2.37998 8.76301 2.38299C8.81464 2.45829 8.82763 2.5546 8.8122 2.64287C8.80009 2.70563 8.77533 2.75408 8.73568 2.80411C8.73237 2.80849 8.72907 2.81287 8.72566 2.81739C8.71463 2.83048 8.70327 2.84051 8.68984 2.85106C8.68559 2.85443 8.68134 2.85781 8.67696 2.86128C8.66244 2.87215 8.64748 2.88215 8.63237 2.89218C8.63499 2.8977 8.63761 2.90322 8.64031 2.9089C8.69055 3.01467 8.74054 3.12054 8.78956 3.22688C8.80414 3.25846 8.81883 3.28999 8.83351 3.32152C8.83657 3.32808 8.83962 3.33464 8.84268 3.3412C8.85751 3.37306 8.87234 3.40491 8.88719 3.43677C8.89297 3.44918 8.89876 3.4616 8.90454 3.47402C8.90599 3.47714 8.90745 3.48026 8.90894 3.48347C8.92796 3.52432 8.94691 3.5652 8.96578 3.6061C8.96883 3.6127 8.96883 3.6127 8.97194 3.61944C8.9761 3.62847 8.98027 3.6375 8.98444 3.64652C9.01901 3.72144 9.05376 3.79625 9.08888 3.87091C9.11738 3.93152 9.14561 3.99226 9.17371 4.05307C9.19111 4.09072 9.20861 4.12834 9.22611 4.16595C9.22917 4.17251 9.23222 4.17906 9.23527 4.18562C9.25011 4.21748 9.26494 4.24934 9.27979 4.28119C9.28558 4.29361 9.29136 4.30603 9.29714 4.31845C9.2986 4.32157 9.30005 4.32469 9.30155 4.3279C9.32057 4.36874 9.33951 4.40962 9.35839 4.45053C9.36042 4.45493 9.36245 4.45933 9.36454 4.46387C9.36871 4.47289 9.37287 4.48192 9.37704 4.49095C9.41161 4.56586 9.44636 4.64068 9.48148 4.71534C9.50999 4.77595 9.53821 4.83669 9.56631 4.89749C9.58671 4.94162 9.60722 4.9857 9.62775 5.02977C9.63077 5.03625 9.63379 5.04274 9.63682 5.04923C9.63832 5.05245 9.63982 5.05567 9.64137 5.05899C9.65079 5.07924 9.66019 5.0995 9.66957 5.11977C9.67595 5.13353 9.68233 5.1473 9.68871 5.16106C9.6931 5.17054 9.69747 5.18002 9.70185 5.1895C9.71718 5.22255 9.73296 5.25531 9.74927 5.28788C9.75116 5.29167 9.75305 5.29545 9.755 5.29936C9.75961 5.30858 9.76423 5.31781 9.76885 5.32703C9.76869 5.32421 9.76853 5.32139 9.76837 5.31848C9.75129 5.01111 9.73421 4.70374 9.71714 4.39637C9.71688 4.39178 9.71663 4.38719 9.71636 4.38246C9.71082 4.28273 9.70529 4.18299 9.69975 4.08326C9.69703 4.03435 9.69432 3.98544 9.6916 3.93654C9.69119 3.92923 9.69119 3.92923 9.69078 3.92179C9.68202 3.76396 9.67325 3.60613 9.66447 3.4483C9.65546 3.28615 9.64645 3.124 9.63745 2.96184C9.63618 2.93895 9.63491 2.91606 9.63364 2.89318C9.63326 2.88642 9.63326 2.88642 9.63288 2.87952C9.62885 2.80693 9.62482 2.73433 9.62078 2.66174C9.61672 2.5888 9.61267 2.51586 9.60862 2.44293C9.60622 2.39956 9.60381 2.3562 9.60139 2.31284C9.59959 2.2805 9.5978 2.24817 9.59601 2.21583C9.59528 2.20272 9.59455 2.1896 9.59382 2.17649C9.59283 2.15872 9.59185 2.14096 9.59087 2.12319C9.59058 2.11805 9.59029 2.1129 9.58999 2.1076C9.58871 2.08416 9.5877 2.06088 9.58804 2.03739C9.58415 2.03732 9.58027 2.03725 9.57626 2.03717C9.48027 2.03285 9.39036 1.99545 9.32459 1.92342C9.2508 1.82971 9.22585 1.73261 9.23883 1.61459C9.25233 1.54396 9.28867 1.48069 9.34008 1.43127C9.34351 1.42768 9.34693 1.42409 9.35046 1.42038C9.41442 1.35722 9.50044 1.33173 9.58804 1.3309C9.69157 1.33179 9.77106 1.36927 9.84609 1.4409C9.90156 1.49954 9.93399 1.57902 9.93932 1.65921C9.93972 1.66479 9.93972 1.66479 9.94013 1.67049C9.94387 1.76615 9.90625 1.85163 9.84601 1.92342C9.80281 1.97016 9.75092 2.00044 9.69136 2.02185C9.69506 2.06017 9.70382 2.09697 9.71269 2.13437C9.71442 2.14176 9.71616 2.14915 9.71789 2.15654C9.72171 2.17282 9.72554 2.1891 9.72939 2.20538C9.7358 2.23254 9.74218 2.2597 9.74856 2.28687C9.75706 2.32302 9.76556 2.35917 9.77407 2.39532C9.79265 2.47428 9.81119 2.55325 9.82971 2.63222C9.83638 2.6607 9.84306 2.68917 9.84974 2.71765C9.85145 2.72493 9.85316 2.73222 9.85486 2.7395C9.87442 2.82289 9.89399 2.90628 9.91356 2.98967C9.92179 3.02472 9.93001 3.05976 9.93824 3.09481C9.93914 3.09866 9.94005 3.10252 9.94098 3.10649C9.96118 3.19257 9.98138 3.27864 10.0016 3.36472C10.0024 3.36834 10.0033 3.37196 10.0041 3.37568C10.0118 3.40851 10.0195 3.44134 10.0273 3.47417C10.0384 3.52165 10.0495 3.56913 10.0607 3.6166C10.0684 3.64961 10.0762 3.68262 10.0839 3.71562C10.0848 3.71925 10.0856 3.72288 10.0865 3.72662C10.1108 3.83009 10.135 3.93355 10.1593 4.03702C10.1758 4.10751 10.1924 4.17801 10.2089 4.24851C10.2098 4.25213 10.2106 4.25574 10.2115 4.25947C10.2524 4.43382 10.2933 4.60816 10.3343 4.78249C10.3351 4.78599 10.3359 4.7895 10.3368 4.79311C10.361 4.8962 10.3853 4.99928 10.4095 5.10237C10.4125 5.11517 10.4155 5.12797 10.4185 5.14077C10.4258 5.17177 10.4331 5.20278 10.4404 5.23378C10.4822 4.83494 10.5237 4.43606 10.5645 4.03711C10.5694 3.98946 10.5743 3.94181 10.5792 3.89416C10.5797 3.88894 10.5797 3.88894 10.5802 3.88363C10.5821 3.86595 10.5839 3.84827 10.5857 3.83059C10.5983 3.7076 10.6109 3.58461 10.6235 3.46161C10.6356 3.34343 10.6477 3.22524 10.6598 3.10706C10.6602 3.10339 10.6606 3.09972 10.6609 3.09594C10.6688 3.01895 10.6767 2.94196 10.6846 2.86497C10.6879 2.83273 10.6912 2.8005 10.6945 2.76826C10.6956 2.75765 10.6967 2.74703 10.6978 2.73641C10.7089 2.62824 10.72 2.52007 10.731 2.41191C10.7413 2.31185 10.7515 2.21179 10.7618 2.11173C10.7671 2.06 10.7724 2.00827 10.7777 1.95654C10.7811 1.92344 10.7845 1.89035 10.7879 1.85725C10.7892 1.84467 10.7904 1.83208 10.7917 1.8195C10.7934 1.80304 10.7951 1.7866 10.7968 1.77015C10.7972 1.76554 10.7977 1.76094 10.7982 1.7562C10.8005 1.73407 10.8032 1.71221 10.8072 1.6903C10.802 1.68922 10.7968 1.68815 10.7915 1.68704C10.6932 1.66541 10.6198 1.61684 10.5627 1.53326C10.5115 1.4511 10.495 1.36019 10.5137 1.26452C10.5358 1.17332 10.5856 1.09653 10.6641 1.04403C10.7925 0.967015 10.957 0.961959 11.077 1.06129ZM10.0736 6.11966C10.0698 6.12096 10.0661 6.12227 10.0622 6.12361C9.98363 6.15088 9.90702 6.1817 9.84117 6.23363C9.83741 6.23655 9.83364 6.23948 9.82977 6.24249C9.79214 6.27343 9.77127 6.30531 9.76413 6.35412C9.76271 6.39925 9.78863 6.43478 9.81825 6.46643C9.97485 6.61829 10.2528 6.65451 10.4582 6.68012C10.4645 6.68093 10.4709 6.68173 10.4775 6.68256C10.6024 6.69727 10.7273 6.70184 10.853 6.70149C10.8604 6.70148 10.8679 6.70147 10.8753 6.70146C10.9909 6.70122 11.1056 6.69866 11.2204 6.68433C11.2267 6.68356 11.2267 6.68356 11.233 6.68277C11.6082 6.63969 11.6082 6.63969 11.9148 6.44212C11.9362 6.41171 11.9478 6.38288 11.9459 6.34521C11.9366 6.29073 11.898 6.25335 11.8553 6.22181C11.6338 6.06941 11.3323 6.04041 11.0706 6.02122C11.0656 6.02085 11.0606 6.02048 11.0555 6.02009C10.7377 5.99772 10.376 6.0129 10.0736 6.11966Z" fill="#8B8B8B"/>
<path d="M1.00783 8.50242C1.25698 8.50215 1.50612 8.5019 1.75527 8.50176C1.75896 8.50176 1.76266 8.50175 1.76646 8.50175C1.84671 8.50171 1.92695 8.50166 2.0072 8.50162C2.04656 8.5016 2.08591 8.50158 2.12527 8.50156C2.12919 8.50156 2.1331 8.50156 2.13714 8.50156C2.26391 8.50149 2.39068 8.50137 2.51746 8.50123C2.64781 8.50108 2.77817 8.50099 2.90852 8.50096C2.92696 8.50095 2.94541 8.50095 2.96385 8.50094C2.96748 8.50094 2.97111 8.50094 2.97485 8.50094C3.0331 8.50092 3.09135 8.50085 3.14961 8.50076C3.20828 8.50066 3.26694 8.50063 3.32561 8.50065C3.35736 8.50066 3.3891 8.50065 3.42085 8.50056C3.44998 8.50049 3.47911 8.50048 3.50824 8.50054C3.51872 8.50054 3.52919 8.50052 3.53966 8.50048C3.62776 8.50009 3.71654 8.50601 3.80124 8.5322C3.80569 8.53354 3.81014 8.53487 3.81472 8.53625C3.95698 8.58012 4.07943 8.65636 4.18481 8.76144C4.18851 8.76512 4.18851 8.76512 4.19229 8.76888C4.34732 8.92527 4.42819 9.14669 4.42954 9.36498C4.42802 9.61035 4.32893 9.83083 4.15581 10.0026C4.05025 10.1021 3.91917 10.175 3.77802 10.209C3.76353 10.2127 3.74952 10.2175 3.73538 10.2224C3.74063 10.2241 3.74063 10.2241 3.74599 10.2258C3.88387 10.2712 4.00217 10.3224 4.10732 10.4244C4.11173 10.4285 4.11614 10.4327 4.12068 10.437C4.33619 10.6449 4.41322 10.9631 4.50635 11.2384C4.52327 11.2884 4.54039 11.3383 4.55786 11.3882C4.55964 11.3932 4.56142 11.3983 4.56326 11.4036C4.57182 11.428 4.58041 11.4524 4.58905 11.4769C4.59215 11.4857 4.59524 11.4945 4.59833 11.5033C4.59973 11.5072 4.60113 11.5111 4.60256 11.5151C4.61192 11.5419 4.61767 11.5671 4.6239 11.5952C4.75005 11.5952 4.8762 11.5952 5.00617 11.5952C5.00617 11.6807 5.00617 11.7662 5.00617 11.8542C4.64477 11.8542 4.28337 11.8542 3.91102 11.8542C3.86969 11.6648 3.86969 11.6648 3.84967 11.5706C3.84666 11.5564 3.84364 11.5422 3.84061 11.528C3.83878 11.5194 3.83694 11.5108 3.83511 11.5021C3.8314 11.4847 3.82755 11.4674 3.8232 11.4501C3.8214 11.4427 3.81961 11.4353 3.81782 11.4278C3.78469 11.2903 3.74965 11.1542 3.70439 11.0202C3.70255 11.0147 3.70072 11.0092 3.69883 11.0036C3.66191 10.8945 3.61523 10.7892 3.56002 10.6882C3.55523 10.6794 3.55057 10.6706 3.54592 10.6617C3.45438 10.4878 3.31515 10.3682 3.12872 10.3098C3.08311 10.296 3.03717 10.2837 2.99086 10.2725C2.98601 10.2713 2.98117 10.2702 2.97618 10.2689C2.74511 10.216 2.48238 10.24 2.25796 10.2379C2.25796 10.6858 2.25796 11.1337 2.25796 11.5952C2.4165 11.5952 2.57503 11.5952 2.73838 11.5952C2.73838 11.6807 2.73838 11.7662 2.73838 11.8542C2.16389 11.8542 1.5894 11.8542 0.997498 11.8542C0.997498 11.7687 0.997498 11.6833 0.997498 11.5952C1.15604 11.5952 1.31458 11.5952 1.47792 11.5952C1.47792 10.6583 1.47792 9.7215 1.47792 8.75626C1.32279 8.75626 1.16766 8.75626 1.00783 8.75626C1.00783 8.67249 1.00783 8.58872 1.00783 8.50242ZM2.26312 8.75626C2.26312 9.15801 2.26312 9.55976 2.26312 9.97369C2.40419 9.97412 2.54525 9.97454 2.69059 9.97498C2.73496 9.97517 2.77933 9.97536 2.82504 9.97555C2.86518 9.97562 2.86518 9.97562 2.90532 9.97567C2.92305 9.97568 2.94078 9.97576 2.95851 9.97588C3.09783 9.97795 3.09783 9.97795 3.2343 9.95297C3.24032 9.95126 3.24032 9.95126 3.24647 9.94952C3.33819 9.92337 3.4198 9.88 3.49259 9.81827C3.49916 9.81285 3.49916 9.81285 3.50586 9.80732C3.5204 9.7952 3.5204 9.7952 3.53391 9.78201C3.53391 9.77859 3.53391 9.77517 3.53391 9.77165C3.53732 9.77165 3.54073 9.77165 3.54425 9.77165C3.5527 9.76202 3.56046 9.75242 3.56814 9.74218C3.57044 9.73913 3.57274 9.73607 3.57511 9.73292C3.67713 9.59534 3.71424 9.43608 3.69046 9.26565C3.66468 9.11275 3.58035 8.97499 3.45485 8.88351C3.29025 8.76721 3.11047 8.7537 2.9153 8.75469C2.89456 8.75478 2.87382 8.75478 2.85308 8.75479C2.79278 8.75487 2.73249 8.75509 2.67219 8.75529C2.4697 8.75577 2.4697 8.75577 2.26312 8.75626Z" fill="#8B8B8B"/>
<path d="M8.07945 8.73077C8.08247 8.733 8.08548 8.73523 8.08858 8.73752C8.19162 8.81421 8.29063 8.90217 8.3739 9.00016C8.3802 9.00742 8.3802 9.00742 8.38662 9.01483C8.46947 9.11097 8.54099 9.21551 8.60118 9.32734C8.60614 9.33647 8.61126 9.34552 8.61639 9.35456C8.72963 9.55805 8.79326 9.79442 8.813 10.0259C8.81345 10.0311 8.81345 10.0311 8.8139 10.0364C8.8379 10.331 8.78544 10.6309 8.66348 10.8997C8.65837 10.911 8.6534 10.9223 8.64846 10.9337C8.55145 11.1525 8.39074 11.3626 8.2086 11.5179C8.20378 11.5221 8.19896 11.5263 8.19399 11.5306C8.12699 11.5887 8.05598 11.6412 7.9813 11.6889C7.97833 11.6908 7.97536 11.6927 7.9723 11.6946C7.71512 11.8575 7.42146 11.9496 7.11861 11.9696C7.10873 11.9702 7.10873 11.9702 7.09864 11.9709C7.02991 11.975 6.96195 11.9743 6.89325 11.9699C6.88813 11.9696 6.88813 11.9696 6.88291 11.9692C6.80934 11.9644 6.73675 11.9548 6.66402 11.9427C6.65944 11.942 6.65486 11.9412 6.65014 11.9405C6.52258 11.9197 6.40022 11.8741 6.28175 11.8235C6.27497 11.8207 6.27497 11.8207 6.26806 11.8178C6.1247 11.7574 5.99419 11.673 5.87228 11.5767C5.85713 11.5648 5.84175 11.5532 5.82643 11.5415C5.81385 11.5309 5.80258 11.5192 5.79099 11.5075C5.78054 11.4977 5.76994 11.4881 5.75935 11.4784C5.71414 11.4368 5.67054 11.394 5.63085 11.3469C5.62674 11.3422 5.62262 11.3375 5.61838 11.3327C5.3131 10.9816 5.16556 10.5118 5.19415 10.0492C5.22348 9.65645 5.38359 9.27731 5.64986 8.98741C5.6597 8.97661 5.66922 8.96566 5.67864 8.9545C5.71912 8.90783 5.76405 8.86335 5.81166 8.82402C5.81438 8.82174 5.81711 8.81945 5.81991 8.8171C6.24181 8.46356 6.78861 8.31278 8.07945 8.73077ZM6.32307 9.04678C6.26163 9.11753 6.21489 9.19906 6.1681 9.27991C6.16562 9.28418 6.16314 9.28846 6.16059 9.29286C6.05567 9.47623 5.9964 9.68811 5.96663 9.89639C5.96585 9.90172 5.96507 9.90705 5.96427 9.91254C5.93931 10.0914 5.93908 10.2826 5.96663 10.4611C5.96755 10.4671 5.96846 10.4731 5.9694 10.4793C5.99777 10.6607 6.04817 10.8338 6.12677 10.9998C6.12877 11.0041 6.13077 11.0084 6.13283 11.0128C6.15928 11.0684 6.19159 11.1199 6.22557 11.1711C6.22753 11.1741 6.22949 11.177 6.23151 11.1801C6.26991 11.2378 6.31205 11.291 6.35923 11.3418C6.36278 11.3456 6.36632 11.3494 6.36997 11.3534C6.53176 11.5222 6.74925 11.605 6.97956 11.6121C7.24769 11.6171 7.46085 11.5231 7.65397 11.3389C7.67595 11.3174 7.69519 11.2948 7.71365 11.2702C7.71652 11.2664 7.7194 11.2626 7.72236 11.2587C7.9172 10.9978 8.02228 10.6909 8.05362 10.3678C8.05411 10.3631 8.0546 10.3583 8.0551 10.3534C8.0602 10.2971 8.06004 10.2407 8.06008 10.1842C8.06009 10.1788 8.06009 10.1735 8.0601 10.1679C8.06004 10.0781 8.0558 9.99057 8.04329 9.90157C8.0426 9.89635 8.04191 9.89113 8.0412 9.88575C8.01723 9.7084 7.96559 9.53434 7.88832 9.37316C7.88668 9.36965 7.88504 9.36615 7.88335 9.36254C7.79773 9.17985 7.67909 9.00067 7.50605 8.89137C7.5013 8.88824 7.49656 8.88512 7.49168 8.8819C7.12226 8.64427 6.62702 8.71743 6.32307 9.04678Z" fill="#8B8B8B"/>
<path d="M12.9251 8.50848C14.0196 8.50848 15.114 8.50848 16.2416 8.50848C16.2416 8.88972 16.2416 9.27095 16.2416 9.66374C16.1564 9.66374 16.0711 9.66374 15.9833 9.66374C15.9831 9.63554 15.9829 9.60733 15.9827 9.57826C15.9826 9.56023 15.9824 9.54219 15.9822 9.52415C15.9819 9.49562 15.9817 9.46709 15.9815 9.43856C15.9814 9.41551 15.9812 9.39247 15.9809 9.36943C15.9808 9.36071 15.9808 9.35198 15.9807 9.34326C15.9801 9.18592 15.9295 9.04165 15.8186 8.92809C15.717 8.82837 15.5774 8.77096 15.4355 8.77125C15.4301 8.77122 15.4247 8.77119 15.4191 8.77116C15.4013 8.77107 15.3834 8.77105 15.3655 8.77104C15.3527 8.77099 15.3398 8.77094 15.3269 8.77088C15.2992 8.77077 15.2716 8.77069 15.244 8.77064C15.204 8.77056 15.164 8.77043 15.1241 8.77028C15.0592 8.77005 14.9943 8.76986 14.9295 8.7697C14.8665 8.76954 14.8036 8.76936 14.7406 8.76915C14.7347 8.76914 14.7347 8.76914 14.7287 8.76912C14.698 8.76902 14.6673 8.76891 14.6365 8.76881C14.4862 8.76831 14.3359 8.76792 14.1856 8.76751C14.1856 9.16071 14.1856 9.55392 14.1856 9.95903C14.5692 9.98503 14.5692 9.98503 14.8897 9.82798C14.9106 9.80371 14.9263 9.77687 14.9411 9.74857C14.9436 9.74399 14.9436 9.74399 14.9461 9.73931C14.9828 9.66488 14.9844 9.5869 14.985 9.50574C14.9854 9.47069 14.9859 9.43564 14.9863 9.39954C15.063 9.39954 15.1397 9.39954 15.2188 9.39954C15.2188 9.86283 15.2188 10.3261 15.2188 10.8035C15.1421 10.8035 15.0653 10.8035 14.9863 10.8035C14.9847 10.6892 14.9847 10.6892 14.9843 10.6536C14.9832 10.5815 14.98 10.5108 14.9488 10.4444C14.9473 10.4409 14.9457 10.4375 14.9441 10.434C14.9303 10.4045 14.9137 10.3781 14.8933 10.3528C14.8903 10.3488 14.8872 10.3449 14.884 10.3409C14.831 10.2769 14.7531 10.2262 14.6699 10.2144C14.6609 10.2129 14.6609 10.2129 14.6557 10.2077C14.5005 10.1855 14.3423 10.1992 14.1856 10.1973C14.1856 10.6606 14.1856 11.1239 14.1856 11.6013C14.5046 11.6006 14.5046 11.6006 14.83 11.6C14.8971 11.5999 14.9641 11.5998 15.0331 11.5997C15.0935 11.5995 15.0935 11.5995 15.1538 11.5993C15.1806 11.5993 15.2074 11.5992 15.2341 11.5992C15.2684 11.5992 15.3026 11.5991 15.3369 11.599C15.3494 11.5989 15.3619 11.5989 15.3744 11.599C15.5277 11.5993 15.6676 11.5688 15.787 11.4666C15.7911 11.4632 15.7952 11.4598 15.7995 11.4563C15.9008 11.3698 15.9623 11.2406 15.9781 11.1091C15.9809 11.0729 15.9807 11.0365 15.9808 11.0002C15.9809 10.9899 15.981 10.9797 15.9811 10.9695C15.9813 10.9429 15.9815 10.9163 15.9816 10.8897C15.9818 10.8576 15.9821 10.8255 15.9823 10.7935C15.9828 10.745 15.983 10.6965 15.9833 10.648C16.0685 10.648 16.1538 10.648 16.2416 10.648C16.2416 11.0481 16.2416 11.4481 16.2416 11.8603C15.1472 11.8603 14.0527 11.8603 12.9251 11.8603C12.9251 11.7748 12.9251 11.6893 12.9251 11.6013C13.082 11.6013 13.2388 11.6013 13.4004 11.6013C13.4004 10.6661 13.4004 9.73099 13.4004 8.76751C13.2436 8.76751 13.0867 8.76751 12.9251 8.76751C12.9251 8.68203 12.9251 8.59655 12.9251 8.50848Z" fill="#8B8B8B"/>
<path d="M16.8508 8.51343C17.4082 8.51343 17.9657 8.51343 18.54 8.51343C18.54 8.59549 18.54 8.67755 18.54 8.76209C18.5174 8.76223 18.4947 8.76236 18.4714 8.7625C18.4533 8.76266 18.4351 8.76285 18.417 8.76305C18.3979 8.76325 18.3788 8.76342 18.3597 8.7635C18.3413 8.76358 18.3228 8.76376 18.3044 8.764C18.294 8.76411 18.2836 8.76413 18.2732 8.76414C18.2331 8.76478 18.2015 8.76689 18.1706 8.79512C18.1469 8.82123 18.1392 8.84979 18.1404 8.88432C18.1473 8.93071 18.1803 8.96467 18.21 8.99864C18.224 9.01468 18.2369 9.03133 18.2497 9.04832C18.27 9.0751 18.291 9.10113 18.3124 9.127C18.3368 9.15659 18.3609 9.18643 18.3844 9.21674C18.4024 9.23985 18.4208 9.26262 18.4393 9.28533C18.4602 9.31103 18.4809 9.33688 18.5013 9.36304C18.5275 9.39677 18.5544 9.42999 18.5814 9.46317C18.5967 9.48206 18.6119 9.50109 18.6271 9.52015C18.6444 9.5418 18.6619 9.56328 18.6794 9.5848C18.7013 9.61176 18.7228 9.63898 18.744 9.66647C18.7545 9.68008 18.765 9.69318 18.7776 9.70495C18.7803 9.70162 18.783 9.69829 18.7858 9.69485C18.8102 9.66485 18.8348 9.63516 18.8598 9.60568C18.8747 9.58809 18.8894 9.57035 18.9039 9.55245C18.9243 9.52726 18.9453 9.50261 18.9665 9.47801C18.9861 9.45514 19.0052 9.43192 19.0242 9.40851C19.0398 9.38942 19.0557 9.37062 19.0717 9.35181C19.0865 9.33423 19.1012 9.3165 19.1157 9.2986C19.1361 9.27341 19.1571 9.24877 19.1783 9.22417C19.1979 9.20128 19.217 9.17804 19.236 9.15462C19.2609 9.12417 19.2864 9.09429 19.3119 9.06429C19.3997 8.97377 19.3997 8.97377 19.4351 8.85977C19.4323 8.83014 19.4199 8.80831 19.3979 8.78864C19.3728 8.77119 19.3539 8.76599 19.3234 8.76562C19.3169 8.76552 19.3104 8.76542 19.3037 8.76531C19.2966 8.76525 19.2895 8.76519 19.2825 8.76513C19.2752 8.76503 19.268 8.76493 19.2607 8.76482C19.2417 8.76456 19.2226 8.76435 19.2036 8.76416C19.1841 8.76395 19.1646 8.76369 19.1452 8.76343C19.107 8.76292 19.0689 8.76251 19.0308 8.76209C19.0308 8.68003 19.0308 8.59797 19.0308 8.51343C19.4757 8.51343 19.9206 8.51343 20.379 8.51343C20.379 8.59549 20.379 8.67755 20.379 8.76209C20.3515 8.76238 20.3515 8.76238 20.3234 8.76268C20.3053 8.76292 20.2872 8.76319 20.2691 8.76345C20.2567 8.76362 20.2442 8.76377 20.2318 8.76389C20.0472 8.7657 19.9325 8.80349 19.8008 8.93738C19.7846 8.95442 19.7692 8.97209 19.754 8.99004C19.7494 8.99543 19.7447 9.00082 19.7401 9.00621C19.7296 9.01855 19.719 9.03091 19.7084 9.04328C19.6976 9.05599 19.6867 9.06869 19.6758 9.08136C19.6487 9.11302 19.6219 9.14491 19.5956 9.17735C19.5815 9.19455 19.567 9.21146 19.5525 9.22834C19.5302 9.25431 19.5083 9.28059 19.4868 9.3072C19.4736 9.32337 19.4601 9.33933 19.4466 9.35526C19.4292 9.37583 19.4119 9.3965 19.3949 9.41743C19.3663 9.45268 19.3369 9.48726 19.3076 9.5219C19.2792 9.55536 19.2511 9.58898 19.2235 9.62303C19.2078 9.64217 19.1918 9.66104 19.1758 9.67991C19.161 9.69749 19.1463 9.71522 19.1318 9.73312C19.114 9.75512 19.0957 9.77672 19.0772 9.7982C19.0381 9.84382 19.0002 9.89033 18.9636 9.93807C19.0063 9.99593 19.0511 10.0519 19.0969 10.1074C19.1181 10.1331 19.1388 10.1592 19.1593 10.1855C19.1773 10.2086 19.1957 10.2314 19.2141 10.2541C19.2374 10.2827 19.2604 10.3115 19.283 10.3407C19.3039 10.3674 19.3253 10.3938 19.3467 10.4201C19.3647 10.4422 19.3823 10.4644 19.3998 10.4869C19.421 10.5141 19.4427 10.5409 19.4647 10.5675C19.489 10.597 19.513 10.6267 19.5364 10.6569C19.5544 10.68 19.5728 10.7028 19.5912 10.7255C19.6145 10.7541 19.6375 10.783 19.6601 10.8121C19.681 10.8388 19.7024 10.8652 19.7238 10.8915C19.7418 10.9136 19.7594 10.9359 19.7769 10.9583C19.7981 10.9856 19.8198 11.0123 19.8418 11.0389C19.8661 11.0684 19.8901 11.0982 19.9135 11.1284C19.9343 11.155 19.9556 11.1812 19.9769 11.2074C19.9955 11.2303 20.0136 11.2533 20.0316 11.2766C20.0549 11.3065 20.0796 11.3348 20.1052 11.3627C20.1113 11.3696 20.1173 11.3765 20.1233 11.3834C20.1446 11.4079 20.166 11.4321 20.1879 11.456C20.1944 11.4631 20.1944 11.4631 20.201 11.4703C20.2846 11.5585 20.3911 11.6034 20.5126 11.6073C20.5218 11.6075 20.531 11.6077 20.5401 11.6078C20.5445 11.6079 20.5488 11.608 20.5532 11.6081C20.5692 11.6085 20.5852 11.6088 20.6012 11.6091C20.637 11.6099 20.6728 11.6106 20.7096 11.6114C20.7096 11.6934 20.7096 11.7755 20.7096 11.8601C20.4795 11.8608 20.2493 11.8616 20.0192 11.8623C19.992 11.8624 19.9649 11.8625 19.9377 11.8626C19.9323 11.8626 19.9269 11.8626 19.9214 11.8626C19.8337 11.8629 19.7461 11.8632 19.6585 11.8635C19.5687 11.8638 19.4788 11.8641 19.389 11.8643C19.3335 11.8645 19.2781 11.8647 19.2226 11.8649C19.1846 11.865 19.1466 11.8651 19.1086 11.8652C19.0866 11.8653 19.0647 11.8654 19.0427 11.8655C19.0227 11.8655 19.0026 11.8656 18.9825 11.8656C18.9752 11.8657 18.968 11.8657 18.9607 11.8657C18.9508 11.8658 18.941 11.8658 18.9311 11.8658C18.9229 11.8658 18.9229 11.8658 18.9145 11.8658C18.9016 11.8652 18.9016 11.8652 18.8913 11.8601C18.8913 11.778 18.8913 11.6959 18.8913 11.6114C18.9149 11.6113 18.9386 11.6112 18.9629 11.6112C18.978 11.6111 18.993 11.6109 19.0081 11.6108C19.032 11.6106 19.0558 11.6104 19.0797 11.6104C19.099 11.6104 19.1182 11.6102 19.1375 11.61C19.1448 11.6099 19.1521 11.6099 19.1594 11.6099C19.2037 11.61 19.2422 11.6079 19.2787 11.5803C19.2989 11.5556 19.3104 11.5313 19.3113 11.499C19.3115 11.4948 19.3117 11.4907 19.3119 11.4863C19.3063 11.4482 19.2819 11.4192 19.2577 11.3906C19.2517 11.3833 19.2457 11.376 19.2396 11.3687C19.2366 11.3651 19.2336 11.3614 19.2305 11.3577C19.2179 11.3423 19.2057 11.3266 19.1935 11.3109C19.1731 11.2848 19.1524 11.2589 19.1315 11.2332C19.1106 11.2075 19.0899 11.1817 19.0695 11.1555C19.0406 11.1184 19.011 11.0819 18.9813 11.0454C18.9579 11.0165 18.9348 10.9874 18.9119 10.958C18.8889 10.9286 18.8656 10.8993 18.8419 10.8704C18.803 10.823 18.7645 10.7754 18.7268 10.727C18.7087 10.7038 18.6903 10.681 18.6717 10.6582C18.6501 10.6316 18.6286 10.6049 18.6075 10.5779C18.604 10.5734 18.604 10.5734 18.6004 10.5688C18.5876 10.5524 18.5751 10.5358 18.5629 10.5189C18.5567 10.5109 18.5567 10.5109 18.5503 10.5028C18.5469 10.5028 18.5435 10.5028 18.54 10.5028C18.5329 10.5106 18.5262 10.5187 18.5197 10.527C18.5155 10.5322 18.5114 10.5374 18.5071 10.5428C18.5049 10.5456 18.5027 10.5483 18.5004 10.5512C18.4889 10.5655 18.477 10.5794 18.4651 10.5934C18.4477 10.614 18.4304 10.6347 18.4134 10.6556C18.3848 10.6908 18.3554 10.7254 18.3261 10.76C18.2977 10.7935 18.2696 10.8271 18.242 10.8612C18.2263 10.8803 18.2103 10.8992 18.1943 10.9181C18.1795 10.9356 18.1648 10.9534 18.1503 10.9713C18.1299 10.9965 18.1088 11.0211 18.0877 11.0457C18.0681 11.0686 18.049 11.0918 18.03 11.1152C18.0168 11.1314 18.0033 11.1473 17.9898 11.1633C17.9724 11.1838 17.9552 11.2045 17.9382 11.2254C17.9212 11.2464 17.9039 11.267 17.8865 11.2876C17.8651 11.3129 17.8439 11.3385 17.823 11.3643C17.8151 11.374 17.807 11.3837 17.799 11.3934C17.7948 11.3983 17.7907 11.4033 17.7864 11.4084C17.7827 11.4128 17.779 11.4172 17.7752 11.4218C17.7546 11.4494 17.7414 11.4778 17.7458 11.513C17.7537 11.5503 17.7717 11.5743 17.8024 11.5959C17.8238 11.6077 17.8453 11.607 17.8692 11.6073C17.8748 11.6073 17.8748 11.6073 17.8804 11.6074C17.8925 11.6076 17.9047 11.6077 17.9168 11.6078C17.9252 11.608 17.9336 11.6081 17.9421 11.6082C17.9642 11.6085 17.9864 11.6087 18.0085 11.609C18.0351 11.6093 18.0617 11.6096 18.0883 11.6099C18.1287 11.6105 18.169 11.6109 18.2094 11.6114C18.2094 11.6934 18.2094 11.7755 18.2094 11.8601C17.7338 11.8601 17.2582 11.8601 16.7681 11.8601C16.7681 11.778 16.7681 11.6959 16.7681 11.6114C16.7867 11.6111 16.8052 11.6109 16.8243 11.6106C16.8425 11.6103 16.8607 11.61 16.8789 11.6097C16.8915 11.6095 16.904 11.6094 16.9165 11.6092C17.0805 11.607 17.211 11.5876 17.3312 11.4663C17.3346 11.4612 17.338 11.4561 17.3415 11.4508C17.3449 11.4508 17.3484 11.4508 17.3519 11.4508C17.354 11.4462 17.354 11.4462 17.3561 11.4415C17.362 11.4304 17.368 11.4227 17.3766 11.4136C17.3794 11.4106 17.3822 11.4077 17.3851 11.4046C17.3881 11.4014 17.3911 11.3983 17.3942 11.3951C17.4003 11.3885 17.4065 11.382 17.4126 11.3754C17.4156 11.3723 17.4185 11.3692 17.4215 11.3659C17.4366 11.3497 17.4511 11.3329 17.4655 11.3161C17.4707 11.3102 17.4758 11.3042 17.481 11.2983C17.5104 11.2645 17.5394 11.2305 17.5676 11.1956C17.5807 11.1795 17.5941 11.1636 17.6076 11.1477C17.6249 11.1273 17.642 11.1067 17.6589 11.0859C17.6793 11.0607 17.7004 11.0361 17.7215 11.0114C17.7411 10.9886 17.7602 10.9654 17.7792 10.9419C17.7924 10.9258 17.8059 10.9098 17.8194 10.8939C17.8368 10.8733 17.854 10.8526 17.871 10.8317C17.8904 10.8079 17.9101 10.7844 17.93 10.7609C17.9449 10.7433 17.9595 10.7256 17.974 10.7077C17.9945 10.6825 18.0155 10.6579 18.0366 10.6333C18.0562 10.6104 18.0754 10.5872 18.0943 10.5638C18.1099 10.5447 18.1259 10.5259 18.1418 10.5071C18.1567 10.4895 18.1713 10.4718 18.1858 10.4539C18.2037 10.4319 18.2219 10.4103 18.2404 10.3888C18.278 10.345 18.3149 10.3008 18.3489 10.2541C18.3431 10.2464 18.3373 10.2387 18.3314 10.2311C18.3282 10.2268 18.325 10.2226 18.3216 10.2182C18.3135 10.207 18.3135 10.207 18.3024 10.2023C18.3002 10.1987 18.2981 10.1951 18.2959 10.1914C18.2843 10.172 18.2703 10.1553 18.2559 10.1378C18.2498 10.1304 18.2437 10.123 18.2376 10.1155C18.2346 10.1118 18.2316 10.1081 18.2285 10.1043C18.2159 10.0887 18.2036 10.073 18.1913 10.0572C18.1682 10.0275 18.1445 9.99817 18.1207 9.96894C18.1028 9.94687 18.0851 9.9246 18.0677 9.90213C18.0465 9.87488 18.0247 9.84813 18.0028 9.82151C17.9661 9.77703 17.9303 9.73189 17.8953 9.68603C17.893 9.68296 17.8906 9.67988 17.8882 9.67672C17.8818 9.66826 17.8754 9.65978 17.8689 9.6513C17.8591 9.63825 17.8591 9.63825 17.8505 9.62995C17.8382 9.61766 17.828 9.60373 17.8174 9.59001C17.7879 9.55206 17.7577 9.51472 17.7274 9.47745C17.7183 9.46622 17.7092 9.45496 17.7002 9.4437C17.6972 9.43995 17.6941 9.4362 17.691 9.43234C17.6853 9.42518 17.6795 9.41801 17.6738 9.41084C17.663 9.39748 17.6524 9.38471 17.6402 9.37267C17.6295 9.36171 17.6232 9.35028 17.6153 9.33713C17.6053 9.324 17.5948 9.31132 17.5843 9.2986C17.5782 9.29117 17.5722 9.28373 17.5661 9.27628C17.5631 9.27257 17.56 9.26886 17.5569 9.26503C17.5443 9.2495 17.532 9.23376 17.5198 9.21798C17.4966 9.18824 17.473 9.15892 17.4492 9.12972C17.4358 9.11336 17.4226 9.09695 17.4098 9.08019C17.3791 9.03996 17.3462 9.0027 17.3114 8.96598C17.2988 8.95263 17.2866 8.93901 17.2747 8.92496C17.2613 8.90935 17.2469 8.89617 17.231 8.88313C17.2227 8.87607 17.2227 8.87607 17.2105 8.86311C17.1255 8.78194 17.0145 8.7674 16.9024 8.76414C16.8965 8.76394 16.8906 8.76375 16.8846 8.76355C16.8792 8.76339 16.8738 8.76324 16.8683 8.76307C16.8559 8.76209 16.8559 8.76209 16.8508 8.75691C16.8508 8.67656 16.8508 8.59621 16.8508 8.51343Z" fill="#8B8B8B"/>
<path d="M9.26277 8.50848C9.84238 8.50848 10.422 8.50848 11.0191 8.50848C11.0191 8.59396 11.0191 8.67944 11.0191 8.76751C10.8589 8.76751 10.6987 8.76751 10.5336 8.76751C10.5336 9.70265 10.5336 10.6378 10.5336 11.6013C11.151 11.6644 11.151 11.6644 11.8715 11.5184C11.8766 11.5156 11.8817 11.5127 11.8869 11.5098C11.9896 11.4488 12.0667 11.3473 12.1085 11.2364C12.1099 11.2327 12.1113 11.229 12.1128 11.2252C12.1419 11.1431 12.1425 11.0606 12.1428 10.9746C12.1429 10.9623 12.143 10.95 12.1431 10.9377C12.1433 10.9055 12.1435 10.8734 12.1436 10.8413C12.1438 10.8026 12.1441 10.7639 12.1443 10.7252C12.1447 10.6667 12.145 10.6081 12.1453 10.5496C12.2305 10.5496 12.3158 10.5496 12.4036 10.5496C12.4036 10.9804 12.4036 11.4112 12.4036 11.8551C11.3671 11.8551 10.3306 11.8551 9.26277 11.8551C9.26277 11.7713 9.26277 11.6876 9.26277 11.6013C9.42302 11.6013 9.58326 11.6013 9.74836 11.6013C9.74836 10.6661 9.74836 9.73099 9.74836 8.76751C9.58982 8.76751 9.43128 8.76751 9.26794 8.76751C9.26623 8.7658 9.26453 8.76409 9.26277 8.76233C9.26277 8.67856 9.26277 8.59479 9.26277 8.50848Z" fill="#8B8B8B"/>
</g>
<defs>
<clipPath id="clip0_4_155">
<rect width="19.8367" height="11.19" fill="white" transform="translate(0.914337 0.897949)"/>
</clipPath>
</defs>
</svg>
