<svg width="5" height="5" viewBox="0 0 5 5" fill="none" xmlns="http://www.w3.org/2000/svg">
<path d="M1.57357 3.07705H2.92341C3.75742 3.07705 3.88426 2.55311 4.03809 1.78895C4.08247 1.56854 4.10466 1.45834 4.0513 1.38492C3.99794 1.3115 3.89567 1.3115 3.69113 1.3115H1.20187" stroke="white" stroke-width="0.278771" stroke-linecap="round"/>
<path d="M1.57376 3.07689L1.08661 0.756574C1.04524 0.591107 0.896571 0.475029 0.726013 0.475029H0.551605" stroke="white" stroke-width="0.278771" stroke-linecap="round"/>
<path d="M1.73711 3.07707H1.66065C1.40728 3.07707 1.20187 3.29103 1.20187 3.55495C1.20187 3.59894 1.23611 3.63461 1.27834 3.63461H3.33912" stroke="white" stroke-width="0.278771" stroke-linecap="round" stroke-linejoin="round"/>
<path d="M2.0386 4.19195C2.19256 4.19195 2.31737 4.06714 2.31737 3.91317C2.31737 3.75921 2.19256 3.6344 2.0386 3.6344C1.88464 3.6344 1.75983 3.75921 1.75983 3.91317C1.75983 4.06714 1.88464 4.19195 2.0386 4.19195Z" stroke="white" stroke-width="0.278771"/>
<path d="M3.33947 4.19195C3.49343 4.19195 3.61824 4.06714 3.61824 3.91317C3.61824 3.75921 3.49343 3.6344 3.33947 3.6344C3.18551 3.6344 3.0607 3.75921 3.0607 3.91317C3.0607 4.06714 3.18551 4.19195 3.33947 4.19195Z" stroke="white" stroke-width="0.278771"/>
</svg>
