<svg width="6" height="5" viewBox="0 0 6 5" fill="none" xmlns="http://www.w3.org/2000/svg">
<path d="M3.05153 4.19197C4.07793 4.19197 4.91 3.35991 4.91 2.3335C4.91 1.30709 4.07793 0.475029 3.05153 0.475029C2.02512 0.475029 1.19305 1.30709 1.19305 2.3335C1.19305 3.35991 2.02512 4.19197 3.05153 4.19197Z" stroke="white" stroke-width="0.278771"/>
<path d="M2.21573 3.26353C2.64907 2.80965 3.45035 2.78828 3.88835 3.26353M3.51575 1.86967C3.51575 2.12627 3.30743 2.33429 3.05046 2.33429C2.79351 2.33429 2.58519 2.12627 2.58519 1.86967C2.58519 1.61307 2.79351 1.40506 3.05046 1.40506C3.30743 1.40506 3.51575 1.61307 3.51575 1.86967Z" stroke="white" stroke-width="0.278771" stroke-linecap="round"/>
</svg>
